<svg width="38" height="38" viewBox="0 0 38 38" fill="none" xmlns="http://www.w3.org/2000/svg">
<path d="M7.125 5.9375C7.125 4.36278 7.75056 2.85255 8.86405 1.73905C9.97755 0.625556 11.4878 0 13.0625 0C14.6372 0 16.1474 0.625556 17.2609 1.73905C18.3744 2.85255 19 4.36278 19 5.9375C19 4.36278 19.6256 2.85255 20.7391 1.73905C21.8526 0.625556 23.3628 0 24.9375 0C26.5122 0 28.0224 0.625556 29.1359 1.73905C30.2494 2.85255 30.875 4.36278 30.875 5.9375V5.95175C30.875 6.118 30.875 6.593 30.7847 7.125H35.625C36.2549 7.125 36.859 7.37522 37.3044 7.82062C37.7498 8.26602 38 8.87011 38 9.5V11.875C38 12.5049 37.7498 13.109 37.3044 13.5544C36.859 13.9998 36.2549 14.25 35.625 14.25H2.375C1.74511 14.25 1.14102 13.9998 0.695621 13.5544C0.250223 13.109 0 12.5049 0 11.875V9.5C0 8.87011 0.250223 8.26602 0.695621 7.82062C1.14102 7.37522 1.74511 7.125 2.375 7.125H7.21525C7.15287 6.73707 7.12268 6.34465 7.125 5.95175V5.9375ZM9.6615 7.125H16.625V5.9375C16.625 5.46967 16.5329 5.00641 16.3538 4.57419C16.1748 4.14197 15.9124 3.74924 15.5816 3.41843C15.2508 3.08762 14.858 2.82521 14.4258 2.64618C13.9936 2.46715 13.5303 2.375 13.0625 2.375C12.5947 2.375 12.1314 2.46715 11.6992 2.64618C11.267 2.82521 10.8742 3.08762 10.5434 3.41843C10.2126 3.74924 9.95021 4.14197 9.77118 4.57419C9.59215 5.00641 9.5 5.46967 9.5 5.9375C9.5 6.13938 9.50475 6.58825 9.60688 6.95875L9.6615 7.125ZM21.375 7.125H28.3385L28.3931 6.95875C28.4953 6.58825 28.5 6.13938 28.5 5.9375C28.5 4.99267 28.1247 4.08653 27.4566 3.41843C26.7885 2.75033 25.8823 2.375 24.9375 2.375C23.9927 2.375 23.0865 2.75033 22.4184 3.41843C21.7503 4.08653 21.375 4.99267 21.375 5.9375V7.125ZM35.625 16.625V34.4375C35.625 35.3823 35.2497 36.2885 34.5816 36.9566C33.9135 37.6247 33.0073 38 32.0625 38H21.375V16.625H35.625ZM5.9375 38C4.99267 38 4.08653 37.6247 3.41843 36.9566C2.75033 36.2885 2.375 35.3823 2.375 34.4375V16.625H16.625V38H5.9375Z" fill="#7A8EFE"/>
</svg>
