<svg width="32" height="41" viewBox="0 0 32 41" fill="none" xmlns="http://www.w3.org/2000/svg">
<path d="M10.0008 15.62C10.0215 14.0729 10.6602 12.5949 11.7808 11.5009C12.9014 10.4068 14.4154 9.78327 16 9.76305C17.5846 9.78327 19.0986 10.4068 20.2192 11.5009C21.3398 12.5949 21.9785 14.0729 21.9992 15.62C21.9785 17.167 21.3398 18.6451 20.2192 19.7391C19.0986 20.8331 17.5846 21.4567 16 21.4769C14.4154 21.4567 12.9014 20.8331 11.7808 19.7391C10.6602 18.6451 10.0215 17.167 10.0008 15.62ZM16 33.1908L23.9989 35.1431V29.13C21.5866 30.5482 18.8157 31.2786 16 31.2385C13.1843 31.2786 10.4134 30.5482 8.00108 29.13V35.1431M16 3.90612C14.4241 3.87805 12.8591 4.16492 11.401 4.74911C9.94285 5.33329 8.62253 6.20245 7.52115 7.30314C6.38153 8.37958 5.48097 9.67344 4.87548 11.1042C4.27 12.535 3.97255 14.0721 4.00162 15.62C3.98079 17.158 4.28225 18.684 4.88749 20.1041C5.49272 21.5242 6.38896 22.8086 7.52115 23.8782C8.61739 24.9895 9.93541 25.8695 11.3938 26.4639C12.8521 27.0583 14.4198 27.3543 16 27.3338C17.5802 27.3543 19.1479 27.0583 20.6062 26.4639C22.0646 25.8695 23.3826 24.9895 24.4789 23.8782C25.611 22.8086 26.5073 21.5242 27.1125 20.1041C27.7178 18.684 28.0192 17.158 27.9984 15.62C28.0275 14.0721 27.73 12.535 27.1245 11.1042C26.519 9.67344 25.6185 8.37958 24.4789 7.30314C23.3775 6.20245 22.0571 5.33329 20.599 4.74911C19.1409 4.16492 17.5758 3.87805 16 3.90612ZM31.9978 15.62C31.9553 17.494 31.5692 19.3454 30.858 21.0864C30.2172 22.858 29.2479 24.4993 27.9984 25.9282V41L16 37.0954L4.00162 41V25.9282C1.41335 23.0904 -0.0108309 19.4197 0.00216573 15.62C-0.0330792 13.5712 0.362191 11.5371 1.16357 9.64327C1.96496 7.74944 3.15544 6.03608 4.66153 4.60895C6.12874 3.12539 7.89182 1.95114 9.84196 1.15869C11.7921 0.366245 13.8879 -0.0275886 16 0.0015017C18.1121 -0.0275886 20.2079 0.366245 22.158 1.15869C24.1082 1.95114 25.8713 3.12539 27.3385 4.60895C28.8446 6.03608 30.035 7.74944 30.8364 9.64327C31.6378 11.5371 32.0331 13.5712 31.9978 15.62Z" fill="#7A8EFE"/>
</svg>
