<svg width="15" height="14" viewBox="0 0 15 14" fill="none" xmlns="http://www.w3.org/2000/svg">
<g clip-path="url(#clip0_2421_33690)">
<path d="M12.5002 12.1346H11.9998V12.6008H12.5002V12.1346Z" fill="#F2A317"/>
<path d="M13 10.7341H12.5002V11.2009H13V10.7341Z" fill="#F2A317"/>
<path d="M3.00022 6.06766H2.49976V6.53316H3.00022V6.06766Z" fill="#FAF1CE"/>
<path d="M14.5009 4.66644H14.0005H13.5H13.0002V5.13329V5.59946V6.06765V6.53315V7V7.46751V7.93302V8.39987V8.86738V9.33289V9.79973H12.5004V10.2666V10.7341H13.0002V11.2003H12.5004V10.7341H11.9999V11.2003H11.5008V11.6664H11.0003V12.1346V12.6008H10.5005H10.0007V13.067H9.50027V13.5345H9.00047H8.5V14H9.00047H9.50027H10.0007H10.5005V13.5345H11.0003H11.5008V13.067H11.9999V12.6008V12.1346H12.5004V12.6008H13.0002V12.1346V11.6664H13.5V11.2003H14.0005V10.7341V10.2666H14.5009V9.79973V9.33289H15.0001V8.86738V8.39987V7.93302V7.46751V7V6.53315V6.06765V5.59946V5.13329V4.66644H14.5009Z" fill="#F2A317"/>
<path d="M9.50027 13.5225V13.5345H8.5V14H10.5005V13.5345H11.5008V13.5225H9.50027Z" fill="#1D1D1B"/>
<path d="M12.5002 3.26724H11.9998V3.73342H12.5002V3.26724Z" fill="white"/>
<path d="M11.9998 4.66645V3.26726H11.5V2.80108H11.0002V2.33357H10.4998V1.86739H9.99996V1.40055H9.50016V0.933032H8.49989V0.466187H4.49949V0.933032H3.49989V1.40055H2.99942V1.86739H2.49895V2.33357H1.99915V2.80108H1.49935V3.7341H0.998886V4.66712H0.499756V9.33357H0.999555V10.2666H1.50002V11.2009H1.99982V11.6671H2.49962V12.1353H3.00009V12.6015H3.50056V13.0677H4.50016V13.5352H8.50056V13.0677H9.50083V12.6015H10.0006V12.1353H10.5004V11.6671H11.0009V11.2009H11.5007V10.7341H12.0005V9.80041H12.501V4.66645H12.0005H11.9998ZM2.49962 5.13263V4.19961H3.00009V3.73343H3.50056V3.26726H4.00036V2.80108H4.50016V2.33357H8.50056V2.80108H9.00036V3.26726H9.50016V3.73343H9.99996V4.19961H10.4998V5.13263H11.0002V8.86672H10.4998V9.79974H9.99996V10.2659H9.50016V10.7334H9.00036V11.2003H8.50056V11.6665H4.50016V11.2003H4.00036V10.7334H3.50056V10.2659H3.00009V9.79974H2.49962V8.86672H1.99982V5.13263H2.49962Z" fill="#FDCD00"/>
<path d="M3.4998 4.66646H3V5.1333V5.59948V6.06766V6.53317V7.00002V7.46753V7.93304V8.39988H3.4998V8.8674V9.3329H4.00027V9.79975H4.50007V10.2666H4.99987H5.49967V10.7341H6.00013H6.49993H6.99973H7.5002H8.00067V10.2666H8.4998H9.00027V9.79975H9.50007V9.3329H10.0005V8.8674V8.39988H10.5003V7.93304V7.46753V7.00002V6.53317V6.06766V5.59948H10.0005V5.1333V4.66646V4.20028H9.50007V3.73411H9.00027V3.26726H8.4998H8.00067V2.80109H7.5002H6.99973H6.49993H6.00013H5.49967H4.99987V3.26726H4.50007H4.00027V3.73411H3.4998V4.20028V4.66646Z" fill="#FDCD00"/>
<path d="M14.0006 3.26725V2.80107V2.33356H13.5001V2.80107H13.0003H12.5005V3.26725V3.73409V4.20027H13.0003V3.73409H13.5001H14.0006V4.20027V4.66644H14.501V4.20027V3.73409V3.26725H14.0006Z" fill="#F2A317"/>
<path d="M13.0002 1.86738V1.40053H12.5004H11.9999V0.933021H11.5008V0.466176H11.0003H10.5005V0H10.0007H9.50027H9.00047H8.5V0.466176H9.00047H9.50027V0.933021H10.0007V1.40053H10.5005V1.86738H11.0003V2.33356H11.5008H11.9999H12.5004H13.0002H13.5V1.86738H13.0002Z" fill="#F2A317"/>
<path d="M14.0003 3.26725V2.80107V2.33356H13.4998V2.80107H13H12.5002V3.26725V3.73409V4.20027H13V3.73409H13.4998H14.0003V4.20027V4.66644H14.5008V4.20027V3.73409V3.26725H14.0003Z" fill="#F2A317"/>
<path d="M14.0005 3.26725V2.80107V2.33356H13.5V2.80107V3.26725H14.0005V3.73409V4.1996V4.66644H14.5009V4.1996V3.73409V3.26725H14.0005Z" fill="#1D1D1B"/>
<path d="M12.0005 0.933014H11.5007V1.40053H12.0005V0.933014Z" fill="#1D1D1B"/>
<path d="M12 1.86739H12.5005H13.0003V1.40054H12.5005H12V1.86739Z" fill="#1D1D1B"/>
<path d="M11.0003 0.933032H11.5008V0.466187H11.0003H10.5005V0.933032H11.0003Z" fill="#1D1D1B"/>
<path d="M13.5 1.86737H13.0002V2.33355H13.5V1.86737Z" fill="#1D1D1B"/>
<path d="M9.00047 0.466176H9.50027H10.0007H10.5005V0H10.0007H9.50027H9.00047H8.5V0.466176H9.00047Z" fill="#1D1D1B"/>
<path d="M12.5005 10.7341H12V11.2003H12.5005V10.7341Z" fill="#1D1D1B"/>
<path d="M14.501 4.66644H14.0005H14.501V5.13329V5.59946V6.06765V6.53315V7V7.46751V7.93302V8.39987V8.86738V9.33289H15.0001V8.86738V8.39987V7.93302V7.46751V7V6.53315V6.06765V5.59946V5.13329V4.66644H14.501Z" fill="#1D1D1B"/>
<path d="M12.5005 11.6664V12.1346V12.6008H13.0003V12.1346V11.6664H12.5005Z" fill="#1D1D1B"/>
<path d="M13.5 11.2003H13.0002V11.6664H13.5V11.2003Z" fill="#1D1D1B"/>
<path d="M14.0005 9.33289V9.79973V10.2672H13.5V10.7341V11.2003H14.0005V10.7341V10.2672H14.5009V9.79973V9.33289H14.0005Z" fill="#1D1D1B"/>
<path d="M10.5005 13.5345H10.0007V14H10.5005V13.5345Z" fill="#1D1D1B"/>
<path d="M11.9999 12.6008V12.1346H11.5007V12.6008V13.067H11.9999V12.6008Z" fill="#1D1D1B"/>
<path d="M11.5 13.067H11.0002V13.5345H11.5V13.067Z" fill="#1D1D1B"/>
<path d="M8.49998 13.067V13.5345H8.00085H7.50038H6.99991H6.50011H6.00031H5.49984H5.00004H4.50024V14H5.00004H5.49984H6.00031H6.50011H6.99991H7.50038H8.00085H8.49998V13.5345H9.00044H9.50024V13.067H9.00044H8.49998Z" fill="#1D1D1B"/>
<path d="M10 12.6008H9.50024V13.067H10V12.6008Z" fill="#1D1D1B"/>
<path d="M10.5005 12.1346H10.0007V12.6008H10.5005H11.0003V12.1346V11.6664H10.5005V12.1346Z" fill="#1D1D1B"/>
<path d="M11.5 11.2003H11.0002V11.6664H11.5V11.2003Z" fill="#1D1D1B"/>
<path d="M12.0005 10.7341H11.5007V11.2009H12.0005V10.7341Z" fill="#1D1D1B"/>
<path d="M11.9998 10.2673V10.7341H12.5002V10.2673V9.79974H11.9998V10.2673Z" fill="#1D1D1B"/>
<path d="M12.5002 5.1333V5.59948V6.06766V6.53317V7.00001V7.46753V7.93303V8.39988V8.86739V9.3329V9.79974H13V9.3329V8.86739V8.39988V7.93303V7.46753V7.00001V6.53317V6.06766V5.59948V5.1333H12.5002Z" fill="#1D1D1B"/>
<path d="M11.9998 4.20028V4.66645H12.5002V4.20028V3.7341H11.9998V4.20028Z" fill="#1D1D1B"/>
<path d="M12.0005 2.80106H11.5007V3.26723H12.0005V2.80106Z" fill="#1D1D1B"/>
<path d="M9.50029 10.2672H9.00049V10.7341H9.50029V10.2672Z" fill="#1D1D1B"/>
<path d="M10.0007 5.13327V5.59945H10.5005V6.06763V6.53314V6.99999V7.4675V7.93301V8.39985H10.0007V8.86737V9.33287H9.50024V9.79972V10.2672H10.0007V9.79972H10.5005V9.33287V8.86737H11.0003V8.39985V7.93301V7.4675V6.99999V6.53314V6.06763V5.59945V5.13327H10.5005V4.66643V4.19958H10.0007V4.66643V5.13327Z" fill="#1D1D1B"/>
<path d="M10 3.7341H9.50024V4.19961H10V3.7341Z" fill="#1D1D1B"/>
<path d="M9.50029 3.26724H9.00049V3.73342H9.50029V3.26724Z" fill="#1D1D1B"/>
<path d="M11.5 2.33356H11.0002V2.80107H11.5V2.33356Z" fill="#1D1D1B"/>
<path d="M11.001 1.86737H10.5005V2.33355H11.001V1.86737Z" fill="#1D1D1B"/>
<path d="M10.5005 1.40054H10.0007V1.86739H10.5005V1.40054Z" fill="#1D1D1B"/>
<path d="M10 0.933014H9.50024V1.40053H10V0.933014Z" fill="#1D1D1B"/>
<path d="M8.5 0.933032H9.00047H9.50027V0.466187H9.00047H8.5V0.933032Z" fill="#1D1D1B"/>
<path d="M4.00047 13.067H3.5V13.5345H4.00047H4.50027V13.067H4.00047Z" fill="#1D1D1B"/>
<path d="M3.50071 12.6008H3.00024V13.067H3.50071V12.6008Z" fill="#1D1D1B"/>
<path d="M2.49956 12.1346V11.6664H1.99976V12.1346V12.6008H2.49956H3.00002V12.1346H2.49956Z" fill="#1D1D1B"/>
<path d="M1.9998 11.2003H1.5V11.6664H1.9998V11.2003Z" fill="#1D1D1B"/>
<path d="M5.00009 11.6665H5.49989H6.00035H6.50015H6.99995H7.50042H8.00089H8.50002V11.2003H9.00049V10.7341H8.50002H8.00089V11.2003H7.50042H6.99995H6.50015H6.00035H5.49989H5.00009V10.7341H4.50029H4.00049V11.2003H4.50029V11.6665H5.00009Z" fill="#1D1D1B"/>
<path d="M3.9998 10.2672H3.5V10.7341H3.9998V10.2672Z" fill="#1D1D1B"/>
<path d="M1.49998 10.2672H0.999512V10.7341V11.2003H1.49998V10.7341V10.2672Z" fill="#1D1D1B"/>
<path d="M0.999555 9.33289H0.499756V9.79973V10.2672H0.999555V9.79973V9.33289Z" fill="#1D1D1B"/>
<path d="M0.499799 8.39988V7.93303V7.46753V7.00001V6.53317V6.06766V5.59948V5.1333H0V5.59948V6.06766V6.53317V7.00001V7.46753V7.93303V8.39988V8.86739H0.499799V8.39988Z" fill="#1D1D1B"/>
<path d="M3.49982 9.3329H3.00002V8.86739V8.39988H2.49956V7.93303V7.46752V7.00001V6.53316V6.06766V5.59947H3.00002V5.1333V4.66645H3.49982V4.19961V3.7341H3.00002V4.19961H2.49956V4.66645V5.1333H1.99976V5.59947V6.06766V6.53316V7.00001V7.46752V7.93303V8.39988V8.86739H2.49956V9.3329V9.79974H3.00002V10.2673H3.49982V9.79974V9.3329Z" fill="#1D1D1B"/>
<path d="M0.999555 4.19961V3.7341H0.499756V4.19961V4.66645H0.999555V4.19961Z" fill="#1D1D1B"/>
<path d="M3.9998 3.26724H3.5V3.73342H3.9998V3.26724Z" fill="#1D1D1B"/>
<path d="M1.49998 3.26723V2.80106H0.999512V3.26723V3.73408H1.49998V3.26723Z" fill="#1D1D1B"/>
<path d="M5.00009 3.26725V2.80107H5.49989H6.00035H6.50015H6.99995H7.50042H8.00089V3.26725H8.50002H9.00049V2.80107H8.50002V2.33356H8.00089H7.50042H6.99995H6.50015H6.00035H5.49989H5.00009H4.50029V2.80107H4.00049V3.26725H4.50029H5.00009Z" fill="#1D1D1B"/>
<path d="M1.9998 2.33356H1.5V2.80107H1.9998V2.33356Z" fill="#1D1D1B"/>
<path d="M2.49956 1.86737H1.99976V2.33355H2.49956V1.86737Z" fill="#1D1D1B"/>
<path d="M3.00022 1.40054H2.49976V1.86739H3.00022V1.40054Z" fill="#1D1D1B"/>
<path d="M3.50071 0.933014H3.00024V1.40053H3.50071V0.933014Z" fill="#1D1D1B"/>
<path d="M4.50027 0.933032V0.466187H4.00047H3.5V0.933032H4.00047H4.50027Z" fill="#1D1D1B"/>
<path d="M5.49984 0.466176H6.00031H6.50011H6.99991H7.50038H8.00085H8.49998V0H8.00085H7.50038H6.99991H6.50011H6.00031H5.49984H5.00004H4.50024V0.466176H5.00004H5.49984Z" fill="#1D1D1B"/>
<path d="M13.5001 3.7341H13.0003V4.20028H12.5005V4.66645V5.1333H13.0003V4.66645H13.5001H14.0006V4.20028V3.7341H13.5001Z" fill="white"/>
<path d="M13.0001 2.33356H12.5003H11.9999H11.5007V2.80107H11.9999V3.26725H12.5003V2.80107H13.0001H13.4999V2.33356H13.0001Z" fill="white"/>
<path d="M6.99993 10.7341H6.50013H6.00033H5.49987V10.2666H5.00007H4.50027V9.79973H4.00047V9.33289H3.5V9.79973V10.2666H4.00047V10.7341H4.50027H5.00007V11.2003H5.49987H6.00033H6.50013H6.99993H7.5004H8.00087V10.7341H7.5004H6.99993Z" fill="white"/>
<path d="M8.00098 10.2666V10.7341H8.50011H9.00058V10.2666H8.50011H8.00098Z" fill="white"/>
<path d="M9.50029 9.79974H9.00049V10.2659H9.50029V9.79974Z" fill="white"/>
<path d="M3.50004 8.39987H3.00024V8.86739V9.33289H3.50004V8.86739V8.39987Z" fill="white"/>
<path d="M3.00022 7.4675V6.99999V6.53314H2.49976V6.99999V7.4675V7.93301V8.39985H3.00022V7.93301V7.4675Z" fill="white"/>
<path d="M3.00022 5.59946H2.49976V6.06697H3.00022V5.59946Z" fill="white"/>
</g>
<defs>
<clipPath id="clip0_2421_33690">
<rect width="15" height="14" fill="white"/>
</clipPath>
</defs>
</svg>
