<svg width="53" height="20" viewBox="0 0 53 20" fill="none" xmlns="http://www.w3.org/2000/svg">
<rect width="53" height="20" rx="10" fill="#7A8EFE"/>
<path d="M19.044 14V5.516H20.376L24.804 12.584V5.516H25.848V14H24.54L20.088 6.956V14H19.044ZM27.9385 14V5.516H33.6385V6.464H28.9825V9.32H33.1705V10.28H28.9825V13.052H33.6385V14H27.9385ZM36.6908 14L34.3868 5.516H35.5628L37.4948 13.1L39.3428 5.516H40.9388L42.7868 13.1L44.7188 5.516H45.8468L43.5428 14H41.9588L40.1108 6.512L38.2628 14H36.6908Z" fill="white"/>
<path d="M11.2085 5.59944C11.4577 4.80019 12.5423 4.80019 12.7915 5.59944L13.4013 7.55599C13.5127 7.91343 13.8322 8.15543 14.1928 8.15543H16.1662C16.9724 8.15543 17.3076 9.23082 16.6554 9.72479L15.0588 10.934C14.7671 11.1549 14.6451 11.5465 14.7565 11.9039L15.3663 13.8605C15.6154 14.6597 14.7379 15.3244 14.0857 14.8304L12.4892 13.6212C12.1975 13.4003 11.8025 13.4003 11.5108 13.6212L9.91429 14.8304C9.26209 15.3244 8.38456 14.6597 8.63368 13.8605L9.24351 11.9039C9.35492 11.5465 9.23287 11.1549 8.9412 10.934L7.34464 9.72479C6.69244 9.23082 7.02762 8.15543 7.83379 8.15543H9.80724C10.1678 8.15543 10.4873 7.91343 10.5987 7.55599L11.2085 5.59944Z" fill="white"/>
</svg>
