<svg width="141" height="33" viewBox="0 0 141 33" fill="none" xmlns="http://www.w3.org/2000/svg">
<path fill-rule="evenodd" clip-rule="evenodd" d="M8.3011 4.95785H19.8737C20.0129 4.95639 20.1507 4.98574 20.2768 5.0437C20.4028 5.10166 20.5137 5.18672 20.6013 5.29253C20.6989 5.40612 20.7695 5.53948 20.808 5.68298C20.8464 5.82648 20.8517 5.97654 20.8235 6.12229L20.7188 6.85249C20.6738 7.17546 20.5085 7.47088 20.2545 7.68225C20.0321 7.89164 19.7379 8.01246 19.4292 8.02107H7.8566L8.3011 4.95785ZM8.72579 12.9789H20.2092C20.3486 12.9776 20.4864 13.0072 20.6124 13.0654C20.7385 13.1236 20.8494 13.2089 20.9368 13.315C21.0347 13.4284 21.1055 13.5618 21.1439 13.7053C21.1824 13.8489 21.1875 13.999 21.159 14.1447L21.0529 14.8749C21.0087 15.1979 20.8438 15.4934 20.59 15.7047C20.367 15.9128 20.0729 16.0325 19.7647 16.0408H6.69298L7.81131 8.32809L8.72579 12.9789ZM22.0325 21C23.159 20.9799 24.2428 20.5753 25.096 19.8565C25.9492 19.1376 26.5181 18.1498 26.704 17.0641L27.4443 11.9611C27.601 10.8824 27.3377 9.95397 26.6544 9.17583C26.5412 9.05966 26.4548 8.97254 26.3939 8.91307L27.1159 3.94139C27.2716 2.85901 27.0097 1.93151 26.3302 1.15891C25.6508 0.386302 24.7344 0 23.5811 0H3.05487L0 20.9945H22.0268L22.0325 21ZM36.4093 4.95785H49.4754C49.6146 4.95639 49.7524 4.98574 49.8785 5.0437C50.0045 5.10166 50.1154 5.18672 50.203 5.29253C50.3006 5.40612 50.3712 5.53948 50.4097 5.68298C50.4481 5.82648 50.4534 5.97654 50.4252 6.12229L50.0006 9.03892C49.9555 9.36189 49.7902 9.65731 49.5362 9.86869C49.3133 10.0766 49.0191 10.1959 48.7109 10.2034H35.6449L36.4093 4.95785ZM36.5113 15.1626H47.989C48.1284 15.1614 48.2662 15.191 48.3922 15.2492C48.5182 15.3074 48.6291 15.3927 48.7166 15.4986C48.8144 15.6121 48.8851 15.7455 48.9236 15.889C48.962 16.0326 48.9672 16.1827 48.9389 16.3284L48.2622 20.9931H54.236L55.0189 15.5996C55.1453 14.7265 54.7367 13.7552 53.793 12.6857C55.0425 11.6153 55.7309 10.6431 55.8583 9.76911L56.7077 3.93724C56.8653 2.85854 56.6039 1.93289 55.9234 1.16029C55.243 0.387685 54.3271 0.000921962 53.1758 0H31.1504L28.104 20.9931H34.0764L35.5982 10.5104L36.5113 15.1626ZM70.9444 6.18176L73.4925 13.1214H66.3834L70.9444 6.18176ZM67.0671 18.0751H75.3102L76.3803 20.9903H83.1597L76.042 1.61943C75.6485 0.539809 74.8704 0 73.7077 0H68.2321L54.43 20.9945H61.2093L66.171 13.4574L67.0671 18.0751ZM86.4014 0L83.3536 20.9931H89.3246L91.3518 7.04195L100.189 18.6919C101.538 20.2269 103.268 20.9945 105.38 20.9945H109.486L112.541 0H106.567L104.641 13.2666L95.6949 2.30398C94.3472 0.767995 92.6183 0 90.5081 0H86.4014ZM120.659 4.95647H133.725C133.864 4.95491 134.002 4.98421 134.128 5.04217C134.254 5.10014 134.365 5.18526 134.453 5.29114C134.55 5.40481 134.621 5.53814 134.66 5.68158C134.698 5.82503 134.704 5.97504 134.676 6.12091L133.402 14.8694C133.358 15.1926 133.193 15.4882 132.938 15.6992C132.715 15.9067 132.421 16.026 132.113 16.0338H119.052L120.659 4.95647ZM119.914 20.9986H134.379C135.506 20.9785 136.589 20.574 137.443 19.8551C138.296 19.1362 138.865 18.1484 139.051 17.0628L140.956 3.94139C141.113 2.86269 140.851 1.93704 140.172 1.16444C139.492 0.391834 138.577 0.00368785 137.425 0H115.4L112.354 20.9931H118.326L119.001 16.3422L119.914 20.9986Z" fill="#7A8EFE"/>
<path fill-rule="evenodd" clip-rule="evenodd" d="M66.2307 30.7281C66.1398 30.8176 66.0191 30.8687 65.8928 30.8712H60.9924C60.9353 30.8718 60.8788 30.8592 60.8271 30.8345C60.7754 30.8097 60.7298 30.7733 60.6938 30.7281C60.6536 30.6794 60.6246 30.6221 60.6088 30.5605C60.5931 30.4989 60.591 30.4344 60.6026 30.3719L61.1228 26.6236C61.1419 26.4856 61.2097 26.3594 61.3135 26.2688C61.4048 26.179 61.526 26.1278 61.6528 26.1257H69.4667L69.5284 25.6879C69.5932 25.3121 69.5091 24.9254 69.2946 24.6129C69.08 24.3003 68.7526 24.0875 68.3843 24.0212C68.2829 24.0038 68.18 23.9971 68.0773 24.0012H60.7218C60.2605 24.0108 59.8169 24.1847 59.468 24.4927C59.119 24.8007 58.8865 25.2235 58.8107 25.6879L58.0213 31.309C57.9565 31.6848 58.0407 32.0715 58.2552 32.384C58.4698 32.6966 58.7972 32.9094 59.1655 32.9757C59.2669 32.9931 59.3698 32.9998 59.4725 32.9957H66.8238C67.2862 32.9875 67.7313 32.8142 68.0816 32.5061C68.432 32.198 68.6656 31.7745 68.7418 31.309L69.2803 27.4362H62.194L62.5964 29.5607H66.5363L66.4242 30.3733C66.4043 30.5117 66.3355 30.638 66.2307 30.7281ZM80.5588 26.6493L81.6034 29.6222H78.687L80.5588 26.6493ZM78.9674 31.7467H82.3493L82.7882 32.9957H85.5699L82.6508 24.6979C82.5926 24.4883 82.4659 24.3053 82.2917 24.1793C82.1174 24.0534 81.9062 23.992 81.6931 24.0055H79.4497L73.7894 33H76.5698L78.6057 29.771L78.9674 31.7467ZM95.8137 32.9957H98.7778L101.592 28.5235L100.971 32.9957H103.422L104.671 24.0012H102.374C101.897 24.0012 101.578 24.1314 101.419 24.3946L97.6645 30.3476L95.5754 24.3946C95.48 24.1314 95.194 24.0012 94.7173 24.0012H92.4192L91.17 32.9957H93.6208L94.242 28.5235L95.8137 32.9957ZM113.353 26.625C113.37 26.4863 113.437 26.3592 113.542 26.2688C113.634 26.18 113.755 26.1291 113.881 26.1257H121.078L121.374 24.0012H112.954C112.492 24.0097 112.047 24.183 111.697 24.4911C111.347 24.7991 111.113 25.2225 111.036 25.6879L110.254 31.309C110.189 31.6848 110.273 32.0715 110.488 32.384C110.702 32.6966 111.03 32.9094 111.398 32.9757C111.499 32.9945 111.602 33.0012 111.705 32.9957H120.128L120.424 30.8798H113.225C113.168 30.8804 113.111 30.8678 113.06 30.843C113.008 30.8183 112.963 30.7819 112.926 30.7367C112.886 30.6879 112.857 30.6307 112.842 30.5691C112.826 30.5074 112.824 30.443 112.835 30.3805L113.225 27.575L113.598 29.5679H119.729L119.333 27.4462H113.245L113.353 26.625ZM134.525 29.5607C134.582 29.5601 134.638 29.5727 134.69 29.5974C134.742 29.6222 134.787 29.6586 134.823 29.7038C134.863 29.7525 134.892 29.8098 134.908 29.8714C134.924 29.933 134.926 29.9974 134.914 30.06L134.871 30.3719C134.853 30.5107 134.785 30.6377 134.68 30.7281C134.589 30.8171 134.468 30.8682 134.342 30.8712H126.533L126.472 31.309C126.436 31.522 126.447 31.7407 126.505 31.9487C126.563 32.1568 126.666 32.3489 126.806 32.5109C126.947 32.6729 127.121 32.8005 127.316 32.8844C127.512 32.9684 127.723 33.0064 127.935 32.9957H135.286C135.747 32.9856 136.191 32.8116 136.54 32.5037C136.889 32.1958 137.122 31.7733 137.198 31.309L137.501 29.1215C137.537 28.9095 137.526 28.6921 137.469 28.485C137.412 28.2779 137.31 28.0865 137.171 27.9248C137.032 27.7631 136.859 27.6351 136.666 27.5503C136.472 27.4656 136.262 27.4261 136.051 27.4348H129.926C129.868 27.4358 129.812 27.4234 129.76 27.3986C129.708 27.3738 129.663 27.3372 129.627 27.2917C129.587 27.2431 129.558 27.1861 129.542 27.1247C129.527 27.0634 129.524 26.9992 129.536 26.9369L129.579 26.625C129.597 26.4863 129.664 26.3592 129.769 26.2688C129.861 26.18 129.981 26.1291 130.108 26.1257H137.918L137.979 25.6879C138.015 25.476 138.004 25.2585 137.947 25.0514C137.89 24.8444 137.788 24.653 137.649 24.4912C137.51 24.3295 137.338 24.2016 137.144 24.1168C136.95 24.032 136.74 23.9925 136.53 24.0012H129.178C128.716 24.0094 128.27 24.1825 127.92 24.4906C127.569 24.7987 127.335 25.2223 127.259 25.6879L126.953 27.8754C126.917 28.0874 126.929 28.3049 126.986 28.512C127.043 28.719 127.145 28.9104 127.284 29.0721C127.423 29.2338 127.596 29.3617 127.79 29.4465C127.984 29.5313 128.194 29.5708 128.404 29.5621H134.53L134.525 29.5607Z" fill="white"/>
</svg>
