<svg width="138" height="51" viewBox="0 0 138 51" fill="none" xmlns="http://www.w3.org/2000/svg">
<path fill-rule="evenodd" clip-rule="evenodd" d="M6.40013 0L0 23.8975H24.52C25.8056 23.8975 27.0025 23.4604 28.1107 22.5864C29.23 21.7013 29.9559 20.6447 30.2884 19.4167L31.851 13.6083C31.9619 13.1989 32.0173 12.8062 32.0173 12.43C32.0173 11.6887 31.8012 11.0249 31.369 10.4385L31.1196 10.1398L32.6324 4.48077C32.7432 4.06036 32.7986 3.66206 32.7986 3.2859C32.7986 2.5557 32.588 1.89741 32.1669 1.31104C31.513 0.437015 30.5433 0 29.2577 0H6.40013ZM23.4893 9.1275H10.6059L11.5369 5.64246H24.4202C24.7416 5.64246 24.9965 5.76969 25.1849 6.02415C25.3068 6.19011 25.3678 6.38372 25.3678 6.60499C25.3678 6.71563 25.3512 6.83733 25.3179 6.97009L25.1018 7.79986C24.991 8.17603 24.7749 8.49134 24.4535 8.7458C24.1321 9.00027 23.8107 9.1275 23.4893 9.1275ZM8.16225 18.255L10.5062 9.476L10.8553 14.77H23.6389C23.9603 14.77 24.2152 14.8972 24.4036 15.1517C24.5255 15.3176 24.5865 15.5112 24.5865 15.7325C24.5865 15.8431 24.5699 15.9648 24.5366 16.0976L24.3039 16.9274C24.2041 17.3035 23.9936 17.6188 23.6722 17.8733C23.3508 18.1278 23.0294 18.255 22.708 18.255H8.16225Z" fill="white"/>
<path d="M54.6096 6.28968C53.9668 5.41565 53.0026 4.97864 51.7171 4.97864H35.5089L30.4387 23.8975H37.0882L40.6457 10.6211H46.8796C47.201 10.6211 47.4558 10.7483 47.6442 11.0028C47.744 11.1355 47.7939 11.3181 47.7939 11.5504C47.7939 11.7606 47.7551 12.004 47.6775 12.2806H54.327L55.0917 9.45941C55.2025 9.05005 55.2579 8.66283 55.2579 8.29773C55.2579 7.5454 55.0418 6.87605 54.6096 6.28968Z" fill="white"/>
<path fill-rule="evenodd" clip-rule="evenodd" d="M70.8849 11.567V11.6168H58.0347C56.7492 11.6168 55.5467 12.0594 54.4274 12.9445C53.3081 13.8185 52.5877 14.8695 52.2663 16.0976L51.3686 19.4167C51.2578 19.8371 51.2024 20.2354 51.2024 20.6116C51.2024 21.3418 51.4185 21.9945 51.8507 22.5698C52.4935 23.4549 53.4577 23.8975 54.7432 23.8975H69.7046C70.9902 23.8975 72.1871 23.4604 73.2953 22.5864C74.4146 21.7013 75.1405 20.6447 75.473 19.4167L78.1494 9.45941C78.2603 9.05005 78.3157 8.66283 78.3157 8.29773C78.3157 7.5454 78.0996 6.87605 77.6674 6.28968C77.0246 5.41565 76.0604 4.97864 74.7748 4.97864H56.9043L55.3916 10.6211H69.9373C70.2587 10.6211 70.5136 10.7483 70.702 11.0028C70.8239 11.1687 70.8849 11.3568 70.8849 11.567ZM67.6432 17.2593L70.8184 11.9653L69.4885 16.9274C69.3887 17.3035 69.1782 17.6188 68.8568 17.8733C68.5354 18.1278 68.214 18.255 67.8926 18.255H58.334L58.5999 17.2593H67.6432Z" fill="white"/>
<path d="M103.086 6.28968C102.443 5.41565 101.479 4.97864 100.193 4.97864H80.6603L75.59 23.8975H82.2395L85.797 10.6211H95.3557C95.677 10.6211 95.9319 10.7483 96.1203 11.0028C96.2423 11.1687 96.3032 11.3624 96.3032 11.5836C96.3032 11.6943 96.2866 11.816 96.2533 11.9487L93.045 23.8975H99.6944L103.568 9.45941C103.679 9.05005 103.734 8.66283 103.734 8.29773C103.734 7.5454 103.518 6.87605 103.086 6.28968Z" fill="white"/>
<path fill-rule="evenodd" clip-rule="evenodd" d="M124.797 0L122.054 10.2726L121.705 4.97864H110.584C109.298 4.97864 108.096 5.42118 106.976 6.30627C105.857 7.1803 105.137 8.23135 104.815 9.45941L102.139 19.4167C102.028 19.8371 101.973 20.2354 101.973 20.6116C101.973 21.3418 102.189 21.9945 102.621 22.5698C103.264 23.4549 104.228 23.8975 105.513 23.8975H120.475C121.76 23.8975 122.957 23.4604 124.065 22.5864C125.185 21.7013 125.911 20.6447 126.243 19.4167L131.446 0H124.797ZM112.396 10.6211H121.954L120.259 16.9274C120.159 17.3035 119.948 17.6188 119.627 17.8733C119.306 18.1278 118.984 18.255 118.663 18.255H110.351C110.03 18.255 109.775 18.1278 109.586 17.8733C109.464 17.7073 109.403 17.5137 109.403 17.2925C109.403 17.1818 109.42 17.0601 109.453 16.9274L110.8 11.9487C110.9 11.5726 111.11 11.2572 111.431 11.0028C111.753 10.7483 112.074 10.6211 112.396 10.6211Z" fill="white"/>
<path d="M92.0315 27H127.241C132.449 27 136.269 31.8983 134.999 36.9499L131.468 51H96.2593C91.0506 51 87.231 46.1017 88.5005 41.0501L92.0315 27Z" fill="#D1FFC0"/>
<path d="M100.032 44.119C99.1367 44.119 98.349 43.9547 97.669 43.626C97.0003 43.286 96.4847 42.8157 96.122 42.215C95.7593 41.6143 95.578 40.9173 95.578 40.124C95.578 39.1153 95.8103 38.2087 96.275 37.404C96.7397 36.5993 97.38 35.9703 98.196 35.517C99.0233 35.0523 99.964 34.82 101.018 34.82C101.936 34.82 102.724 35.0013 103.381 35.364C104.05 35.7153 104.565 36.2423 104.928 36.945L103.109 37.88C102.69 37.0413 101.936 36.622 100.848 36.622C100.247 36.622 99.709 36.7693 99.233 37.064C98.7683 37.3473 98.4 37.7497 98.128 38.271C97.856 38.781 97.72 39.3647 97.72 40.022C97.72 40.736 97.9297 41.297 98.349 41.705C98.7683 42.1017 99.3633 42.3 100.134 42.3C100.655 42.3 101.126 42.198 101.545 41.994C101.964 41.7787 102.321 41.4613 102.616 41.042L104.18 42.096C103.761 42.7307 103.183 43.2293 102.446 43.592C101.709 43.9433 100.905 44.119 100.032 44.119ZM107.173 34.922H109.298L107.496 44H105.371L107.173 34.922ZM108.72 33.426C108.346 33.426 108.04 33.3127 107.802 33.086C107.564 32.848 107.445 32.5647 107.445 32.236C107.445 31.8507 107.575 31.5277 107.836 31.267C108.108 31.0063 108.459 30.876 108.89 30.876C109.264 30.876 109.57 30.9893 109.808 31.216C110.046 31.4313 110.165 31.6977 110.165 32.015C110.165 32.4343 110.029 32.7743 109.757 33.035C109.496 33.2957 109.151 33.426 108.72 33.426ZM113.277 40.957C113.254 41.1383 113.243 41.2687 113.243 41.348C113.243 42.028 113.6 42.368 114.314 42.368C114.756 42.368 115.153 42.249 115.504 42.011L115.878 43.575C115.3 43.9377 114.569 44.119 113.685 44.119C112.903 44.119 112.274 43.9037 111.798 43.473C111.322 43.0423 111.084 42.4473 111.084 41.688C111.084 41.4387 111.107 41.2007 111.152 40.974L112.019 36.69H110.54L110.88 34.99H112.359L112.767 32.916H114.892L114.467 34.99H116.915L116.575 36.69H114.127L113.277 40.957ZM127.643 34.922L121.387 44.799C120.764 45.785 120.169 46.465 119.602 46.839C119.047 47.2243 118.367 47.417 117.562 47.417C117.109 47.417 116.661 47.3433 116.219 47.196C115.777 47.0487 115.431 46.856 115.182 46.618L116.236 45.071C116.655 45.4563 117.154 45.649 117.732 45.649C118.095 45.649 118.412 45.5527 118.684 45.36C118.956 45.1787 119.234 44.8613 119.517 44.408L119.806 43.966L117.664 34.922H119.789L121.319 41.654L125.518 34.922H127.643Z" fill="#7A8EFE"/>
<path d="M3.609 38.054C2.985 38.054 2.454 37.946 2.016 37.73C1.578 37.508 1.242 37.202 1.008 36.812C0.78 36.416 0.666 35.957 0.666 35.435C0.666 34.919 0.753 34.433 0.927 33.977C1.107 33.521 1.362 33.119 1.692 32.771C2.028 32.417 2.43 32.141 2.898 31.943C3.372 31.745 3.906 31.646 4.5 31.646C5.004 31.646 5.451 31.724 5.841 31.88C6.231 32.036 6.531 32.264 6.741 32.564L6.273 32.978C6.075 32.732 5.826 32.549 5.526 32.429C5.226 32.303 4.866 32.24 4.446 32.24C3.972 32.24 3.54 32.324 3.15 32.492C2.766 32.654 2.439 32.882 2.169 33.176C1.899 33.47 1.689 33.809 1.539 34.193C1.395 34.571 1.323 34.976 1.323 35.408C1.323 35.81 1.41 36.167 1.584 36.479C1.764 36.785 2.028 37.025 2.376 37.199C2.724 37.373 3.15 37.46 3.654 37.46C4.068 37.46 4.443 37.397 4.779 37.271C5.115 37.145 5.409 36.959 5.661 36.713L6.048 37.154C5.772 37.448 5.421 37.673 4.995 37.829C4.569 37.979 4.107 38.054 3.609 38.054ZM8.99944 38.045C8.56144 38.045 8.18044 37.964 7.85644 37.802C7.53844 37.634 7.28944 37.4 7.10944 37.1C6.93544 36.8 6.84844 36.446 6.84844 36.038C6.84844 35.498 6.96544 35.018 7.19944 34.598C7.43344 34.172 7.75744 33.839 8.17144 33.599C8.58544 33.353 9.05644 33.23 9.58444 33.23C10.0224 33.23 10.4004 33.311 10.7184 33.473C11.0424 33.635 11.2914 33.866 11.4654 34.166C11.6454 34.466 11.7354 34.82 11.7354 35.228C11.7354 35.768 11.6184 36.251 11.3844 36.677C11.1504 37.097 10.8264 37.43 10.4124 37.676C10.0044 37.922 9.53344 38.045 8.99944 38.045ZM9.04444 37.478C9.44044 37.478 9.79144 37.385 10.0974 37.199C10.4094 37.007 10.6524 36.743 10.8264 36.407C11.0064 36.071 11.0964 35.69 11.0964 35.264C11.0964 34.796 10.9584 34.433 10.6824 34.175C10.4124 33.917 10.0314 33.788 9.53944 33.788C9.14944 33.788 8.79844 33.884 8.48644 34.076C8.17444 34.268 7.92844 34.532 7.74844 34.868C7.57444 35.198 7.48744 35.579 7.48744 36.011C7.48744 36.473 7.62244 36.833 7.89244 37.091C8.16844 37.349 8.55244 37.478 9.04444 37.478ZM14.9536 38.054C14.2816 38.054 13.7566 37.856 13.3786 37.46C13.0006 37.064 12.8116 36.491 12.8116 35.741C12.8116 35.243 12.8866 34.769 13.0366 34.319C13.1866 33.869 13.3996 33.458 13.6756 33.086C13.9516 32.714 14.2816 32.402 14.6656 32.15C15.0496 31.898 15.4726 31.724 15.9346 31.628L18.1306 31.169L18.1486 31.718L16.0786 32.15C15.5986 32.252 15.1726 32.444 14.8006 32.726C14.4346 33.008 14.1346 33.362 13.9006 33.788C13.6726 34.214 13.5226 34.694 13.4506 35.228L13.2616 35.111C13.5376 34.595 13.8946 34.202 14.3326 33.932C14.7706 33.662 15.2596 33.527 15.7996 33.527C16.3996 33.527 16.8676 33.692 17.2036 34.022C17.5456 34.346 17.7166 34.802 17.7166 35.39C17.7166 35.9 17.5966 36.356 17.3566 36.758C17.1226 37.16 16.7956 37.478 16.3756 37.712C15.9616 37.94 15.4876 38.054 14.9536 38.054ZM14.9986 37.55C15.3826 37.55 15.7276 37.46 16.0336 37.28C16.3456 37.094 16.5886 36.848 16.7626 36.542C16.9426 36.23 17.0326 35.879 17.0326 35.489C17.0326 35.045 16.9066 34.703 16.6546 34.463C16.4026 34.217 16.0516 34.094 15.6016 34.094C15.3196 34.094 15.0496 34.145 14.7916 34.247C14.5336 34.349 14.3026 34.487 14.0986 34.661C13.8946 34.835 13.7326 35.036 13.6126 35.264C13.4986 35.492 13.4416 35.735 13.4416 35.993C13.4416 36.461 13.5796 36.839 13.8556 37.127C14.1376 37.409 14.5186 37.55 14.9986 37.55ZM18.599 38L19.553 33.275H20.192L19.427 37.091L23.315 33.275H23.927L22.982 38H22.325L23.108 34.175L19.22 38H18.599ZM27.4413 38.045C27.0333 38.045 26.6823 37.973 26.3883 37.829C26.1003 37.679 25.8783 37.466 25.7223 37.19C25.5723 36.908 25.4943 36.569 25.4883 36.173C25.4883 35.591 25.5933 35.081 25.8033 34.643C26.0133 34.199 26.3103 33.854 26.6943 33.608C27.0783 33.356 27.5313 33.23 28.0533 33.23C28.4613 33.23 28.8183 33.311 29.1243 33.473C29.4363 33.629 29.6793 33.857 29.8533 34.157C30.0333 34.457 30.1233 34.814 30.1233 35.228C30.1233 35.636 30.0573 36.011 29.9253 36.353C29.7933 36.695 29.6043 36.992 29.3583 37.244C29.1183 37.496 28.8363 37.694 28.5123 37.838C28.1883 37.976 27.8313 38.045 27.4413 38.045ZM24.4623 39.746L25.7493 33.275H26.3613L26.0913 34.634L25.8303 35.579L25.7313 36.569L25.1013 39.746H24.4623ZM27.4323 37.478C27.8283 37.478 28.1793 37.385 28.4853 37.199C28.7913 37.007 29.0313 36.743 29.2053 36.407C29.3853 36.071 29.4753 35.69 29.4753 35.264C29.4753 34.796 29.3403 34.433 29.0703 34.175C28.8003 33.917 28.4163 33.788 27.9183 33.788C27.5283 33.788 27.1773 33.884 26.8653 34.076C26.5593 34.268 26.3163 34.532 26.1363 34.868C25.9623 35.198 25.8753 35.579 25.8753 36.011C25.8753 36.473 26.0103 36.833 26.2803 37.091C26.5503 37.349 26.9343 37.478 27.4323 37.478ZM33.0971 38.045C32.6951 38.045 32.3381 37.964 32.0261 37.802C31.7141 37.64 31.4711 37.409 31.2971 37.109C31.1231 36.809 31.0361 36.452 31.0361 36.038C31.0361 35.636 31.1021 35.264 31.2341 34.922C31.3661 34.58 31.5521 34.283 31.7921 34.031C32.0321 33.773 32.3141 33.575 32.6381 33.437C32.9681 33.299 33.3251 33.23 33.7091 33.23C34.1231 33.23 34.4741 33.305 34.7621 33.455C35.0501 33.599 35.2721 33.812 35.4281 34.094C35.5841 34.37 35.6621 34.706 35.6621 35.102C35.6621 35.672 35.5571 36.179 35.3471 36.623C35.1371 37.067 34.8401 37.415 34.4561 37.667C34.0721 37.919 33.6191 38.045 33.0971 38.045ZM33.2321 37.478C33.6281 37.478 33.9791 37.385 34.2851 37.199C34.5971 37.007 34.8401 36.743 35.0141 36.407C35.1941 36.071 35.2841 35.69 35.2841 35.264C35.2841 34.796 35.1461 34.433 34.8701 34.175C34.6001 33.917 34.2191 33.788 33.7271 33.788C33.3371 33.788 32.9861 33.884 32.6741 34.076C32.3621 34.268 32.1161 34.532 31.9361 34.868C31.7621 35.198 31.6751 35.579 31.6751 36.011C31.6751 36.473 31.8101 36.833 32.0801 37.091C32.3561 37.349 32.7401 37.478 33.2321 37.478ZM34.7891 38L35.0591 36.641L35.3291 35.687L35.4191 34.697L35.7071 33.275H36.3461L35.4011 38H34.7891ZM39.4462 38.045C38.9962 38.045 38.6032 37.964 38.2672 37.802C37.9372 37.634 37.6822 37.4 37.5022 37.1C37.3282 36.8 37.2412 36.443 37.2412 36.029C37.2412 35.489 37.3552 35.009 37.5832 34.589C37.8112 34.169 38.1232 33.839 38.5192 33.599C38.9152 33.353 39.3622 33.23 39.8602 33.23C40.2802 33.23 40.6432 33.311 40.9492 33.473C41.2552 33.629 41.4922 33.857 41.6602 34.157C41.8342 34.457 41.9212 34.817 41.9212 35.237C41.9212 35.333 41.9152 35.432 41.9032 35.534C41.8912 35.63 41.8762 35.723 41.8582 35.813H37.7092L37.7902 35.336H41.5612L41.3002 35.516C41.3602 35.138 41.3332 34.82 41.2192 34.562C41.1052 34.304 40.9282 34.109 40.6882 33.977C40.4542 33.839 40.1722 33.77 39.8422 33.77C39.4582 33.77 39.1162 33.866 38.8162 34.058C38.5162 34.244 38.2822 34.505 38.1142 34.841C37.9462 35.171 37.8622 35.558 37.8622 36.002C37.8622 36.476 37.9972 36.842 38.2672 37.1C38.5432 37.352 38.9542 37.478 39.5002 37.478C39.8182 37.478 40.1122 37.427 40.3822 37.325C40.6522 37.217 40.8742 37.07 41.0482 36.884L41.3362 37.343C41.1142 37.565 40.8352 37.739 40.4992 37.865C40.1692 37.985 39.8182 38.045 39.4462 38.045ZM42.8216 38L43.7666 33.275H44.4056L45.8186 36.902H45.5486L48.4556 33.275H49.0586L48.1136 38H47.5286L48.3296 34.004L48.4376 34.058L45.7286 37.424H45.4406L44.0816 34.022L44.2076 33.995L43.4066 38H42.8216ZM41.389 47L40.237 44.651L40.795 44.399L42.136 47H41.389ZM39.13 44.876L39.229 44.354H40.732L40.633 44.876H39.13ZM40.831 44.696L40.21 44.615L42.253 42.275H42.973L40.831 44.696ZM35.809 47H35.008L37.384 44.354L37.879 44.651L35.809 47ZM38.896 47H38.257L39.202 42.275H39.85L38.896 47ZM38.887 44.876H37.393L37.501 44.354H38.986L38.887 44.876ZM37.285 44.696L36.106 42.275H36.781L37.888 44.615L37.285 44.696ZM43.2084 47L44.1624 42.275H44.8014L44.0364 46.091L47.9244 42.275H48.5364L47.5914 47H46.9344L47.7174 43.175L43.8294 47H43.2084ZM50.3047 47L51.1687 42.662L51.2947 42.833H49.3507L49.4587 42.275H53.6887L53.5717 42.833H51.6097L51.8077 42.662L50.9437 47H50.3047ZM55.6708 47.045C55.2208 47.045 54.8278 46.964 54.4918 46.802C54.1618 46.634 53.9068 46.4 53.7268 46.1C53.5528 45.8 53.4658 45.443 53.4658 45.029C53.4658 44.489 53.5798 44.009 53.8078 43.589C54.0358 43.169 54.3478 42.839 54.7438 42.599C55.1398 42.353 55.5868 42.23 56.0848 42.23C56.5048 42.23 56.8678 42.311 57.1738 42.473C57.4798 42.629 57.7168 42.857 57.8848 43.157C58.0588 43.457 58.1458 43.817 58.1458 44.237C58.1458 44.333 58.1398 44.432 58.1278 44.534C58.1158 44.63 58.1008 44.723 58.0828 44.813H53.9338L54.0148 44.336H57.7858L57.5248 44.516C57.5848 44.138 57.5578 43.82 57.4438 43.562C57.3298 43.304 57.1528 43.109 56.9128 42.977C56.6788 42.839 56.3968 42.77 56.0668 42.77C55.6828 42.77 55.3408 42.866 55.0408 43.058C54.7408 43.244 54.5068 43.505 54.3388 43.841C54.1708 44.171 54.0868 44.558 54.0868 45.002C54.0868 45.476 54.2218 45.842 54.4918 46.1C54.7678 46.352 55.1788 46.478 55.7248 46.478C56.0428 46.478 56.3368 46.427 56.6068 46.325C56.8768 46.217 57.0988 46.07 57.2728 45.884L57.5608 46.343C57.3388 46.565 57.0598 46.739 56.7238 46.865C56.3938 46.985 56.0428 47.045 55.6708 47.045ZM58.0946 46.991L58.2476 46.442C58.2896 46.448 58.3286 46.457 58.3646 46.469C58.4006 46.475 58.4336 46.478 58.4636 46.478C58.6796 46.478 58.8686 46.382 59.0306 46.19C59.1986 45.992 59.3486 45.704 59.4806 45.326C59.6186 44.948 59.7566 44.486 59.8946 43.94L60.3086 42.275H63.7736L62.8196 47H62.1806L63.0536 42.626L63.1886 42.833H60.6146L60.8036 42.626L60.4616 44.003C60.3296 44.519 60.1976 44.969 60.0656 45.353C59.9396 45.731 59.8016 46.046 59.6516 46.298C59.5076 46.55 59.3456 46.739 59.1656 46.865C58.9916 46.991 58.7906 47.054 58.5626 47.054C58.4846 47.054 58.4096 47.048 58.3376 47.036C58.2656 47.024 58.1846 47.009 58.0946 46.991ZM66.8681 47.045C66.4181 47.045 66.0251 46.964 65.6891 46.802C65.3591 46.634 65.1041 46.4 64.9241 46.1C64.7501 45.8 64.6631 45.443 64.6631 45.029C64.6631 44.489 64.7771 44.009 65.0051 43.589C65.2331 43.169 65.5451 42.839 65.9411 42.599C66.3371 42.353 66.7841 42.23 67.2821 42.23C67.7021 42.23 68.0651 42.311 68.3711 42.473C68.6771 42.629 68.9141 42.857 69.0821 43.157C69.2561 43.457 69.3431 43.817 69.3431 44.237C69.3431 44.333 69.3371 44.432 69.3251 44.534C69.3131 44.63 69.2981 44.723 69.2801 44.813H65.1311L65.2121 44.336H68.9831L68.7221 44.516C68.7821 44.138 68.7551 43.82 68.6411 43.562C68.5271 43.304 68.3501 43.109 68.1101 42.977C67.8761 42.839 67.5941 42.77 67.2641 42.77C66.8801 42.77 66.5381 42.866 66.2381 43.058C65.9381 43.244 65.7041 43.505 65.5361 43.841C65.3681 44.171 65.2841 44.558 65.2841 45.002C65.2841 45.476 65.4191 45.842 65.6891 46.1C65.9651 46.352 66.3761 46.478 66.9221 46.478C67.2401 46.478 67.5341 46.427 67.8041 46.325C68.0741 46.217 68.2961 46.07 68.4701 45.884L68.7581 46.343C68.5361 46.565 68.2571 46.739 67.9211 46.865C67.5911 46.985 67.2401 47.045 66.8681 47.045ZM70.2435 47L71.1975 42.275H71.8365L71.0715 46.091L74.9595 42.275H75.5715L74.6265 47H73.9695L74.7525 43.175L70.8645 47H70.2435ZM73.5375 41.582C73.1235 41.582 72.8115 41.48 72.6015 41.276C72.3915 41.066 72.3195 40.784 72.3855 40.43H72.8265C72.7845 40.664 72.8325 40.853 72.9705 40.997C73.1085 41.141 73.3095 41.213 73.5735 41.213C73.8315 41.213 74.0535 41.144 74.2395 41.006C74.4315 40.862 74.5545 40.67 74.6085 40.43H75.0585C74.9865 40.796 74.8155 41.081 74.5455 41.285C74.2815 41.483 73.9455 41.582 73.5375 41.582Z" fill="white"/>
</svg>
