<svg width="300" height="213" viewBox="0 0 300 213" fill="none" xmlns="http://www.w3.org/2000/svg">
<g clip-path="url(#clip0_2415_7958)">
<path d="M6.64707 199.969C6.65749 200.041 6.6679 200.113 6.67936 200.184L11.3527 200.164L83.8085 199.862L131.62 199.665L133.075 199.658L136.44 199.644L180.179 199.463L288.884 200.185C288.884 200.185 289.46 198.792 289.637 198.37C289.654 198.33 289.671 198.288 289.69 198.245C289.755 198.089 289.827 197.911 289.91 197.711C290.382 196.551 291.124 194.644 291.998 192.109C292.225 191.454 292.459 190.755 292.702 190.016C292.894 189.427 293.091 188.814 293.288 188.177C293.355 187.965 293.422 187.75 293.488 187.531C293.558 187.306 293.627 187.08 293.697 186.852C294.063 185.638 294.436 184.347 294.809 182.985C295.177 181.642 295.542 180.231 295.901 178.755C295.908 178.723 295.916 178.692 295.925 178.659C296.124 177.832 296.321 176.987 296.515 176.124C296.8 174.857 297.077 173.55 297.34 172.205C297.592 170.921 297.835 169.605 298.062 168.256C298.466 165.87 298.825 163.387 299.12 160.822C299.716 155.663 300.057 150.175 299.993 144.494C299.933 139.23 299.525 133.798 298.648 128.301C296.454 114.551 291.326 100.393 281.379 87.4396C244.797 39.8072 213.335 66.1986 197.372 64.8746C194.511 64.6379 191.998 63.1021 189.529 60.6692C185.003 56.2114 181.061 48.3894 174.514 40.721C154.198 16.9235 74.8212 4.55121 40.8591 41.6596C11.4798 73.76 46.3042 97.8462 47.2364 99.8471C48.0196 101.528 48.7018 103.134 49.2892 104.665C50.764 108.514 51.6379 111.908 52.0066 114.932C52.8919 122.199 50.8588 127.343 47.2166 131.576C46.1678 132.794 44.9877 133.936 43.7046 135.034C39.4489 138.668 34.0704 141.788 28.7087 145.447C25.7487 147.468 22.7928 149.652 20.0338 152.177C17.4716 154.524 15.0782 157.163 13.0087 160.237C11.6558 162.244 10.4414 164.439 9.40712 166.858C9.34879 166.994 9.29151 167.13 9.23527 167.267C7.90107 170.486 6.88246 174.098 6.27942 178.197C6.24817 178.404 6.21901 178.614 6.19089 178.825C5.38474 184.775 5.44099 191.736 6.6502 199.969H6.64707Z" fill="#91A1FF"/>
<path d="M147.398 213.001C226.31 213.001 290.281 207.393 290.281 200.474C290.281 193.556 226.31 187.947 147.398 187.947C68.4852 187.947 4.51392 193.556 4.51392 200.474C4.51392 207.393 68.4852 213.001 147.398 213.001Z" fill="#4D63DF"/>
<path d="M36.6096 131.196C36.9366 154.05 45.5511 177.433 58.7691 194.632C60.1408 196.416 62.2572 197.474 64.5121 197.484L154.605 197.871C156.336 197.878 158.017 197.274 159.333 196.152C180.723 177.908 182.488 151.958 166.33 136.034C156.235 126.092 143.419 128.097 131.214 126.517C131.204 126.517 131.192 126.511 131.18 126.511C126.93 125.958 122.76 124.971 118.801 122.889C106.236 116.278 99.1501 100.687 88.5786 87.5725C87.2611 85.9267 85.8842 84.3286 84.4385 82.7877C75.7439 73.5316 58.441 73.2304 49.3902 86.2423C40.2185 99.4276 36.3794 115.182 36.6096 131.195V131.196Z" fill="#7A8EFE"/>
<g opacity="0.5">
<path d="M36.6096 131.196C36.9273 153.369 45.0449 176.04 57.6005 193.079C59.6388 195.845 62.88 197.476 66.3233 197.491L151.141 197.881C151.141 197.881 90.3284 192.777 67.5836 181.499C51.5982 173.572 41.3121 146.553 36.6096 131.195V131.196Z" fill="#2455BE"/>
</g>
<path d="M58.9045 121.825C61.4239 161.164 106.993 175.849 135.455 164.066C160.201 153.817 152.102 130.429 131.216 126.517C131.204 126.517 131.193 126.511 131.18 126.511C126.93 125.958 122.76 124.97 118.801 122.889C106.235 116.278 99.1501 100.687 88.5786 87.5725C72.8286 79.4161 57.0558 93.0198 58.9045 121.825Z" fill="#2455BE"/>
<path d="M56.0445 132.116C54.6624 126.291 44.8127 130.969 41.6642 134.133C38.4761 137.337 36.3035 141.243 34.9349 145C31.3843 154.745 31.9728 164.106 33.5851 173.35L38.6511 172.067C39.2114 162.168 40.2675 155.37 48.6809 145.135C51.1837 142.089 56.908 135.752 56.0456 132.116H56.0445Z" fill="#C3C5FE"/>
<path d="M37.5825 164.761C37.2888 159.24 38.1064 153.611 39.9467 148.484C42.011 142.73 45.2866 137.66 49.6819 133.413L50.1152 133.859C45.7887 138.039 42.5651 143.03 40.5331 148.693C38.7209 153.744 37.9158 159.289 38.2053 164.729L37.5835 164.762L37.5825 164.761Z" fill="#7676D8"/>
<path d="M18.8079 141.664C16.779 138.621 14.1304 135.718 10.9464 133.826C7.80104 131.957 -0.589494 130.995 0.032297 136.928C0.420786 140.631 6.30124 144.578 8.9488 146.562C17.8476 153.225 20.4962 159.223 23.6468 168.297L27.6504 167.739C26.2444 158.525 24.0697 149.556 18.8079 141.665V141.664Z" fill="#C3C5FE"/>
<path d="M45.6199 113.89C45.12 112.519 44.2701 111.111 42.7776 110.544C40.1769 109.555 37.421 111.606 35.8348 113.677C30.0803 121.193 29.3773 132.355 29.7335 141.477C30.223 153.977 32.7654 165.271 32.7654 165.271L36.8138 163.681C37.6783 153.942 40.1081 142.043 43.2411 132.685C45.297 126.544 47.8436 119.998 45.6189 113.89H45.6199Z" fill="#7676D8"/>
<path d="M32.907 164.428C32.8279 156.791 33.3892 148.344 34.4881 140.646C35.7775 131.61 37.7637 123.957 40.23 118.517L40.7976 118.773C38.3552 124.161 36.3857 131.754 35.1046 140.733C34.01 148.402 33.4507 156.815 33.5298 164.422L32.907 164.428Z" fill="#C7C7F9"/>
<path d="M29.822 131.437C27.9681 123.635 25.1757 112.92 17.9288 108.605C13.3482 105.877 6.22727 107.077 4.27545 112.192C3.24017 114.907 3.86821 117.993 5.04722 120.614C8.1093 127.422 13.5409 132.172 17.8153 138.315C22.7875 145.459 25.7673 153.206 25.7673 162.908L30.4594 164.745C32.4071 155.391 32.0061 140.631 29.822 131.437Z" fill="#9EB0FE"/>
<path d="M23.9853 160.287C22.7105 155.424 20.2994 150.682 17.0134 146.575C13.7263 142.466 9.55084 138.977 4.93896 136.485L5.2358 135.939C9.92058 138.471 14.1617 142.015 17.4998 146.188C20.8399 150.362 23.2906 155.183 24.5873 160.13L23.9843 160.287H23.9853Z" fill="#7676D8"/>
<path d="M28.3649 164.044L27.7431 163.998C28.1483 158.525 27.8973 152.971 26.9974 147.494C26.2329 142.841 24.9998 138.22 23.3312 133.758C20.4597 126.082 16.8175 120.247 14.3668 117.347L14.8428 116.947C17.3279 119.887 21.0159 125.79 23.9145 133.541C25.5976 138.041 26.8412 142.701 27.6119 147.393C28.5201 152.92 28.7722 158.522 28.3639 164.044H28.3649Z" fill="#7676D8"/>
<path d="M43.8348 158.54V164.912C43.8348 177.33 42.3589 185.379 40.8581 190.358C39.3041 195.51 37.7231 197.369 37.7231 197.369H24.2676C24.2676 197.369 18.157 190.182 18.157 164.912V158.54H43.8337H43.8348Z" fill="#D1FFC0"/>
<path d="M40.8581 190.358C39.3041 195.51 37.7231 197.369 37.7231 197.369H24.2676C24.2676 197.369 18.157 190.182 18.157 164.912V158.54H22.6408C23.5844 166.804 27.3682 190.497 39.7186 190.333C40.0988 190.328 40.479 190.336 40.8581 190.358Z" fill="#A5DF8F"/>
<g opacity="0.5">
<path d="M283.403 64.9213L283.526 161.109C283.526 161.109 248.499 106.653 163.73 86.4843V3.66443C163.73 3.66443 207.478 8.53337 242.167 21.9191C266.927 31.4721 287.072 45.3646 283.402 64.9213H283.403Z" fill="#7676D8"/>
</g>
<path d="M242.168 21.9191C215.384 12.6505 166.848 7.45242 166.848 7.45242L163.731 86.4843V3.66443C163.731 3.66443 207.479 8.53337 242.168 21.9191Z" fill="#7676D8"/>
<g opacity="0.5">
<path d="M274.039 22.8941V51.3633C274.039 51.5678 274.022 51.7651 273.99 51.9562C273.567 54.468 270.496 55.7245 268.416 54.007C249.665 38.5206 226.218 32.1253 218.411 30.3299C216.851 29.9717 215.747 28.5875 215.747 26.9905V3.42561C215.747 1.35405 217.576 -0.239856 219.635 0.0290835C248.863 3.83265 267.602 16.3897 272.657 20.1476C273.527 20.7945 274.038 21.8121 274.038 22.8941H274.039Z" fill="#306EFD"/>
</g>
<path d="M274.207 22.9502V29.0527C251.959 10.4741 224.178 5.22614 215.915 4.02786V3.48167C215.915 1.41011 217.743 -0.183795 219.803 0.0851443C249.031 3.88872 267.77 16.4458 272.825 20.2037C273.694 20.8506 274.206 21.8682 274.206 22.9502H274.207Z" fill="#3071FF"/>
<path d="M268.724 21.7031C268.724 22.3573 269.256 22.8983 269.917 22.9118C270.581 22.9253 271.123 22.3999 271.123 21.7374C271.123 21.0749 270.581 20.5349 269.917 20.5287C269.256 20.5235 268.724 21.0489 268.724 21.7031Z" fill="white"/>
<path d="M264.771 19.1445C264.771 19.7852 265.282 20.3158 265.916 20.3283C266.554 20.3408 267.074 19.8257 267.074 19.1778C267.074 18.5298 266.555 17.9992 265.916 17.994C265.283 17.9888 264.771 18.5039 264.771 19.1445Z" fill="white"/>
<path d="M260.661 16.6192C260.661 17.2474 261.151 17.7666 261.761 17.7791C262.373 17.7915 262.873 17.2859 262.873 16.6504C262.873 16.0149 262.373 15.4957 261.761 15.4905C261.151 15.4853 260.661 15.991 260.661 16.6192Z" fill="white"/>
<path d="M274.158 52.0123C273.735 54.5241 270.663 55.7805 268.583 54.0631C249.833 38.5767 226.386 32.1814 218.579 30.386C217.019 30.0267 215.915 28.6436 215.915 27.0466V24.6832C224.155 26.2481 246.683 31.6559 267.837 46.8609C269.395 47.9802 272.08 50.0352 274.158 52.0123Z" fill="#3071FF"/>
<path d="M270.152 52.6135C266.128 48.8857 260.947 45.2919 254.752 41.9338C249.792 39.2444 244.176 36.6993 238.059 34.3682C227.641 30.3985 219.274 28.4027 219.191 28.383L219.273 28.0372C219.357 28.0569 227.743 30.0568 238.182 34.0338C244.315 36.3702 249.945 38.9225 254.92 41.6192C261.142 44.9928 266.348 48.6033 270.395 52.3518L270.152 52.6114V52.6135Z" fill="white"/>
<path d="M261.812 46.4414C261.812 47.0499 262.282 47.6376 262.867 47.756C263.455 47.8743 263.934 47.4725 263.934 46.8578C263.934 46.2431 263.455 45.6533 262.867 45.5411C262.282 45.43 261.812 45.8339 261.812 46.4424V46.4414Z" fill="white"/>
<path d="M230.166 16.2755C229.864 16.2215 229.555 16.3254 229.347 16.5507L228.617 17.3419L228.566 14.2206C228.457 13.744 227.826 13.6308 227.558 14.0409L226.856 17.9432L226.559 17.8902L226.24 19.6637L231.222 20.5536L231.934 16.5922L230.166 16.2766V16.2755ZM231.708 17.6805L229.692 17.3201C229.739 17.0585 229.99 16.8851 230.251 16.9318L231.793 17.207L231.707 17.6794L231.708 17.6805Z" fill="#2408BE"/>
<path d="M225.982 17.7853C225.81 17.7542 225.646 17.8684 225.615 18.0397L225.408 19.1923C225.377 19.3637 225.491 19.5277 225.663 19.5578L226.241 19.6617L226.56 17.8881L225.982 17.7843V17.7853Z" fill="#3071FF"/>
<path d="M263.027 37.0991L260.511 31.5189C260.053 30.5054 260.42 29.1109 261.315 28.519C261.378 28.1649 261.162 27.9261 260.861 27.9085L256.543 27.7787C256.142 27.7558 255.773 28.0964 255.687 28.5668L255.212 31.2115L257.361 37.8011L256.915 37.8924L257.124 38.6806C257.248 39.152 257.657 39.4178 258.077 39.3026L262.636 38.0503C262.998 37.9506 263.196 37.4719 263.028 37.1002L263.027 37.0991Z" fill="#2408BE"/>
<path d="M255.004 30.1918L256.265 27.5128L253.612 27.1338C253.609 27.029 253.603 26.9646 253.601 26.9532C253.59 26.8597 253.504 26.7932 253.409 26.8047C253.315 26.8161 253.248 26.9023 253.26 26.9957C253.261 27.0082 253.394 28.2231 252.406 29.5138C252.348 29.5886 252.363 29.6965 252.439 29.7537C252.468 29.7765 252.502 29.7879 252.537 29.789C252.591 29.791 252.645 29.7682 252.679 29.7215C252.681 29.7184 252.684 29.7152 252.687 29.7121L255.004 30.1918Z" fill="#2408BE"/>
<path d="M263.717 23.46L261.882 21.6605L230.164 15.9931C229.848 15.937 229.547 16.1457 229.49 16.4604L228.86 19.9628C228.808 20.2515 228.982 20.5339 229.263 20.619L248.822 25.7632C249.504 25.9677 249.878 26.6987 249.644 27.3695L249.312 28.3259C249.238 28.5367 249.342 28.7682 249.549 28.8544L255.089 31.1824C255.662 31.4078 255.821 30.6041 255.821 30.6041C256.124 28.9188 257.74 27.7963 259.432 28.0985L262.586 28.6623C262.996 28.736 263.388 28.464 263.461 28.0549L264.081 24.6074C264.156 24.189 264.02 23.7601 263.715 23.4621L263.717 23.46ZM252.891 29.7204C250.165 28.9738 250.282 28.1234 250.715 27.003C250.797 26.7912 251.019 26.6645 251.243 26.705L255.367 27.4422C255.593 27.4827 255.757 27.6779 255.758 27.9074C255.761 28.6831 255.196 30.3528 252.891 29.7215V29.7204Z" fill="#3071FF"/>
<path d="M259.804 22.8921L252.194 21.5318C251.67 21.4383 251.05 21.7644 250.957 22.2867L244.442 21.1227C244.244 21.0874 244.041 21.1185 243.863 21.212L243.19 21.564C242.904 21.7135 242.969 22.1413 243.288 22.1974L259.984 25.1806L260.274 23.5649C260.33 23.2493 260.12 22.9471 259.803 22.891L259.804 22.8921Z" fill="#2408BE"/>
<path d="M230.172 80.309C228.009 79.767 225.044 81.9922 225.359 84.5467C225.457 85.34 225.834 86.0461 226.314 86.6598C226.657 87.099 226.742 87.2402 226.716 86.6068C226.694 86.0866 226.747 85.5736 226.847 85.0606C227.1 86.0876 227.797 87.0221 228.516 87.7667C229.016 88.2848 228.917 88.0034 228.861 87.6234C228.798 87.1997 228.83 86.7501 228.919 86.3129C229.323 87.1343 230.11 87.7781 230.852 88.2599C231.51 88.6877 232.323 89.1072 233.152 89.2536C233.974 89.399 233.933 89.4073 233.894 88.6119C233.854 87.7698 233.535 86.909 233.189 86.2018C232.802 85.4085 232.258 84.5508 231.491 84.0493C231.924 84.0171 232.364 84.0389 232.768 84.1448C233.151 84.2445 233.369 84.2943 232.944 83.7772C232.299 82.9912 231.47 82.2134 230.501 81.8438C231.015 81.8085 231.523 81.8188 232.029 81.9009C232.722 82.0141 232.478 81.8334 232.158 81.5146C231.606 80.9643 230.95 80.5032 230.173 80.308L230.172 80.309Z" fill="#DEE9FF"/>
<path d="M207.42 73.815L209.51 85.962L227.388 93.0042L229.623 92.0697L218.882 80.7389L207.42 73.815Z" fill="#2408BE"/>
<path d="M218.858 62.4116L231.042 64.4967L238.105 82.3193L237.169 84.5467L225.803 73.8389L218.858 62.4116Z" fill="#2408BE"/>
<path d="M191.655 60.8831C192.508 62.7678 193.649 64.6586 195.165 66.4592C201.136 73.5399 209.347 78.3787 215.18 81.1937L226.259 70.1496C223.436 64.3347 218.582 56.1481 211.48 50.1961C209.675 48.6843 207.778 47.5462 205.887 46.6968C204.541 49.6458 202.581 52.5034 200.03 55.0454C197.479 57.5883 194.614 59.5415 191.655 60.8841V60.8831Z" fill="#3071FF"/>
<path d="M222.354 84.2009L225.815 80.7514L229.276 77.3009C229.276 77.3009 228.294 74.3384 226.26 70.1485L215.181 81.1927C219.383 83.2206 222.354 84.1998 222.354 84.1998V84.2009Z" fill="#2408BE"/>
<g opacity="0.2">
<path d="M222.354 84.2009L225.815 80.7514L229.276 77.3009C229.276 77.3009 228.294 74.3384 226.26 70.1485L215.181 81.1927C219.383 83.2206 222.354 84.1998 222.354 84.1998V84.2009Z" fill="#21397F"/>
</g>
<path d="M189.674 44.7197C189.674 44.7197 187.975 52.7422 191.655 60.8831C194.614 59.5405 197.48 57.5873 200.03 55.0443C202.581 52.5024 204.54 49.6448 205.887 46.6958C197.721 43.0262 189.674 44.7197 189.674 44.7197Z" fill="#2408BE"/>
<path d="M212.731 56.6143C215.804 59.6786 215.802 64.6441 212.731 67.7073C209.658 70.7695 204.676 70.7716 201.604 67.7073C198.53 64.6441 198.532 59.6775 201.604 56.6143C204.676 53.5522 209.658 53.5511 212.731 56.6143Z" fill="#2408BE"/>
<path d="M211.709 57.632C214.218 60.1334 214.217 64.1872 211.709 66.6876C209.201 69.188 205.135 69.1891 202.626 66.6876C200.118 64.1872 200.119 60.1324 202.626 57.632C205.134 55.1326 209.2 55.1315 211.709 57.632Z" fill="#B4D9F3"/>
<path d="M208.249 57.632C209.026 58.4066 209.025 59.662 208.249 60.4356C207.473 61.2092 206.214 61.2102 205.437 60.4356C204.66 59.6609 204.661 58.4066 205.437 57.632C206.213 56.8594 207.471 56.8573 208.248 57.632H208.249Z" fill="white"/>
<g opacity="0.5">
<path d="M201.937 85.6359C201.881 83.6163 200.395 81.8583 198.321 81.5312C198.005 81.4814 197.691 81.4699 197.384 81.4886C197.628 79.2364 196.064 77.1638 193.794 76.8056C191.625 76.4629 189.582 77.8066 188.997 79.8605C188.689 79.495 188.254 79.2322 187.744 79.1512C186.621 78.9737 185.567 79.7379 185.389 80.8573C185.374 80.9476 185.368 81.0369 185.366 81.1262C185.302 81.1138 185.242 81.0961 185.177 81.0868C183.718 80.8563 182.315 81.3879 181.375 82.3858L201.938 85.6359H201.937Z" fill="#DEE9FF"/>
</g>
<path d="M236.335 90.1227C236.039 90.1041 235.879 90.0968 235.876 90.0968L235.911 89.3222C235.911 89.3222 236.076 89.3294 236.383 89.3481L236.334 90.1217L236.335 90.1227Z" fill="white"/>
<path d="M255.526 116.073L255.484 115.299C255.763 115.285 256.051 115.244 256.34 115.179L256.512 115.935C256.18 116.009 255.849 116.056 255.526 116.074V116.073ZM254.52 116.029C254.182 115.98 253.852 115.896 253.538 115.779L253.811 115.053C254.073 115.151 254.349 115.221 254.63 115.262L254.519 116.029H254.52ZM257.456 115.647L257.179 114.923C257.446 114.822 257.717 114.699 257.985 114.559L258.346 115.244C258.052 115.399 257.752 115.534 257.456 115.647ZM252.634 115.323C252.359 115.146 252.094 114.935 251.847 114.698L252.387 114.14C252.597 114.343 252.822 114.522 253.055 114.672L252.634 115.323ZM282.275 114.966C282.058 114.754 281.833 114.543 281.608 114.339L282.131 113.766C282.363 113.975 282.594 114.193 282.818 114.411L282.275 114.966ZM259.182 114.749L258.752 114.104C258.994 113.943 259.238 113.764 259.474 113.574L259.962 114.178C259.707 114.382 259.445 114.574 259.182 114.749ZM251.192 113.952C251.004 113.7 250.824 113.423 250.66 113.129L251.339 112.752C251.487 113.017 251.647 113.265 251.815 113.49L251.192 113.953V113.952ZM280.918 113.734C280.687 113.538 280.449 113.343 280.209 113.153L280.692 112.546C280.938 112.742 281.184 112.942 281.421 113.144L280.918 113.734ZM260.687 113.544L260.151 112.983C260.366 112.779 260.578 112.562 260.781 112.338L261.358 112.857C261.143 113.096 260.917 113.326 260.688 113.544H260.687ZM279.481 112.595C279.238 112.416 278.987 112.236 278.735 112.061L279.179 111.424C279.437 111.604 279.696 111.787 279.946 111.972L279.482 112.594L279.481 112.595ZM250.235 112.245C250.106 111.917 250.013 111.591 249.959 111.277L250.726 111.147C250.77 111.409 250.848 111.685 250.959 111.962L250.236 112.245H250.235ZM261.975 112.123L261.362 111.646C261.546 111.41 261.724 111.165 261.893 110.915L262.537 111.347C262.359 111.612 262.17 111.873 261.974 112.122L261.975 112.123ZM277.972 111.55C277.717 111.385 277.455 111.22 277.194 111.063L277.597 110.4C277.866 110.562 278.133 110.73 278.395 110.901L277.972 111.551V111.55ZM276.4 110.597C276.136 110.448 275.864 110.299 275.594 110.156L275.958 109.472C276.235 109.618 276.512 109.77 276.783 109.924L276.4 110.597ZM263.045 110.536L262.372 110.149C262.522 109.889 262.666 109.621 262.798 109.352L263.496 109.693C263.356 109.979 263.204 110.262 263.045 110.537V110.536ZM250.692 110.324L249.919 110.245C249.955 109.899 250.042 109.559 250.18 109.238L250.894 109.542C250.788 109.792 250.719 110.054 250.692 110.323V110.324ZM274.774 109.739C274.503 109.605 274.222 109.472 273.944 109.344L274.269 108.64C274.555 108.771 274.84 108.907 275.119 109.044L274.774 109.739ZM273.104 108.972C272.824 108.853 272.536 108.736 272.251 108.622L272.537 107.902C272.829 108.017 273.123 108.138 273.409 108.259L273.104 108.971V108.972ZM251.321 108.843L250.714 108.359C250.915 108.108 251.156 107.868 251.429 107.645L251.921 108.244C251.69 108.432 251.489 108.634 251.321 108.843ZM263.887 108.82L263.168 108.528C263.281 108.25 263.385 107.964 263.478 107.681L264.217 107.92C264.12 108.222 264.008 108.525 263.888 108.82H263.887ZM271.389 108.295C271.104 108.192 270.811 108.089 270.52 107.991L270.768 107.257C271.065 107.357 271.365 107.462 271.657 107.567L271.39 108.295H271.389ZM252.638 107.75L252.244 107.083C252.513 106.926 252.805 106.777 253.115 106.641L253.428 107.35C253.146 107.474 252.88 107.609 252.638 107.751V107.75ZM269.642 107.71C269.349 107.62 269.051 107.533 268.756 107.451L268.965 106.705C269.266 106.789 269.571 106.877 269.87 106.968L269.642 107.709V107.71ZM267.865 107.216C267.569 107.143 267.267 107.071 266.967 107.005L267.136 106.249C267.442 106.316 267.75 106.39 268.053 106.466L267.865 107.218V107.216ZM254.265 107.028L254.017 106.293C254.309 106.195 254.62 106.103 254.937 106.022L255.131 106.773C254.831 106.85 254.54 106.936 254.265 107.029V107.028ZM264.481 106.998L263.726 106.814C263.755 106.695 263.783 106.576 263.808 106.456C263.649 106.437 263.489 106.418 263.331 106.4L263.417 105.63C263.727 105.664 264.042 105.704 264.353 105.746L264.317 106L264.675 106.06C264.623 106.372 264.557 106.688 264.48 106.998H264.481ZM266.065 106.817C265.763 106.758 265.458 106.702 265.158 106.653L265.286 105.888C265.593 105.939 265.905 105.996 266.214 106.057L266.065 106.818V106.817ZM256.019 106.574L255.871 105.813C256.174 105.753 256.49 105.701 256.81 105.656L256.918 106.423C256.612 106.466 256.309 106.517 256.019 106.573V106.574ZM257.827 106.318L257.754 105.547C258.061 105.518 258.38 105.494 258.699 105.477L258.741 106.251C258.432 106.267 258.123 106.29 257.827 106.318ZM262.415 106.312C262.106 106.287 261.798 106.267 261.496 106.252L261.536 105.478C261.845 105.494 262.163 105.515 262.478 105.541L262.416 106.313L262.415 106.312ZM260.576 106.221C260.407 106.218 260.238 106.215 260.07 106.217C259.932 106.217 259.794 106.218 259.658 106.22L259.645 105.445C259.791 105.443 259.936 105.442 260.086 105.442C260.252 105.442 260.421 105.443 260.591 105.446L260.576 106.221ZM264.798 105.108L264.024 105.04C264.05 104.742 264.064 104.44 264.066 104.143L264.843 104.148C264.841 104.466 264.826 104.788 264.798 105.108ZM264.035 103.247C264.012 102.949 263.977 102.65 263.93 102.357L264.698 102.233C264.749 102.548 264.787 102.869 264.811 103.189L264.036 103.247H264.035ZM263.749 101.478C263.695 101.262 263.632 101.045 263.564 100.832C263.543 100.762 263.519 100.692 263.494 100.624L264.226 100.363C264.253 100.44 264.28 100.517 264.305 100.596C264.379 100.824 264.446 101.058 264.504 101.29L263.75 101.478H263.749ZM263.145 99.8191C263.013 99.5637 262.863 99.3082 262.698 99.06L263.344 98.6302C263.526 98.9032 263.693 99.1846 263.837 99.4671L263.145 99.8191ZM262.165 98.3508C261.979 98.1286 261.776 97.9074 261.561 97.6925L262.11 97.1442C262.343 97.3758 262.561 97.6146 262.762 97.8555L262.165 98.3508ZM260.899 97.083C260.676 96.894 260.439 96.704 260.191 96.5202L260.655 95.8982C260.917 96.0924 261.169 96.2928 261.404 96.4932L260.899 97.0819V97.083ZM259.445 96.001C259.198 95.839 258.938 95.6781 258.669 95.5213L259.063 94.8525C259.342 95.0156 259.615 95.1848 259.872 95.353L259.445 96.001ZM257.869 95.0768C257.606 94.9377 257.331 94.7996 257.05 94.6646L257.386 93.9658C257.676 94.1049 257.96 94.2482 258.233 94.3915L257.869 95.0768ZM256.214 94.2825C255.938 94.162 255.653 94.0416 255.366 93.9263L255.656 93.2078C255.951 93.3261 256.245 93.4497 256.527 93.5733L256.214 94.2825ZM254.505 93.594C254.225 93.4902 253.932 93.3853 253.636 93.2836L253.889 92.5505C254.192 92.6543 254.491 92.7613 254.776 92.8672L254.505 93.593V93.594ZM252.758 92.9939C252.469 92.9025 252.172 92.8111 251.873 92.7228L252.094 91.9804C252.398 92.0697 252.701 92.1631 252.994 92.2566L252.758 92.9949V92.9939ZM250.982 92.4684C250.689 92.3874 250.387 92.3075 250.087 92.2306L250.281 91.4799C250.586 91.5578 250.892 91.6388 251.189 91.7208L250.983 92.4674L250.982 92.4684ZM249.189 92.0084C248.892 91.9378 248.589 91.8672 248.285 91.7997L248.455 91.0438C248.762 91.1123 249.071 91.1829 249.371 91.2546L249.189 92.0084ZM247.379 91.6045C247.078 91.5422 246.772 91.4799 246.469 91.4217L246.618 90.6606C246.924 90.7198 247.233 90.7821 247.537 90.8455L247.379 91.6045ZM245.556 91.2504C245.248 91.1943 244.943 91.1414 244.641 91.0905L244.77 90.3263C245.074 90.3771 245.383 90.4311 245.694 90.4872L245.555 91.2494L245.556 91.2504ZM243.724 90.942C243.413 90.8932 243.106 90.8475 242.805 90.8039L242.916 90.0366C243.219 90.0802 243.53 90.1269 243.844 90.1757L243.723 90.941L243.724 90.942ZM241.885 90.6762C241.569 90.6336 241.261 90.5952 240.962 90.5578L241.057 89.7884C241.358 89.8258 241.668 89.8652 241.987 89.9078L241.884 90.6762H241.885ZM240.038 90.4498C239.716 90.4135 239.406 90.3813 239.114 90.3512L239.192 89.5797C239.487 89.6098 239.799 89.642 240.125 89.6783L240.038 90.4488V90.4498ZM238.187 90.264C237.844 90.2328 237.534 90.2079 237.26 90.1871L237.319 89.4146C237.596 89.4364 237.91 89.4613 238.256 89.4924L238.187 90.264Z" fill="white"/>
<path d="M283.24 115.955C283.136 115.843 283.032 115.731 282.925 115.621L283.488 115.086C283.597 115.201 283.704 115.315 283.812 115.431L283.24 115.956V115.955Z" fill="white"/>
<g opacity="0.5">
<path d="M283.526 161.109C283.526 161.109 278.017 180.082 253.657 181.07V85.1967C253.657 85.1967 273.125 87.1187 283.403 64.9214L283.526 161.109Z" fill="#7676D8"/>
</g>
<path d="M283.403 64.9214C280.24 82.2789 257.234 89.3294 257.234 89.3294L253.658 181.07V85.1967C253.658 85.1967 273.126 87.1187 283.404 64.9214H283.403Z" fill="#7676D8"/>
<g opacity="0.5">
<path d="M280.81 98.4027C279.385 96.3436 276.65 95.5192 274.275 96.5742C273.913 96.7351 273.58 96.9355 273.273 97.1608C272.002 94.6573 268.974 93.5587 266.373 94.7144C263.889 95.8182 262.677 98.5886 263.461 101.116C262.894 100.944 262.263 100.963 261.68 101.223C260.393 101.795 259.816 103.299 260.389 104.581C260.436 104.685 260.489 104.781 260.547 104.876C260.473 104.905 280.811 98.4038 280.811 98.4038L280.81 98.4027Z" fill="#DEE9FF"/>
</g>
<path d="M219.48 41.8466C220.322 41.2858 219.3 39.6888 217.922 39.4894C217.711 39.4593 217.503 39.4541 217.3 39.4697C217.441 37.9724 216.385 36.6121 214.876 36.394C213.435 36.1853 212.09 37.095 211.72 38.4635C211.513 38.2237 211.221 38.0534 210.883 38.0035C210.136 37.8955 209.443 38.4116 209.334 39.1572C209.326 39.2174 209.322 39.2766 209.321 39.3358C209.279 39.3275 219.481 41.8466 219.481 41.8466H219.48Z" fill="#DEE9FF"/>
<path d="M273.415 149.012H273.383L273.39 148.238H273.416C273.693 148.238 273.97 148.213 274.241 148.163L274.383 148.925C274.066 148.984 273.74 149.013 273.416 149.013L273.415 149.012ZM272.387 148.917L272.315 148.903C272.007 148.843 271.712 148.769 271.438 148.684L271.669 147.944C271.916 148.02 272.185 148.087 272.466 148.142L272.53 148.154L272.387 148.917ZM275.341 148.654L275.063 147.93C275.324 147.83 275.587 147.704 275.842 147.555L276.234 148.225C275.942 148.394 275.642 148.539 275.341 148.654ZM270.517 148.325C270.202 148.172 269.914 147.995 269.657 147.797L270.133 147.185C270.348 147.35 270.592 147.499 270.858 147.629L270.518 148.326L270.517 148.325ZM277.046 147.674L276.567 147.063C276.791 146.889 277.016 146.691 277.234 146.479L277.777 147.033C277.538 147.266 277.292 147.482 277.045 147.674H277.046ZM268.928 147.079C268.721 146.816 268.543 146.522 268.399 146.205L269.107 145.886C269.225 146.145 269.371 146.385 269.539 146.599L268.927 147.078L268.928 147.079ZM278.438 146.328L277.848 145.824C278.036 145.605 278.226 145.367 278.41 145.117L279.036 145.577C278.84 145.842 278.639 146.094 278.438 146.328ZM268.08 145.254C268.01 144.954 267.959 144.627 267.927 144.283L268.701 144.214C268.729 144.522 268.775 144.813 268.837 145.078L268.079 145.254H268.08ZM279.58 144.792L278.928 144.371C279.088 144.125 279.249 143.863 279.405 143.593L280.078 143.981C279.915 144.262 279.748 144.535 279.58 144.792ZM268.667 143.321L267.89 143.318C267.891 143.019 267.903 142.707 267.926 142.364L268.702 142.416C268.68 142.742 268.669 143.038 268.668 143.321H268.667ZM280.536 143.149L279.847 142.791C279.985 142.526 280.124 142.25 280.257 141.969L280.959 142.302C280.82 142.592 280.679 142.877 280.535 143.151L280.536 143.149ZM268.782 141.505L268.01 141.423C268.04 141.14 268.076 140.836 268.122 140.49L268.893 140.59C268.848 140.929 268.813 141.228 268.782 141.505ZM281.352 141.442L280.639 141.133C280.76 140.858 280.88 140.572 280.995 140.284L281.716 140.572C281.597 140.867 281.475 141.16 281.351 141.442H281.352ZM282.057 139.694L281.329 139.424C281.434 139.141 281.539 138.85 281.64 138.555L282.375 138.807C282.272 139.107 282.165 139.405 282.058 139.694H282.057ZM269.017 139.672L268.247 139.565L268.28 139.325C268.312 139.1 268.344 138.873 268.375 138.645L269.145 138.75C269.114 138.978 269.081 139.206 269.05 139.432L269.017 139.672ZM282.672 137.915L281.932 137.679C282.024 137.391 282.116 137.094 282.205 136.796L282.949 137.016C282.86 137.318 282.766 137.621 282.671 137.915H282.672ZM269.266 137.824L268.494 137.729C268.535 137.4 268.568 137.101 268.596 136.814L269.37 136.89C269.341 137.183 269.306 137.488 269.266 137.824ZM283.21 136.111L282.46 135.907C282.542 135.609 282.621 135.308 282.696 135.012L283.449 135.202C283.373 135.503 283.292 135.809 283.209 136.111H283.21ZM269.448 135.949L268.672 135.901C268.692 135.585 268.705 135.279 268.71 134.989L269.487 135.002C269.481 135.304 269.468 135.622 269.447 135.949H269.448ZM254.442 135.258L253.783 134.846C253.95 134.582 254.13 134.315 254.319 134.054L254.95 134.507C254.771 134.755 254.6 135.008 254.442 135.258ZM283.672 134.286L282.915 134.112C283.045 133.551 283.109 133.213 283.11 133.21L283.873 133.354C283.87 133.369 283.805 133.708 283.672 134.287V134.286ZM268.7 134.082C268.687 133.773 268.664 133.471 268.63 133.184L269.402 133.095C269.438 133.4 269.463 133.722 269.477 134.05L268.7 134.082ZM255.503 133.786L254.9 133.298C255.098 133.055 255.307 132.812 255.522 132.577L256.098 133.097C255.893 133.322 255.693 133.554 255.504 133.786H255.503ZM256.728 132.439L256.18 131.888C256.405 131.666 256.638 131.447 256.874 131.236L257.392 131.814C257.166 132.015 256.943 132.225 256.728 132.438V132.439ZM268.489 132.299C268.427 132.004 268.351 131.714 268.264 131.439L269.004 131.204C269.1 131.504 269.182 131.82 269.25 132.143L268.489 132.299ZM258.088 131.226L257.601 130.622C257.849 130.423 258.105 130.229 258.36 130.046L258.814 130.675C258.57 130.851 258.326 131.036 258.088 131.226ZM267.943 130.627C267.813 130.359 267.664 130.113 267.5 129.895L268.123 129.431C268.316 129.689 268.49 129.978 268.642 130.289L267.943 130.628V130.627ZM259.568 130.167L259.151 129.512C259.424 129.339 259.701 129.176 259.975 129.025L260.35 129.705C260.091 129.847 259.828 130.003 259.569 130.167H259.568ZM261.157 129.297L260.831 128.594C261.129 128.456 261.429 128.333 261.722 128.226L261.99 128.954C261.717 129.054 261.437 129.169 261.157 129.298V129.297ZM266.926 129.283C266.713 129.104 266.478 128.953 266.228 128.832L266.564 128.134C266.873 128.282 267.164 128.469 267.426 128.689L266.926 129.282V129.283ZM262.844 128.686L262.649 127.936C262.975 127.852 263.299 127.789 263.609 127.747L263.711 128.516C263.431 128.553 263.138 128.61 262.843 128.686H262.844ZM265.433 128.561C265.165 128.503 264.88 128.47 264.583 128.464L264.6 127.689C264.947 127.696 265.283 127.735 265.6 127.804L265.434 128.561H265.433Z" fill="white"/>
<path d="M255.982 66.9464C259.868 66.3881 262.564 62.7951 262.004 58.9211C261.444 55.0471 257.84 52.3592 253.955 52.9174C250.069 53.4757 247.373 57.0687 247.933 60.9427C248.493 64.8167 252.097 67.5046 255.982 66.9464Z" fill="#3166CE"/>
<g opacity="0.5">
<path d="M261.796 57.9476C261.905 58.2685 261.945 58.5665 262.027 58.8884C263.9 58.6766 265.093 58.7004 265.164 59.0109C265.237 59.3287 264.114 59.8852 262.253 60.5249C260.466 61.1386 257.997 61.827 255.244 62.4531C252.756 63.0191 250.457 63.4375 248.652 63.6753C246.376 63.9754 244.887 63.9868 244.807 63.64C244.73 63.3005 246.015 62.6889 248.107 61.9963C248.044 61.6744 248.004 61.3535 247.986 61.0347C243.492 62.4106 240.523 63.7958 240.701 64.5745C240.883 65.372 244.321 65.3159 249.155 64.561C251.071 64.262 253.207 63.8529 255.448 63.3441C257.908 62.7844 260.203 62.1707 262.188 61.556C266.57 60.2009 269.447 58.8448 269.271 58.0785C269.1 57.3308 266.15 57.3256 261.796 57.9487V57.9476Z" fill="#2D72FE"/>
</g>
<g opacity="0.5">
<path d="M263.374 64.5164C262.506 64.2153 261.557 64.6732 261.256 65.5392C260.954 66.4042 261.414 67.3501 262.282 67.6502C263.15 67.9514 264.099 67.4934 264.4 66.6274C264.701 65.7614 264.242 64.8165 263.374 64.5164Z" fill="#DEE9FF"/>
</g>
<g opacity="0.5">
<path d="M248.4 72.3208L248.825 73.8078L249.016 72.2315L250.448 71.8162L249.339 71.3489L249.483 70.0188L248.564 71.0634L247.337 70.3583L247.937 71.6324L247.07 72.514L248.4 72.3208Z" fill="#2D72FE"/>
</g>
<g opacity="0.5">
<path d="M265.198 76.9478L266.056 79.9529L266.445 76.7672L269.337 75.9271L267.096 74.9822L267.388 72.2949L265.53 74.4049L263.05 72.9792L264.262 75.5554L262.508 77.3383L265.198 76.9478Z" fill="#2D72FE"/>
</g>
<path d="M260.665 169.318L261.233 171.31L261.491 169.197L263.409 168.641L261.923 168.013L262.117 166.232L260.885 167.631L259.24 166.686L260.044 168.393L258.881 169.576L260.665 169.318Z" fill="#DEE9FF"/>
<g opacity="0.5">
<path d="M187.144 68.59L188.214 67.8091L186.889 68.1237L186.13 67.104L186.084 68.1289L184.973 68.4093L186.085 68.8329L185.883 70.0229L186.729 69.1642L187.695 69.5961L187.144 68.59Z" fill="#2D72FE"/>
</g>
<g opacity="0.5">
<path d="M233.972 50.5627L234.461 48.4299L235.049 50.6302L237.583 51.0767L235.749 51.842L236.214 53.6986L234.461 52.3176L232.461 53.4286L233.287 51.5772L231.649 50.4194L233.972 50.5627Z" fill="#2D72FE"/>
</g>
<path d="M273.884 158.869L274.372 156.737L274.961 158.936L277.494 159.382L275.66 160.148L276.125 162.004L274.371 160.624L272.372 161.734L273.198 159.883L271.559 158.725L273.884 158.869Z" fill="#DEE9FF"/>
<path d="M173.336 73.4392C173.336 73.4392 174.262 73.7372 174.699 74.5616C175.2 75.5055 173.936 76.7028 173.936 76.7028C173.936 76.7028 174.811 77.1981 175.186 78.115C175.574 79.0661 174.471 80.4555 174.471 80.4555C174.471 80.4555 174.702 80.2613 174.456 81.2851C174.034 83.0358 171.344 83.7243 169.762 84.4792C168.069 85.287 160.562 86.5019 159.29 87.072L153.631 81.8874C153.631 81.8874 164.368 72.4506 167.407 71.5784C169.092 71.0945 173.338 73.4402 173.338 73.4402L173.336 73.4392Z" fill="#FFD0CF"/>
<path d="M153.375 81.8998C153.375 81.8998 153.377 81.9036 153.378 81.9054C153.378 81.9054 153.378 81.9045 153.378 81.9036C153.378 81.9017 153.376 81.9017 153.376 81.9008L153.375 81.8998Z" fill="white"/>
<path d="M153.88 83.9984L153.123 81.9881L153.255 81.9351L153.344 81.9123L153.255 81.9351L153.277 81.9268L153.117 81.9611L153.282 81.9248L153.311 81.9133L153.113 81.9351L153.112 81.9248L153.321 81.9092L153.401 81.877L153.575 81.7233L153.618 81.7711L153.644 81.8801L153.88 83.9984Z" fill="black"/>
<path d="M153.19 82.094L153.11 82.0161V81.9061H153.336L153.567 81.7171L153.645 81.7949V81.9061H153.413L153.332 81.9517L153.19 82.094Z" fill="black"/>
<path d="M142.863 143.884L126.243 166.852L128.586 176.046H137.157L152.399 155.097L142.863 143.884Z" fill="#FFD0CF"/>
<path d="M183.687 127.236C182.198 138.483 154.399 170.948 151.187 174.671C150.713 175.221 150.456 175.519 150.456 175.519L127.461 157.901L127.725 157.56L147.975 131.126C147.975 131.126 114.49 150.607 97.7347 141.763C90.2139 137.794 84.6344 130.736 84.6344 130.736L106.501 119.112C106.501 119.112 112.551 121.062 116.42 120.499C129.75 118.554 159.619 107.248 166.706 107.533C175.848 107.908 185.052 116.917 183.688 127.235L183.687 127.236Z" fill="#302E2D"/>
<path d="M155.247 121.3C154.461 122.093 153.834 123.084 153.158 123.969C152.443 124.904 151.715 125.83 151 126.767C150.993 126.776 150.987 126.786 150.98 126.795C151.107 126.521 151.231 126.245 151.362 125.974C151.813 125.042 152.174 124.08 152.707 123.189C152.74 123.135 152.656 123.084 152.623 123.138C152.075 124.023 151.439 124.863 150.969 125.793C150.748 126.231 150.539 126.674 150.344 127.124C150.237 127.37 150.128 127.617 150.032 127.869C149.988 127.983 149.933 128.105 149.901 128.229C149.58 128.663 149.264 129.1 148.957 129.544C148.275 130.528 147.673 131.568 146.983 132.546C146.946 132.597 147.03 132.646 147.068 132.596C147.767 131.677 148.55 130.822 149.26 129.91C149.983 128.982 150.668 128.029 151.345 127.067C152.006 126.129 152.652 125.182 153.313 124.244C153.977 123.299 154.766 122.366 155.304 121.344C155.323 121.308 155.278 121.267 155.247 121.298V121.3Z" fill="#7A8EFE"/>
<path d="M163.73 98.5076C163.73 98.5076 136.603 113.243 127.635 108.214C118.665 103.187 107.587 97.8389 102 88.9286C101 87.3326 100.218 85.6318 99.673 83.9475C97.1723 76.2272 97.7681 68.2483 108.572 73.3384C119.611 78.5407 130.766 87.5548 132.695 88.019C132.765 88.0356 132.866 88.0356 132.996 88.019C136.349 87.5912 158.509 76.2147 158.685 76.1244L163.73 98.5076Z" fill="#D1FFC0"/>
<path d="M163.73 98.5076C163.73 98.5076 136.603 113.243 127.635 108.214C118.665 103.187 107.587 97.8389 102 88.9286C101 87.3326 106.895 81.228 106.35 79.5438C113.225 84.8613 119.358 101.305 133.539 103.081C143.683 104.351 156.756 99.357 158.11 96.0124C159.463 92.6678 158.685 76.1223 158.685 76.1223L163.73 98.5066V98.5076Z" fill="#A5DF8F"/>
<path d="M74.4451 135.811C76.073 136.335 122.396 122.972 122.396 122.972L117.679 110.509C117.679 110.509 114.848 102.091 113.594 97.1318C112.686 93.539 111.105 88.2775 108.97 82.8001C107.167 78.1752 104.715 72.2845 104.273 71.9906C100.392 69.4258 85.1322 72.2263 81.917 73.9293C80.1017 74.8908 76.9042 76.6799 75.7356 79.1388C75.2502 80.1595 76.5532 81.335 76.1637 82.5509C70.5769 100.024 74.4462 135.812 74.4462 135.812L74.4451 135.811Z" fill="#D1FFC0"/>
<path d="M182.638 179.075L202.301 192.887L211.052 192.184L215.991 185.572L192.296 168.02L182.638 179.075Z" fill="#FFD0CF"/>
<path d="M206.506 173.963L188.483 198.207L127.664 156.133L121.799 152.074C121.799 152.074 120.139 153.189 117.639 154.566C114.167 156.48 109.079 158.903 104.578 159.564C97.0275 160.678 84.4209 160.559 78.0572 152.074C72.6975 144.931 75.6085 135.611 75.6085 135.611L83.8991 132.062C83.8991 132.062 103.517 115.765 116.226 115.274C121.623 115.06 129.484 119.139 136.762 123.4C144.035 127.654 206.506 173.964 206.506 173.964V173.963Z" fill="#302E2D"/>
<path d="M121.799 152.073C121.799 152.073 120.139 153.187 117.639 154.565C113.22 149.291 103.864 139.711 103.581 139.372L121.8 152.073H121.799Z" fill="#7A8EFE"/>
<path d="M91.0877 126.605C89.9149 127.417 88.7807 128.279 87.6235 129.113C86.4852 129.933 85.3103 130.702 84.2292 131.598C83.1294 132.507 82.0868 133.48 81.0494 134.46C80.5495 134.934 80.0537 135.41 79.5694 135.901C79.0903 136.387 78.5539 136.874 78.1571 137.429C78.1196 137.481 78.1946 137.542 78.2436 137.511C78.8039 137.153 79.307 136.662 79.8152 136.236C80.3641 135.776 80.9067 135.308 81.4535 134.845C82.5076 133.951 83.5835 133.082 84.6354 132.186C85.6801 131.296 86.6487 130.321 87.684 129.42C88.7921 128.455 89.9597 127.556 91.1106 126.642C91.1324 126.625 91.1106 126.588 91.0877 126.605Z" fill="#212862"/>
<path d="M202.275 173.093C201.104 174.352 200.022 175.707 198.931 177.035C197.837 178.368 196.748 179.708 195.668 181.053C193.507 183.746 191.327 186.425 189.203 189.146C188.035 190.642 186.884 192.147 185.799 193.704C185.751 193.773 185.861 193.851 185.918 193.79C188.243 191.241 190.369 188.521 192.526 185.832C194.687 183.137 196.84 180.435 198.961 177.709C200.121 176.217 201.317 174.732 202.383 173.172C202.426 173.109 202.327 173.04 202.277 173.094L202.275 173.093Z" fill="#7A8EFE"/>
<path d="M152.362 173.34C149.336 170.962 146.198 168.718 143.061 166.488C139.939 164.269 136.82 162.045 133.652 159.892C132.743 159.274 131.825 158.669 130.908 158.062C129.994 157.455 129.042 156.896 128.145 156.266C128.093 156.23 128.046 156.316 128.097 156.352C128.92 156.941 129.698 157.601 130.506 158.211C131.278 158.794 132.045 159.383 132.824 159.959C134.343 161.08 135.878 162.181 137.41 163.285C140.516 165.524 143.647 167.736 146.809 169.898C148.605 171.125 150.391 172.358 152.226 173.525C152.336 173.595 152.466 173.422 152.362 173.34Z" fill="#212862"/>
<path d="M171.811 148.326C169.015 146.015 166.017 143.938 163.087 141.802C160.123 139.641 157.174 137.46 154.197 135.315C151.244 133.187 148.291 131.059 145.339 128.931C142.477 126.868 139.628 124.772 136.606 122.946C134.952 121.946 133.255 121.02 131.51 120.186C129.817 119.376 128.056 118.55 126.244 118.042C126.19 118.026 126.16 118.105 126.209 118.132C127.699 118.962 129.264 119.66 130.772 120.46C132.262 121.251 133.731 122.084 135.175 122.957C138.176 124.771 141.01 126.831 143.858 128.873C149.77 133.111 155.67 137.369 161.624 141.548C164.956 143.887 168.219 146.356 171.68 148.506C171.788 148.574 171.913 148.408 171.813 148.326H171.811Z" fill="#7A8EFE"/>
<path d="M158.685 76.1244C158.594 76.221 152.83 82.3463 146.974 85.2351C141.734 87.8196 134.543 88.0096 132.996 88.019C136.349 87.5912 158.509 76.2147 158.685 76.1244Z" fill="#F8FFF5"/>
<path d="M96.3119 58.8905L98.8761 71.9781C98.9865 72.5409 99.0261 73.1017 99.0001 73.6499C98.8574 76.8243 95.5703 78.1253 95.5703 78.1253C91.7407 78.8709 85.5925 78.5282 84.8447 74.7101L82.2753 61.6235L96.3119 58.8905Z" fill="#FFD0CF"/>
<path d="M97.4586 64.7438L98.8761 71.9781C98.9865 72.5409 99.0261 73.1017 99.0001 73.6499C94.1861 73.6956 88.8462 71.6604 84.4635 67.4591L88.4932 63.8663L97.4586 64.7427V64.7438Z" fill="#EDA9A9"/>
<path d="M101.217 55.3704C101.538 57.0733 101.778 58.7991 101.842 60.3805C101.945 62.5601 101.735 64.4852 100.995 65.7313C99.2334 68.7052 93.004 68.9835 88.1734 68.7073C84.602 68.5037 81.542 66.0999 80.5109 62.6888C79.486 62.7823 78.3539 62.5684 77.2895 62.017C74.8158 60.7336 73.6399 58.1044 74.6617 56.1481C75.2543 55.0111 76.4594 54.3517 77.8488 54.2479L75.5314 47.6054L97.1982 44.7997L98.3574 44.6491C98.3574 44.6491 98.4491 44.9077 98.6012 45.3708C98.7824 45.9201 99.0501 46.756 99.3573 47.7881C99.3615 47.8016 99.3656 47.8151 99.3688 47.8276C99.9656 49.84 100.702 52.5823 101.219 55.3704H101.217Z" fill="#FFD0CF"/>
<path d="M99.3678 47.8276C94.4799 51.8139 85.6478 48.0498 83.697 49.03C79.333 51.2241 79.5861 57.5696 79.5861 57.5696L77.8478 54.2468L75.5304 47.6043L97.1972 44.7986L98.3565 44.6481C98.3565 44.6481 98.4481 44.9066 98.6002 45.3698C98.7814 45.9191 99.0491 46.7549 99.3563 47.7871C99.3605 47.8006 99.3647 47.8141 99.3678 47.8266V47.8276Z" fill="#EDA9A9"/>
<path d="M99.3042 38.2039C99.5427 37.3016 99.3677 36.3369 99.3677 36.3369C99.3677 36.3369 98.0179 37.0752 97.568 37.3203C96.7004 37.7917 95.5714 37.7346 95.5714 37.7346C94.4549 37.4874 93.2665 37.1282 92.0312 36.6183C91.7698 36.5103 91.5053 36.3961 91.2397 36.2736C85.1468 33.4762 81.5629 33.579 78.4393 37.8602C78.0623 36.528 77.9977 35.121 77.9977 35.121C75.8438 37.853 76.8218 40.5153 76.8218 40.5153C76.8218 40.5153 72.9713 39.2766 70.6873 41.5475C70.6873 41.5475 72.7443 41.534 74.2076 42.1373C73.0776 43.0261 72.2235 44.0168 71.6403 45.079C70.0623 47.9501 70.4612 51.3321 72.7099 54.5791C73.54 55.7774 74.6211 56.958 75.949 58.0867L79.5871 57.5696C78.4914 52.9042 80.136 49.3768 83.9927 46.7684C96.8368 51.2781 103.998 48.7829 104.173 37.6754C104.173 37.6754 102.275 38.2963 99.3053 38.205L99.3042 38.2039Z" fill="#0E0E0E"/>
<path d="M75.3762 53.6685C75.3762 53.6685 76.4479 48.2803 79.41 47.2212C79.41 47.2212 76.7145 47.109 75.8032 48.5472C75.8032 48.5472 76.4198 46.1828 77.8185 44.6481C77.8185 44.6481 72.3984 47.8203 75.3772 53.6674L75.3762 53.6685Z" fill="black"/>
<path d="M81.4243 39.6774C81.4243 39.6774 86.9007 35.3982 91.8031 41.7531C91.8031 41.7531 87.7412 40.3554 86.6142 41.1176C85.4863 41.8798 94.0924 46.9003 100.021 43.7862C100.021 43.7862 93.3373 49.4765 84.1896 43.3418C83.2158 42.6887 80.5328 40.9535 81.4254 39.6774H81.4243Z" fill="black"/>
<path d="M91.4531 54.7858C89.9325 55.1305 90.7366 58.1376 92.1458 57.8178C93.532 57.5032 92.728 54.4971 91.4531 54.7858Z" fill="#231F20"/>
<path d="M97.2326 53.2095C98.7043 52.6966 99.625 55.6694 98.2616 56.144C96.9191 56.6123 95.9984 53.6394 97.2326 53.2095Z" fill="#231F20"/>
<path d="M89.1077 53.1742C89.543 53.1254 89.9367 53.007 90.3627 52.9136C90.8429 52.8087 91.2366 52.7744 91.5917 52.4048C91.7823 52.2064 91.7688 51.8035 91.5928 51.6011C91.1834 51.1296 90.5637 51.112 89.9805 51.2158C89.3472 51.328 88.8879 51.5751 88.4692 52.06C88.063 52.5294 88.5338 53.2396 89.1087 53.1742H89.1077Z" fill="#231F20"/>
<path d="M98.3949 51.7277C97.9585 51.7714 97.5492 51.7381 97.1138 51.736C96.6222 51.734 96.2306 51.7828 95.8057 51.4962C95.5776 51.3425 95.5057 50.9458 95.6348 50.7112C95.9348 50.1639 96.5379 50.0175 97.1294 49.9968C97.7721 49.9729 98.273 50.1193 98.7855 50.5045C99.2812 50.8783 98.9709 51.6706 98.3949 51.7277Z" fill="#231F20"/>
<path d="M98.2429 62.124C98.2429 62.124 97.9512 63.2859 97.0795 64.1093C96.7587 64.4136 96.3712 64.6721 95.8859 64.8154C94.8902 65.1114 94.4955 64.5185 94.3392 63.9152C94.209 63.4199 94.2496 62.9121 94.2496 62.9121C94.2496 62.9121 96.1025 63.127 98.2429 62.124Z" fill="#804233"/>
<path d="M97.0795 64.1093C96.7587 64.4136 96.3712 64.6721 95.8859 64.8154C94.8902 65.1114 94.4955 64.5185 94.3392 63.9152C95.337 63.4842 96.5754 63.4655 97.0795 64.1093Z" fill="#D82946"/>
<path d="M95.5318 60.1531C95.0516 60.15 95.112 59.5955 96.0661 59.4616C96.4306 59.4107 97.1742 59.366 97.6263 59.3671C96.4827 56.6081 95.9879 56.1159 94.8902 53.3518C94.8527 53.2521 94.9902 53.1794 95.0464 53.2614C96.8909 55.821 97.193 56.9061 98.447 59.7243C98.6063 60.0742 96.0109 60.1562 95.5307 60.1542L95.5318 60.1531Z" fill="#D68983"/>
<path d="M91.1063 60.5228C91.0543 61.4708 90.07 62.1883 88.9077 62.125C87.7453 62.0617 86.8455 61.2413 86.8975 60.2933C86.9496 59.3453 87.9339 58.6277 89.0962 58.6911C90.2585 58.7544 91.1584 59.5747 91.1063 60.5228Z" fill="#EDA9A9"/>
<path d="M101.786 58.0234C101.851 58.9704 101.481 59.7679 100.96 59.8022C100.439 59.8375 99.9656 59.0981 99.901 58.1501C99.8364 57.2031 100.206 56.4056 100.727 56.3714C101.248 56.3361 101.722 57.0754 101.786 58.0234Z" fill="#EDA9A9"/>
<path d="M76.4084 57.3464C76.3834 57.3495 76.3854 57.3838 76.4084 57.389C77.5655 57.6112 78.3237 58.4907 78.9205 59.4398C78.5237 59.1075 78.0477 58.9756 77.5905 59.4574C77.5665 59.4823 77.6019 59.5208 77.6311 59.5083C78.0519 59.3287 78.3831 59.3421 78.7487 59.635C79.007 59.8416 79.2121 60.1272 79.4194 60.3836C79.4882 60.4688 79.6517 60.3836 79.5933 60.2819C79.5892 60.2746 79.584 60.2663 79.5798 60.259C79.3392 58.8936 77.9029 57.1969 76.4084 57.3474V57.3464Z" fill="#D68983"/>
<path d="M103.177 50.896C103.177 50.896 104.309 54.8356 104.067 56.036C104.056 56.092 104.042 56.1471 104.027 56.199C103.715 57.2519 102.605 57.4118 101.76 57.6704C100.875 57.9424 100.271 57.5105 100.271 57.5105C99.1418 56.8594 97.9492 57.4949 95.6068 59.0182C93.2644 60.5415 86.7091 61.6868 84.9052 61.3078C83.1012 60.9278 81.7316 55.9716 81.6952 54.9529C81.6587 53.9343 83.3189 53.0299 83.3189 53.0299C83.3189 53.0299 86.682 51.166 90.5231 49.4059C93.3061 48.1318 98.1711 48.0519 100.599 48.7808C100.762 48.8296 100.915 48.8826 101.055 48.9387C102.915 49.6863 103.175 50.895 103.175 50.895L103.177 50.896Z" fill="#2455BE"/>
<path d="M103.177 50.896C103.177 50.896 104.309 54.8356 104.067 56.036C104.056 56.092 104.042 56.1471 104.026 56.199C103.534 56.5448 102.676 56.7774 101.934 56.8978C100.891 57.0671 100.964 56.7005 100.049 56.5323C99.1334 56.3641 96.3744 58.527 94.584 59.1469C92.7936 59.7669 87.5027 60.8312 86.2955 59.6194C85.0884 58.4076 84.2812 54.7328 84.2812 54.7328C84.1115 53.5927 85.3665 52.7339 87.6902 51.6696C89.6336 50.7797 91.2803 49.4932 94.1726 48.8795C97.043 48.27 100.544 48.7736 100.599 48.7819C100.762 48.8307 100.915 48.8836 101.055 48.9397C102.915 49.6873 103.175 50.896 103.175 50.896H103.177Z" fill="#2F71FB"/>
<path d="M103.633 55.0132C103.647 55.2468 103.485 55.468 103.237 55.549C102.082 55.929 101.009 55.6217 100.774 55.5292C100.51 55.4264 99.8645 55.2374 98.9803 55.8034C98.897 55.8563 98.8064 55.9103 98.7105 55.9633C97.7846 56.4814 96.3588 56.9944 96.3588 56.9944C96.2859 57.0172 96.2119 57.0401 96.138 57.0619C95.7328 57.1844 95.3235 57.2986 94.9163 57.4056C94.4517 57.5271 93.9893 57.6382 93.5373 57.7399C91.3511 58.2301 89.4232 58.4896 88.7348 58.5738C88.5473 58.5966 88.3619 58.5499 88.2182 58.446C86.8226 57.4357 86.5257 55.198 86.8069 54.2406C87.0007 53.5792 87.5527 53.1119 87.912 52.8679C88.1026 52.7381 88.2401 52.6706 88.2401 52.6706C88.2401 52.6706 88.5202 52.5418 88.9983 52.3393C89.2983 52.2127 89.6763 52.0569 90.1117 51.8845C90.8699 51.5865 91.8031 51.2418 92.804 50.923C93.7258 50.6291 94.7048 50.3571 95.6589 50.1619C98.021 49.6801 100.281 49.9168 101.507 50.1224C102.075 50.2179 102.545 50.5596 102.762 51.0372C103.413 52.4723 103.587 54.2531 103.633 55.0121V55.0132Z" fill="#05086B"/>
<path d="M83.8147 60.5166C83.8147 60.5166 79.6204 62.2984 74.4472 61.4812C73.9306 61.3992 73.5452 60.9786 73.5515 60.4823C73.5567 60.0368 73.6598 59.6568 73.7983 59.3453C73.9681 58.9632 74.3711 58.7212 74.8086 58.7357C76.7167 58.7981 79.2351 58.5177 82.2732 57.3755C82.6461 58.498 83.1793 59.7315 83.8147 60.5176V60.5166Z" fill="#05086B"/>
<path d="M98.7096 55.9643C97.7836 56.4825 96.3578 56.9954 96.3578 56.9954C96.2849 57.0183 96.2109 57.0411 96.137 57.0629L90.1107 51.8856C90.8689 51.5876 91.8022 51.2428 92.8031 50.924L98.7085 55.9654L98.7096 55.9643Z" fill="#7B98DA"/>
<path d="M94.9162 57.4066C94.4517 57.5281 93.9893 57.6392 93.5373 57.741L87.912 52.8689C88.1026 52.7391 88.2401 52.6716 88.2401 52.6716C88.2401 52.6716 88.5202 52.5429 88.9983 52.3404L94.9162 57.4077V57.4066Z" fill="#7B98DA"/>
<path d="M83.7507 61.0676C83.8307 58.7837 81.9495 56.8644 79.5488 56.7808C77.1482 56.6973 75.1372 58.481 75.0572 60.7649C74.9772 63.0488 76.8585 64.9681 79.2591 65.0517C81.6598 65.1352 83.6707 63.3515 83.7507 61.0676Z" fill="#2455BE"/>
<path d="M82.3881 61.0293C82.4431 59.4675 81.1567 58.1549 79.5149 58.0975C77.8731 58.04 76.4975 59.2595 76.4426 60.8213C76.3876 62.383 77.674 63.6957 79.3158 63.7531C80.9576 63.8106 82.3331 62.5911 82.3881 61.0293Z" fill="#05086B"/>
<path d="M125.835 104.071C125.759 103.886 125.705 103.65 125.644 103.443C125.216 101.977 124.875 100.491 124.535 99.087C123.311 94.0322 120.655 84.0576 120.679 84.0441C120.938 85.0409 121.573 85.9152 122.571 86.3503C123.62 86.8082 124.826 86.7698 126.055 86.5165C127.345 86.2496 128.643 85.7034 129.965 84.9007C132.413 83.4148 134.246 81.3537 135.338 79.3776C135.888 78.3808 136.319 77.3601 136.434 76.1805C136.515 75.3352 136.391 74.1972 135.694 73.3239C135.697 73.3208 135.701 73.3177 135.705 73.3156C135.737 73.3031 135.755 73.3405 135.773 73.3769C136.713 74.816 137.95 76.0569 138.678 77.5843C139.43 79.1637 139.035 80.3392 138.439 81.634C137.874 82.8593 137.134 84.014 136.091 85.1074C135.171 86.071 134.188 86.9827 132.946 87.8279C132.751 87.9608 132.503 88.074 132.391 88.209C132.318 88.2973 132.275 88.642 132.246 88.8943C132.162 89.6004 132.128 90.4529 132.086 91.0251C131.872 93.9512 132.139 96.8182 132.441 99.8233C132.486 100.273 132.522 100.783 132.547 101.302C132.62 102.812 132.608 104.25 131.233 105.292C130.196 106.079 129.06 106.224 128.164 106.03C127.373 105.858 126.349 105.313 125.837 104.07L125.835 104.071Z" fill="#62CADE"/>
<path d="M122.571 86.3503C123.62 86.8082 124.826 86.7698 126.055 86.5165C127.345 86.2496 128.643 85.7034 129.965 84.9007C132.413 83.4148 134.246 81.3537 135.338 79.3776C135.888 78.3808 136.319 77.3601 136.434 76.1805C136.515 75.3352 136.391 74.1972 135.694 73.3239C135.523 73.11 135.318 72.9106 135.073 72.7372C133.662 71.7341 131.784 71.8047 129.897 72.4278C129.252 72.6406 128.606 72.9387 127.856 73.3177C124.933 74.7963 122.704 77.2759 121.595 79.3434C121.049 80.3599 120.568 81.6932 120.546 82.9164C120.54 83.2985 120.586 83.6796 120.681 84.0441C120.94 85.0409 121.575 85.9152 122.573 86.3503H122.571ZM123.611 82.2788C123.552 82.0514 123.523 81.8126 123.528 81.5738C123.542 80.8095 123.843 79.9757 124.184 79.3402C124.877 78.0485 126.27 76.4972 128.097 75.5741C128.566 75.3363 128.97 75.1504 129.373 75.0175C130.553 74.6281 131.726 74.5834 132.609 75.2106C132.762 75.3197 132.89 75.4443 132.998 75.5782C133.434 76.1244 133.511 76.8357 133.46 77.3642C133.389 78.1015 133.12 78.739 132.776 79.3631C132.094 80.5977 130.948 81.8863 129.417 82.8157C128.591 83.3172 127.78 83.6589 126.972 83.826C126.205 83.9849 125.451 84.0088 124.795 83.7222C124.172 83.4501 123.774 82.9029 123.611 82.2799V82.2788Z" fill="#69DFE6"/>
<path d="M138.677 77.5843C139.429 79.1637 139.034 80.3392 138.438 81.634C137.873 82.8593 137.132 84.014 136.09 85.1074C135.17 86.071 134.187 86.9827 132.945 87.8279C132.75 87.9608 132.502 88.074 132.39 88.209C132.316 88.2973 132.274 88.642 132.245 88.8943C132.161 89.6004 132.127 90.4529 132.085 91.0251C131.871 93.9512 132.138 96.8182 132.44 99.8232C132.485 100.273 132.521 100.783 132.546 101.302C132.619 102.812 132.607 104.25 131.232 105.292C130.195 106.079 129.059 106.224 128.163 106.03C127.566 105.901 126.837 105.559 126.295 104.866C126.916 105.246 127.62 105.429 128.374 105.108C129.259 104.729 129.777 103.897 130.078 103.271C130.415 102.571 130.595 101.808 130.733 101.126C131.044 99.6021 131.096 98.1016 131.104 96.6001C131.122 93.4133 130.945 90.373 130.478 87.1519C134.14 84.9246 136.35 82.2975 137.589 79.4399C137.931 78.6476 138.205 77.8232 138.355 76.979C138.471 77.1763 138.579 77.3777 138.678 77.5843H138.677Z" fill="#3AB3CE"/>
<path d="M140.652 93.8713C140.993 95.2347 133.535 96.0571 133.535 96.0571C133.535 96.0571 134.461 96.3551 134.898 97.1795C135.399 98.1234 134.135 99.3207 134.135 99.3207C134.135 99.3207 135.01 99.816 135.385 100.733C135.773 101.684 134.67 103.073 134.67 103.073C134.67 103.073 134.902 102.879 134.655 103.903C134.233 105.654 131.543 106.342 129.962 107.097C128.268 107.905 120.761 109.12 119.489 109.69L113.83 104.505C113.83 104.505 124.568 95.0685 127.606 94.1963C129.291 93.7124 140.132 91.7893 140.654 93.8723L140.652 93.8713Z" fill="#FFD0CF"/>
<path d="M133.497 96.0249C131.581 95.9418 129.649 96.3156 127.789 96.6967C127.747 96.705 127.762 96.7694 127.803 96.7611C129.648 96.3603 131.646 96.4423 133.504 96.1152C133.555 96.1059 133.549 96.027 133.497 96.0249Z" fill="#EDA9A9"/>
<path d="M134.052 99.193C133.617 99.1867 133.183 99.3238 132.766 99.4318C132.318 99.5471 131.872 99.6706 131.427 99.8004C130.538 100.061 129.653 100.341 128.778 100.649C128.74 100.662 128.75 100.725 128.792 100.713C129.679 100.455 130.571 100.211 131.468 99.9894C131.917 99.8793 132.367 99.7724 132.818 99.6685C133.237 99.572 133.687 99.5055 134.078 99.3176C134.135 99.2895 134.117 99.195 134.052 99.194V99.193Z" fill="#EDA9A9"/>
<path d="M134.631 103.083C134.254 103.063 133.84 103.247 133.485 103.359C133.082 103.486 132.679 103.611 132.274 103.734C131.466 103.979 130.656 104.224 129.84 104.441C129.799 104.452 129.813 104.516 129.853 104.505C130.685 104.289 131.518 104.084 132.347 103.86C132.754 103.75 133.16 103.638 133.566 103.524C133.911 103.426 134.354 103.344 134.644 103.123C134.661 103.111 134.65 103.084 134.631 103.084V103.083Z" fill="#EDA9A9"/>
<path d="M113.574 104.518C113.574 104.518 113.576 104.521 113.577 104.523V104.521C113.577 104.521 113.575 104.52 113.575 104.519L113.574 104.518Z" fill="white"/>
<path d="M114.074 106.579L113.324 104.613L113.445 104.561L113.549 104.529L113.445 104.561L113.5 104.537L113.315 104.574L113.518 104.53L113.312 104.553L113.311 104.542L113.526 104.526L113.598 104.496L113.772 104.339L113.813 104.384L113.843 104.498L114.074 106.579Z" fill="black"/>
<path d="M113.403 104.726L113.358 104.682L113.31 104.634V104.524H113.535L113.676 104.408L113.75 104.323L113.796 104.366L113.844 104.414V104.524H113.612L113.544 104.562L113.403 104.726Z" fill="black"/>
<path d="M126.243 118.041C126.243 118.041 95.0028 132.238 88.2943 128.577C82.694 125.522 74.4785 109.66 72.1892 96.7631V96.7611C71.7351 94.2046 71.5143 91.7654 71.5935 89.5651C72.033 77.2251 79.4841 72.4205 85.0291 83.2362C91.3481 95.5617 95.5892 110.149 95.5892 110.149L119.605 97.354L126.244 118.041H126.243Z" fill="#D1FFC0"/>
<path d="M126.243 118.041C126.243 118.041 95.0028 132.238 88.2943 128.577C82.694 125.522 74.4785 109.66 72.1892 96.7632C72.2902 96.9719 85.2687 123.759 91.12 125.068C96.9952 126.383 119.177 117.892 120.375 115.264C121.574 112.636 119.604 97.3529 119.604 97.3529L126.243 118.039V118.041Z" fill="#A5DF8F"/>
<path d="M95.5881 110.15L91.7365 112.973C91.7365 112.973 89.9066 98.5429 85.0281 83.2383C91.347 95.5638 95.5881 110.151 95.5881 110.151V110.15Z" fill="#F8FFF5"/>
<path d="M198.531 201.219L199.735 203.954L239.969 188.788C240.792 188.478 241.224 187.575 240.951 186.741C240.79 186.248 240.573 185.678 240.284 185.091C239.337 183.161 237.628 181.048 234.664 180.941C229.154 180.742 211.965 180.34 211.965 180.34C211.965 180.34 210.26 180.713 209.957 182.15C209.655 183.587 208.511 188.001 204.754 188.806C200.995 189.612 199.113 188.944 199.113 188.944C199.113 188.944 196.829 188.639 197.193 190.53C197.557 192.42 198.533 201.221 198.533 201.221L198.531 201.219Z" fill="#D1FFC0"/>
<path d="M198.568 201.302L199.735 203.954L239.892 188.816C240.759 188.489 241.217 187.54 240.925 186.664C240.766 186.189 240.557 185.647 240.283 185.089L198.568 201.301V201.302Z" fill="#A5DF8F"/>
<path d="M216.117 187.42L215.45 194.582L216.012 194.634L216.679 187.472L216.117 187.42Z" fill="white"/>
<path d="M221.311 187.324L221.009 192.433L221.573 192.467L221.874 187.357L221.311 187.324Z" fill="white"/>
<path d="M115.572 169.806L113.35 171.564L136.971 204.625C137.455 205.303 138.387 205.479 139.089 205.028C139.501 204.764 139.973 204.427 140.443 204.022C141.986 202.694 143.514 200.625 142.898 197.894C141.754 192.818 137.98 177.034 137.98 177.034C137.98 177.034 137.227 175.568 135.835 175.638C134.443 175.709 130.115 175.73 128.47 172.494C126.825 169.258 126.984 167.379 126.984 167.379C126.984 167.379 126.713 165.221 125.065 166.009C123.417 166.797 115.572 169.809 115.572 169.809V169.806Z" fill="#D1FFC0"/>
<path d="M115.504 169.859L113.35 171.563L136.926 204.562C137.435 205.274 138.418 205.463 139.152 204.986C139.549 204.727 139.997 204.405 140.443 204.021L115.504 169.859Z" fill="#A5DF8F"/>
<path d="M132.454 182.56L125.717 183.676L125.805 184.202L132.542 183.085L132.454 182.56Z" fill="white"/>
<path d="M133.809 187.265L129.045 188.22L129.15 188.742L133.914 187.787L133.809 187.265Z" fill="white"/>
<path d="M166.389 83.8219C166.313 83.637 166.259 83.4003 166.198 83.1937C165.77 81.7275 165.429 80.2416 165.089 78.8377C163.865 73.7829 161.208 63.8082 161.232 63.7947C161.492 64.7916 162.127 65.6659 163.125 66.101C164.174 66.5589 165.38 66.5205 166.609 66.2671C167.899 66.0002 169.197 65.454 170.52 64.6514C172.968 63.1655 174.801 61.1043 175.893 59.1283C176.443 58.1314 176.874 57.1107 176.989 55.9311C177.07 55.0859 176.946 53.9478 176.249 53.0745C176.252 53.0714 176.256 53.0683 176.259 53.0662C176.292 53.0538 176.309 53.0911 176.328 53.1275C177.268 54.5667 178.505 55.8075 179.233 57.335C179.985 58.9143 179.59 60.0898 178.993 61.3846C178.429 62.6099 177.688 63.7636 176.646 64.858C175.726 65.8216 174.743 66.7333 173.5 67.5786C173.306 67.7115 173.058 67.8247 172.946 67.9596C172.872 68.0479 172.83 68.3926 172.801 68.645C172.717 69.3511 172.683 70.2036 172.64 70.7768C172.426 73.7029 172.694 76.5699 172.995 79.5749C173.041 80.0245 173.076 80.5344 173.102 81.0536C173.174 82.5634 173.163 84.0015 171.788 85.044C170.751 85.8311 169.615 85.9755 168.719 85.7813C167.928 85.61 166.903 85.0648 166.393 83.8219H166.389Z" fill="#62CADE"/>
<path d="M163.125 66.1009C164.174 66.5589 165.38 66.5204 166.609 66.2671C167.899 66.0002 169.197 65.454 170.52 64.6514C172.968 63.1655 174.801 61.1043 175.893 59.1282C176.443 58.1314 176.874 57.1107 176.989 55.9311C177.07 55.0859 176.946 53.9478 176.249 53.0745C176.078 52.8606 175.873 52.6612 175.628 52.4878C174.217 51.4848 172.339 51.5554 170.452 52.1784C169.807 52.3913 169.16 52.6893 168.411 53.0683C165.488 54.5469 163.259 57.0266 162.15 59.094C161.604 60.1106 161.123 61.4438 161.101 62.667C161.095 63.0492 161.141 63.4302 161.235 63.7947C161.495 64.7916 162.13 65.6659 163.128 66.1009H163.125ZM123.611 82.2788C123.552 82.0514 123.523 81.8126 123.528 81.5738C123.542 80.8095 123.843 79.9757 124.184 79.3402C124.877 78.0485 126.27 76.4972 128.097 75.5741C128.566 75.3363 128.97 75.1504 129.373 75.0175C130.553 74.6281 131.726 74.5834 132.609 75.2106C132.762 75.3196 132.89 75.4443 132.998 75.5782C133.434 76.1244 133.511 76.8357 133.46 77.3642C133.389 78.1015 133.119 78.739 132.776 79.3631C132.094 80.5977 130.948 81.8863 129.417 82.8157C128.591 83.3172 127.78 83.6589 126.972 83.826C126.205 83.9849 125.451 84.0088 124.795 83.7222C124.172 83.4501 123.774 82.9039 123.611 82.2799V82.2788ZM164.165 62.0295C164.106 61.801 164.077 61.5632 164.081 61.3244C164.094 60.5602 164.396 59.7264 164.737 59.0909C165.43 57.7991 166.823 56.2478 168.65 55.3247C169.119 55.0869 169.524 54.901 169.927 54.7681C171.106 54.3787 172.28 54.3341 173.163 54.9612C173.316 55.0703 173.444 55.1949 173.551 55.3278C173.988 55.874 174.065 56.5853 174.014 57.1138C173.942 57.8511 173.673 58.4886 173.33 59.1127C172.647 60.3473 171.502 61.6359 169.971 62.5653C169.145 63.0668 168.333 63.4084 167.526 63.5746C166.759 63.7334 166.005 63.7563 165.348 63.4707C164.726 63.1987 164.328 62.6525 164.165 62.0284V62.0295Z" fill="#69DFE6"/>
<path d="M179.23 57.335C179.982 58.9143 179.587 60.0898 178.99 61.3846C178.426 62.6099 177.685 63.7636 176.643 64.858C175.723 65.8216 174.74 66.7333 173.497 67.5785C173.303 67.7115 173.055 67.8246 172.943 67.9596C172.869 68.0479 172.827 68.3926 172.797 68.645C172.714 69.3511 172.68 70.2036 172.637 70.7767C172.423 73.7029 172.691 76.5698 172.992 79.5749C173.038 80.0245 173.072 80.5344 173.098 81.0536C173.171 82.5634 173.16 84.0015 171.785 85.044C170.748 85.8311 169.611 85.9755 168.716 85.7813C168.119 85.6525 167.39 85.3109 166.848 84.6173C167.468 84.9973 168.173 85.1811 168.927 84.8592C169.811 84.4802 170.33 83.6485 170.631 83.0223C170.968 82.3224 171.148 81.5592 171.286 80.8781C171.597 79.3537 171.649 77.8533 171.657 76.3518C171.675 73.165 171.498 70.1246 171.031 66.9036C174.693 64.6763 176.903 62.0482 178.142 59.1916C178.484 58.3993 178.757 57.5759 178.908 56.7306C179.024 56.9279 179.132 57.1294 179.231 57.336L179.23 57.335Z" fill="#3AB3CE"/>
<path fill-rule="evenodd" clip-rule="evenodd" d="M174.563 79.5822C175.108 79.2727 175.675 78.8802 175.8 78.44C176.196 77.0382 174.898 76.114 173.556 75.8471C174.437 75.3248 175.399 74.2501 174.812 73.301C174.516 72.8234 174.057 72.7881 173.263 72.6261C174.196 71.0052 173.02 69.6927 170.975 69.9845C169.796 70.1527 168.338 70.7622 167.174 71.5171C165.983 72.2897 164.816 73.4537 165.17 74.2501C165.362 74.6779 165.92 74.8306 166.471 74.8306C165.582 75.1556 164.519 76.0839 164.982 76.9644C165.233 77.4431 165.997 77.521 166.675 77.4867C165.855 77.8169 165.163 78.3133 165.281 78.9124C165.438 79.7276 166.777 79.9757 167.67 80.0225C166.071 80.2955 165.654 81.5239 166.614 82.3505C167.63 83.2238 171.495 84.0929 173.755 83.5176C176.223 82.8873 176.584 80.5583 174.564 79.5801L174.563 79.5822Z" fill="#FFD0CF"/>
<path fill-rule="evenodd" clip-rule="evenodd" d="M166.17 77.7069C166.999 77.3756 168.978 76.4577 170.871 76.2313C172.342 76.0538 173.844 75.9759 174.66 76.2168C173.129 75.195 168.211 75.9136 166.17 77.7069Z" fill="#EDA9A9"/>
<path fill-rule="evenodd" clip-rule="evenodd" d="M170.787 79.3517C169.48 79.4565 167.543 79.8169 166.826 80.2924C169.971 79.5656 173.39 79.4773 175.152 79.9446C174.481 79.2125 172.666 79.199 170.787 79.3527V79.3517Z" fill="#EDA9A9"/>
<path fill-rule="evenodd" clip-rule="evenodd" d="M166.019 75.0258C167.571 74.3664 169.965 72.6438 174.311 72.8898C172.473 72.001 167.987 73.1557 166.019 75.0258Z" fill="#EDA9A9"/>
<path d="M161.972 72.0218C161.506 72.1848 161.168 72.5897 161.095 73.0757C160.919 74.2511 160.809 76.4888 162.47 76.7277C163.382 76.8595 166.123 76.1244 166.123 76.1244C166.123 76.1244 169.173 77.982 170.37 77.2303C172.128 76.1244 170.658 74.6644 169.052 73.8057C167.584 73.0207 164.642 71.0862 161.972 72.0218Z" fill="#FFD0CF"/>
<path d="M119.884 120.615L119.521 121.119L198.778 177.982L199.141 177.478L119.884 120.615Z" fill="#7A8EFE"/>
<path d="M166.091 143.959L165.573 143.614C171.393 134.955 174.109 126.951 175.361 121.76C176.718 116.135 176.698 112.511 176.697 112.475L177.32 112.469C177.333 113.732 177.069 117.325 175.972 121.88C174.709 127.125 171.969 135.214 166.091 143.959Z" fill="#7A8EFE"/>
<path d="M119.604 97.355C119.513 97.4516 113.843 103.665 107.986 106.554C102.747 109.139 97.1369 110.14 95.5881 110.15C98.9418 109.722 119.428 97.4453 119.604 97.355Z" fill="#A5DF8F"/>
<path d="M123.611 82.2788C123.552 82.0514 123.523 81.8126 123.528 81.5738C123.542 80.8095 123.843 79.9757 124.184 79.3402C124.877 78.0485 126.27 76.4972 128.097 75.574C128.566 75.3362 128.97 75.1504 129.373 75.0175C130.553 74.6281 131.726 74.5834 132.609 75.2106C132.762 75.3196 132.89 75.4442 132.998 75.5782C133.434 76.1244 133.511 76.8357 133.46 77.3642C133.389 78.1014 133.119 78.739 132.776 79.3631C132.094 80.5977 130.948 81.8863 129.417 82.8157C128.591 83.3172 127.78 83.6588 126.972 83.826C126.205 83.9849 125.451 84.0088 124.795 83.7222C124.172 83.4501 123.774 82.9039 123.611 82.2799V82.2788Z" fill="#B4FFFF"/>
<path d="M164.164 62.0295C164.105 61.8021 164.076 61.5632 164.081 61.3244C164.094 60.5602 164.395 59.7264 164.737 59.0909C165.43 57.7991 166.823 56.2478 168.65 55.3247C169.119 55.0869 169.523 54.901 169.926 54.7681C171.106 54.3787 172.28 54.3341 173.162 54.9612C173.315 55.0703 173.443 55.1949 173.55 55.3288C173.987 55.875 174.064 56.5863 174.013 57.1148C173.942 57.8521 173.672 58.4896 173.329 59.1137C172.646 60.3483 171.501 61.637 169.97 62.5663C169.144 63.0678 168.332 63.4095 167.525 63.5767C166.758 63.7355 166.004 63.7594 165.347 63.4728C164.725 63.2008 164.327 62.6546 164.164 62.0305V62.0295Z" fill="#B4FFFF"/>
<path d="M104.235 30.4556C131.234 32.5199 161.507 34.8344 188.509 36.8976C198.641 37.6733 199.846 22.0073 189.713 21.2327C162.712 19.1695 132.439 16.8539 105.44 14.7906C95.3068 14.015 94.1028 29.6809 104.235 30.4545V30.4556Z" fill="#3071FF"/>
<path d="M137.343 21.8256L129.426 21.2192L128.923 27.7475L136.841 28.3518L137.343 21.8256Z" fill="#2408BE"/>
<path d="M110.973 19.8097L110.47 26.3364L118.388 26.9424L118.89 20.4157L110.973 19.8097Z" fill="#2408BE"/>
<path d="M155.798 23.2357L147.88 22.6314L147.378 29.1576L155.295 29.764L155.798 23.2357Z" fill="#2408BE"/>
<path d="M120.199 20.5159L119.698 27.0427L127.616 27.6473L128.117 21.1205L120.199 20.5159Z" fill="#2408BE"/>
<path d="M138.656 21.927L138.154 28.4538L146.071 29.0597L146.573 22.533L138.656 21.927Z" fill="#2408BE"/>
<path d="M109.662 19.7094L105.089 19.3605C102.366 19.1518 101.897 21.4113 101.822 22.3936C101.746 23.3749 101.864 25.679 104.587 25.8878L109.16 26.2366L109.662 19.7094Z" fill="#2408BE"/>
<path d="M157.106 23.3371L156.604 29.8639L164.523 30.4686L165.024 23.9418L157.106 23.3371Z" fill="#2408BE"/>
<path d="M189.362 25.8026L184.787 25.4537L184.285 31.9809L188.859 32.3309C191.581 32.5375 192.052 30.278 192.127 29.2967C192.202 28.3165 192.084 26.0103 189.362 25.8026Z" fill="#2408BE"/>
<path d="M166.338 24.0432L165.836 30.5699L173.753 31.1759L174.256 24.6492L166.338 24.0432Z" fill="#2408BE"/>
<path d="M175.565 24.7482L175.063 31.2749L182.98 31.8809L183.482 25.3542L175.565 24.7482Z" fill="#2408BE"/>
<path d="M208.57 117.726C208.761 119.113 208.932 120.885 209.869 122.015C210.567 122.854 211.576 123.158 212.646 123.151C214.461 123.142 223.207 121.943 224.958 121.463C225.99 121.181 226.88 120.618 227.324 119.621C227.92 118.28 227.606 116.529 227.413 115.142C227.261 114.049 226.658 109.68 226.508 108.585C226.317 107.199 226.146 105.427 225.209 104.297C224.511 103.458 223.503 103.154 222.432 103.162C220.617 103.171 211.87 104.369 210.121 104.85C209.088 105.131 208.199 105.695 207.754 106.691C207.157 108.032 207.473 109.784 207.665 111.17C207.817 112.264 208.42 116.632 208.569 117.727L208.57 117.726Z" fill="#D1FFC0"/>
<path d="M208.57 117.726C208.519 117.354 208.414 116.597 208.295 115.723C209.138 121.004 210.75 121.815 213.826 121.409C214.767 121.284 215.708 121.161 216.648 121.036C218.626 120.772 220.606 120.509 222.575 120.186C223.586 120.021 224.674 119.808 225.363 118.994C225.911 118.346 225.878 117.396 225.829 116.605C225.723 114.912 225.478 113.222 225.244 111.543C225.023 109.941 224.773 108.34 224.477 106.751C224.323 105.925 224.11 105.091 223.632 104.385C223.188 103.728 222.469 103.39 221.711 103.195C222.007 103.173 222.253 103.161 222.432 103.161C223.502 103.153 224.51 103.457 225.209 104.296C226.146 105.426 226.317 107.198 226.508 108.584C226.658 109.68 227.261 114.048 227.413 115.141C227.605 116.528 227.92 118.279 227.324 119.62C226.88 120.617 225.99 121.18 224.958 121.462C223.208 121.942 214.462 123.141 212.646 123.15C211.575 123.157 210.567 122.853 209.869 122.014C208.932 120.885 208.761 119.112 208.57 117.725V117.726Z" fill="#A5DF8F"/>
<path d="M231.641 134.597C231.832 135.984 232.002 137.756 232.94 138.887C233.638 139.726 234.645 140.028 235.716 140.022C237.531 140.013 246.278 138.813 248.028 138.333C249.061 138.051 249.95 137.488 250.394 136.493C250.992 135.153 250.675 133.4 250.484 132.014C250.333 130.921 249.73 126.551 249.58 125.458C249.389 124.071 249.219 122.299 248.281 121.169C247.583 120.329 246.575 120.027 245.504 120.032C243.69 120.041 234.943 121.241 233.193 121.721C232.161 122.003 231.272 122.566 230.828 123.563C230.231 124.902 230.547 126.655 230.739 128.041C230.891 129.135 231.494 133.504 231.643 134.597H231.641Z" fill="#D1FFC0"/>
<path d="M231.641 134.597C231.591 134.225 231.485 133.469 231.365 132.593C232.208 137.876 233.819 138.686 236.896 138.28C237.837 138.156 238.778 138.032 239.718 137.908C241.696 137.643 243.675 137.379 245.645 137.058C246.657 136.893 247.744 136.679 248.433 135.865C248.983 135.218 248.95 134.269 248.9 133.478C248.791 131.784 248.548 130.095 248.315 128.416C248.093 126.814 247.842 125.214 247.548 123.624C247.394 122.798 247.181 121.964 246.703 121.257C246.259 120.601 245.54 120.264 244.782 120.067C245.08 120.047 245.326 120.033 245.503 120.032C246.575 120.027 247.582 120.329 248.28 121.169C249.218 122.299 249.388 124.071 249.579 125.458C249.729 126.551 250.332 130.921 250.483 132.014C250.674 133.4 250.991 135.153 250.393 136.493C249.95 137.488 249.06 138.052 248.027 138.333C246.277 138.813 237.531 140.013 235.715 140.022C234.644 140.028 233.637 139.726 232.939 138.887C232.002 137.756 231.831 135.984 231.639 134.597H231.641Z" fill="#A5DF8F"/>
<path d="M211.283 137.389C211.473 138.775 211.643 140.547 212.582 141.678C213.278 142.517 214.288 142.819 215.358 142.813C217.174 142.804 225.919 141.604 227.67 141.125C228.702 140.842 229.592 140.279 230.037 139.285C230.632 137.944 230.318 136.191 230.125 134.804C229.973 133.711 229.371 129.342 229.221 128.248C229.03 126.861 228.86 125.089 227.922 123.959C227.224 123.119 226.216 122.817 225.146 122.822C223.33 122.832 214.583 124.031 212.834 124.511C211.803 124.794 210.912 125.357 210.468 126.353C209.872 127.692 210.187 129.445 210.379 130.832C210.531 131.926 211.133 136.294 211.283 137.389Z" fill="#D1FFC0"/>
<path d="M211.283 137.389C211.232 137.016 211.128 136.26 211.007 135.385C211.852 140.667 213.463 141.478 216.537 141.071C217.478 140.947 218.419 140.824 219.36 140.699C221.337 140.434 223.318 140.171 225.286 139.849C226.297 139.683 227.386 139.471 228.074 138.655C228.623 138.007 228.59 137.059 228.541 136.268C228.435 134.574 228.189 132.885 227.957 131.206C227.735 129.604 227.485 128.004 227.189 126.413C227.035 125.587 226.822 124.753 226.345 124.046C225.902 123.391 225.182 123.053 224.423 122.857C224.721 122.836 224.966 122.822 225.145 122.821C226.215 122.816 227.223 123.119 227.921 123.958C228.859 125.088 229.029 126.86 229.22 128.247C229.37 129.34 229.973 133.71 230.124 134.803C230.317 136.189 230.631 137.942 230.036 139.284C229.591 140.278 228.701 140.841 227.669 141.124C225.919 141.603 217.173 142.803 215.357 142.812C214.287 142.818 213.277 142.516 212.581 141.677C211.642 140.546 211.472 138.774 211.282 137.388L211.283 137.389Z" fill="#A5DF8F"/>
<path d="M190.907 140.183C191.099 141.57 191.269 143.343 192.206 144.473C192.904 145.312 193.912 145.615 194.984 145.609C196.798 145.6 205.544 144.4 207.295 143.921C208.327 143.639 209.216 143.076 209.66 142.081C210.258 140.74 209.941 138.988 209.75 137.6C209.599 136.507 208.996 132.138 208.846 131.044C208.655 129.658 208.485 127.885 207.547 126.756C206.849 125.916 205.841 125.613 204.77 125.619C202.955 125.627 194.209 126.827 192.458 127.307C191.426 127.59 190.537 128.152 190.092 129.149C189.495 130.49 189.811 132.242 190.003 133.628C190.154 134.721 190.757 139.089 190.907 140.183Z" fill="#D1FFC0"/>
<path d="M190.907 140.183C190.857 139.81 190.752 139.054 190.631 138.18C191.475 143.462 193.086 144.272 196.163 143.866C197.104 143.741 198.045 143.619 198.986 143.493C200.962 143.228 202.942 142.965 204.912 142.643C205.923 142.478 207.009 142.265 207.7 141.451C208.248 140.803 208.215 139.854 208.166 139.062C208.058 137.368 207.815 135.679 207.582 134C207.36 132.398 207.109 130.798 206.814 129.208C206.658 128.384 206.447 127.548 205.969 126.843C205.526 126.187 204.807 125.849 204.048 125.654C204.346 125.632 204.591 125.62 204.769 125.619C205.839 125.613 206.848 125.916 207.546 126.756C208.483 127.884 208.654 129.658 208.845 131.044C208.995 132.138 209.598 136.507 209.749 137.6C209.94 138.988 210.257 140.74 209.659 142.081C209.215 143.076 208.326 143.639 207.294 143.921C205.543 144.4 196.797 145.6 194.983 145.609C193.911 145.615 192.903 145.312 192.205 144.473C191.268 143.344 191.097 141.57 190.906 140.183H190.907Z" fill="#A5DF8F"/>
<path d="M213.682 114.537L215.816 109.892C216.048 109.386 216.73 109.292 217.09 109.718L220.401 113.616C220.79 114.074 220.519 114.779 219.923 114.86L214.479 115.607C213.884 115.689 213.431 115.082 213.682 114.537Z" fill="#302E2D"/>
<path d="M222.631 129.774L220.498 134.419C220.266 134.926 219.584 135.019 219.223 134.593L215.912 130.695C215.524 130.237 215.795 129.532 216.391 129.451L221.836 128.705C222.431 128.623 222.883 129.229 222.632 129.774H222.631Z" fill="#302E2D"/>
<path d="M237.999 126.351L242.658 128.477C243.166 128.709 243.26 129.389 242.833 129.748L238.923 133.049C238.464 133.437 237.756 133.167 237.675 132.573L236.926 127.145C236.844 126.551 237.452 126.1 237.999 126.351Z" fill="#302E2D"/>
<path d="M201.093 138.237L196.434 136.11C195.926 135.879 195.832 135.199 196.259 134.839L200.169 131.537C200.628 131.15 201.335 131.42 201.416 132.014L202.165 137.442C202.248 138.035 201.639 138.486 201.093 138.236V138.237Z" fill="#302E2D"/>
</g>
<defs>
<clipPath id="clip0_2415_7958">
<rect width="300" height="213" fill="white"/>
</clipPath>
</defs>
</svg>
