<svg width="918" height="612" viewBox="0 0 918 612" fill="none" xmlns="http://www.w3.org/2000/svg">
<mask id="mask0_140_4521" style="mask-type:luminance" maskUnits="userSpaceOnUse" x="0" y="0" width="918" height="612">
<path d="M918 0H0V612H918V0Z" fill="white"/>
</mask>
<g mask="url(#mask0_140_4521)">
<path d="M918 0H0V612H918V0Z" fill="#C6DAF5"/>
<path d="M858.569 112.577C857.051 112.577 855.582 112.681 854.193 112.871C854.37 111.947 854.462 110.998 854.462 110.031C854.462 100.637 845.906 93.024 835.349 93.024C827.614 93.024 820.955 97.1183 817.944 103C816.096 102.345 814.064 101.984 811.928 101.984C805.808 101.984 800.52 104.958 797.999 109.285C796.383 108.912 794.639 108.703 792.815 108.703C784.633 108.703 778.005 112.932 778.005 117.994C778.005 123.055 784.639 127.284 792.815 127.284H858.562C867.13 127.284 874.077 123.918 874.077 119.928C874.077 115.937 867.13 112.571 858.562 112.571L858.569 112.577Z" fill="white"/>
<path d="M782.038 112.449C781.849 112.449 781.659 112.363 781.543 112.198C781.347 111.923 781.408 111.543 781.677 111.341C784.578 109.242 788.77 108.036 793.164 108.036C794.817 108.036 796.445 108.202 797.999 108.52C800.784 104.175 806.133 101.5 812.081 101.5C814.034 101.5 815.931 101.788 817.736 102.357C821.01 96.5247 827.822 92.7853 835.252 92.7853C836.518 92.7853 837.785 92.8894 839.015 93.1036C839.346 93.1587 839.572 93.4769 839.517 93.8074C839.462 94.1379 839.15 94.3643 838.813 94.3092C837.651 94.1073 836.451 94.0093 835.252 94.0093C828.079 94.0093 821.531 97.6875 818.569 103.385C818.428 103.654 818.11 103.777 817.822 103.679C815.998 103.049 814.064 102.724 812.069 102.724C806.384 102.724 801.304 105.331 798.807 109.524C798.672 109.75 798.403 109.866 798.146 109.805C796.549 109.444 794.866 109.26 793.152 109.26C789.009 109.26 785.08 110.38 782.381 112.333C782.271 112.412 782.148 112.449 782.026 112.449H782.038Z" fill="#5BA7D9"/>
<path d="M848.948 99.1379C848.801 99.1379 848.655 99.0828 848.532 98.9788C846.604 97.2101 844.205 95.8331 841.592 94.9946C841.268 94.8906 841.09 94.5479 841.194 94.2235C841.298 93.8992 841.641 93.7278 841.965 93.8257C844.744 94.7192 847.302 96.188 849.358 98.0791C849.609 98.3056 849.622 98.6972 849.395 98.942C849.273 99.0767 849.107 99.1379 848.942 99.1379H848.948Z" fill="#5BA7D9"/>
<path d="M858.232 127.908H854.964C854.627 127.908 854.352 127.633 854.352 127.296C854.352 126.959 854.627 126.684 854.964 126.684H858.232C866.916 126.684 872.969 123.085 872.969 119.854C872.969 116.304 866.084 113.189 858.232 113.189C856.763 113.189 855.331 113.202 853.985 113.385C853.789 113.41 853.593 113.342 853.458 113.202C853.324 113.061 853.263 112.859 853.299 112.663C853.465 111.788 853.556 110.858 853.556 109.976C853.556 107.222 852.92 104.976 851.488 102.687C851.31 102.4 851.396 102.02 851.684 101.843C851.971 101.665 852.345 101.751 852.528 102.039C854.064 104.499 854.786 107.02 854.786 109.976C854.786 110.668 854.737 111.384 854.64 112.082C855.808 111.978 857.008 111.965 858.232 111.965C867.033 111.965 874.193 115.503 874.193 119.854C874.193 124.205 866.88 127.908 858.232 127.908Z" fill="#5BA7D9"/>
<path d="M851.292 127.908H829.26C828.923 127.908 828.648 127.633 828.648 127.296C828.648 126.959 828.923 126.684 829.26 126.684H851.292C851.629 126.684 851.904 126.959 851.904 127.296C851.904 127.633 851.629 127.908 851.292 127.908Z" fill="#5BA7D9"/>
<path d="M824.976 127.908H821.304C820.967 127.908 820.692 127.633 820.692 127.296C820.692 126.959 820.967 126.684 821.304 126.684H824.976C825.312 126.684 825.588 126.959 825.588 127.296C825.588 127.633 825.312 127.908 824.976 127.908Z" fill="#5BA7D9"/>
<path d="M817.632 127.908H799.272C798.936 127.908 798.66 127.633 798.66 127.296C798.66 126.959 798.936 126.684 799.272 126.684H817.632C817.969 126.684 818.244 126.959 818.244 127.296C818.244 127.633 817.969 127.908 817.632 127.908Z" fill="#5BA7D9"/>
<path d="M796.212 127.908H793.164C790.625 127.908 788.422 127.529 786.016 126.678C785.698 126.568 785.533 126.213 785.643 125.895C785.753 125.576 786.102 125.411 786.426 125.521C788.697 126.323 790.772 126.678 793.164 126.678H796.212C796.549 126.678 796.824 126.953 796.824 127.29C796.824 127.627 796.549 127.902 796.212 127.902V127.908Z" fill="#5BA7D9"/>
<path d="M782.252 124.236C782.136 124.236 782.014 124.199 781.91 124.132C779.321 122.357 777.895 120.056 777.895 117.639C777.895 116.727 778.097 115.827 778.495 114.964C778.636 114.658 778.997 114.524 779.309 114.664C779.615 114.805 779.749 115.172 779.609 115.478C779.284 116.182 779.119 116.91 779.119 117.645C779.119 119.64 780.355 121.592 782.601 123.128C782.883 123.318 782.95 123.697 782.76 123.979C782.644 124.15 782.448 124.242 782.252 124.242V124.236Z" fill="#5BA7D9"/>
<path d="M850.962 114.009C850.698 114.009 850.46 113.838 850.374 113.575C850.276 113.251 850.46 112.908 850.778 112.81C852.541 112.271 853.765 112.094 853.813 112.088C854.15 112.039 854.456 112.271 854.505 112.608C854.554 112.945 854.321 113.251 853.985 113.3C853.973 113.3 852.798 113.471 851.139 113.979C851.078 113.997 851.017 114.003 850.962 114.003V114.009Z" fill="#5BA7D9"/>
<path d="M844.493 117.125C844.303 117.125 844.113 117.033 843.997 116.868C843.801 116.592 843.863 116.213 844.138 116.011C845.362 115.136 846.757 114.364 848.281 113.716C848.593 113.587 848.954 113.728 849.083 114.04C849.211 114.352 849.071 114.713 848.759 114.842C847.314 115.454 845.998 116.182 844.848 117.002C844.738 117.082 844.615 117.118 844.493 117.118V117.125Z" fill="#5BA7D9"/>
<path d="M840.998 120.552C840.876 120.552 840.747 120.515 840.643 120.435C840.368 120.24 840.307 119.854 840.503 119.579C840.784 119.187 841.096 118.801 841.421 118.434C841.647 118.183 842.033 118.159 842.284 118.385C842.534 118.612 842.559 118.997 842.332 119.248C842.033 119.585 841.751 119.934 841.488 120.295C841.365 120.46 841.182 120.546 840.992 120.546L840.998 120.552Z" fill="#5BA7D9"/>
<path d="M828.618 110.65C828.422 110.65 828.232 110.558 828.109 110.38C828.109 110.374 827.528 109.536 826.378 108.446C826.133 108.214 826.12 107.828 826.353 107.583C826.586 107.339 826.971 107.326 827.216 107.559C828.471 108.752 829.095 109.658 829.119 109.695C829.309 109.976 829.236 110.356 828.96 110.546C828.856 110.619 828.734 110.65 828.618 110.65Z" fill="#5BA7D9"/>
<path d="M823.924 106.353C823.807 106.353 823.691 106.323 823.593 106.255C821.843 105.117 819.915 104.254 817.871 103.691C817.547 103.599 817.351 103.263 817.443 102.938C817.534 102.614 817.871 102.418 818.195 102.51C820.362 103.104 822.4 104.022 824.26 105.227C824.542 105.411 824.621 105.79 824.438 106.072C824.321 106.249 824.126 106.353 823.924 106.353Z" fill="#5BA7D9"/>
<path d="M808.709 115.301C808.55 115.301 808.391 115.24 808.275 115.117C808.269 115.111 807.485 114.315 806.12 113.342C805.845 113.147 805.784 112.761 805.98 112.486C806.175 112.21 806.561 112.149 806.83 112.345C808.287 113.391 809.113 114.224 809.144 114.26C809.382 114.499 809.376 114.891 809.131 115.123C809.015 115.24 808.856 115.295 808.703 115.295L808.709 115.301Z" fill="#5BA7D9"/>
<path d="M803.819 111.806C803.721 111.806 803.623 111.782 803.532 111.733C801.781 110.809 799.976 110.16 798.17 109.805C797.84 109.738 797.62 109.419 797.687 109.089C797.754 108.758 798.073 108.538 798.403 108.606C800.325 108.979 802.24 109.67 804.101 110.65C804.401 110.809 804.511 111.176 804.358 111.476C804.248 111.684 804.033 111.8 803.819 111.8V111.806Z" fill="#5BA7D9"/>
<path d="M701.589 357.776C670.971 331.612 646.48 326.047 635.902 325.488C625.326 324.932 623.098 326.044 615.306 317.138C607.512 308.233 603.061 297.654 578.008 300.994C552.959 304.334 545.165 300.994 529.021 297.654C512.877 294.314 491.723 309.9 485.043 314.354C478.363 318.808 477.249 336.619 466.674 336.619C456.098 336.619 432.716 358.885 424.924 366.679C417.13 374.473 417.689 377.813 405.441 380.594C393.195 383.378 394.865 385.604 377.051 390.058C359.237 394.512 346.433 396.182 346.433 396.182L368.143 451.85L529.577 461.314L718.841 418.45L701.586 357.773L701.589 357.776Z" fill="#89A7D6"/>
<path d="M542.42 333.147C544.276 336.114 543.534 337.97 543.162 340.196C542.79 342.422 547.244 347.618 545.388 353.556C543.532 359.494 543.162 368.769 544.646 371.739C546.13 374.707 546.872 384.727 546.872 384.727C546.872 384.727 551.326 380.645 549.097 373.965C546.872 367.285 544.274 368.399 546.872 361.72C549.47 355.04 552.068 356.896 550.212 349.102C548.355 341.31 545.757 333.516 546.13 330.176C546.502 326.836 545.015 327.578 542.048 326.836C539.08 326.094 534.257 324.611 532.028 323.496C529.802 322.382 528.688 319.042 530.914 317.558C533.139 316.075 533.512 314.96 533.512 312.735C533.512 310.509 535.738 302.715 539.819 303.829C543.901 304.943 546.127 307.539 554.291 305.313C562.454 303.087 562.827 304.941 563.938 308.281C565.049 311.62 562.454 313.477 565.052 317.186C567.65 320.896 566.536 321.268 566.166 315.33C565.794 309.392 569.876 304.568 569.876 304.568C569.876 304.568 578.04 304.196 581.749 302.712C583.112 302.168 586.079 301.22 589.289 300.241C586.062 300.066 582.344 300.227 578.006 300.805C552.956 304.145 545.162 300.805 529.018 297.465C512.874 294.125 491.72 309.711 485.04 314.165C478.361 318.619 477.246 336.43 466.671 336.43C456.095 336.43 432.713 358.696 424.922 366.49C417.128 374.284 417.686 377.624 405.438 380.405C393.192 383.189 394.862 385.415 377.048 389.869C367.079 392.363 358.679 393.982 353.215 394.927L382.481 419.971L425.898 447.06L454.637 456.733L487.867 463.018C491.96 457.207 479.751 438.044 478.589 436.301C477.105 434.075 487.495 428.51 493.433 419.232C499.371 409.954 499.74 391.773 499.371 390.659C498.998 389.545 500.112 372.476 498.256 370.992C496.4 369.508 494.916 350.583 488.237 348.726C481.557 346.87 488.237 342.047 492.318 339.079C496.4 336.111 502.338 329.801 500.482 325.719C498.626 321.637 502.708 320.523 506.048 315.33C509.388 310.134 506.79 302.712 506.79 302.712C519.407 299.003 528.682 298.63 531.281 303.454C533.879 308.278 527.199 318.667 527.199 318.667C527.199 318.667 526.084 317.925 523.117 317.183C520.149 316.441 516.809 317.925 515.326 319.039C513.842 320.154 513.842 330.913 513.842 330.913C513.842 330.913 506.792 332.027 506.05 336.851C505.309 341.674 501.227 353.92 501.227 353.92C501.227 353.92 507.165 341.302 509.763 337.223C512.361 333.141 517.185 332.399 518.668 332.769C520.152 333.141 527.204 327.945 527.204 327.945C527.204 327.945 540.564 330.171 542.417 333.141L542.42 333.147Z" fill="#B0C8E9"/>
<path d="M244.196 284.719C255.885 273.585 263.121 278.595 266.461 285.833C269.801 293.069 278.151 302.533 289.84 302.533C301.53 302.533 308.766 314.223 323.798 324.243C338.828 334.263 349.404 350.962 354.416 358.756C359.426 366.55 370.002 367.106 391.156 375.456C412.309 383.806 432.349 399.391 442.369 408.855C452.389 418.319 465.748 418.319 480.778 427.225C495.808 436.131 508.053 449.49 508.053 449.49L245.307 450.605L244.196 284.719Z" fill="#89A7D6"/>
<path d="M500.366 449.524L500.592 442.184C495.616 437.654 488.572 431.84 480.781 427.225C465.751 418.319 452.391 418.319 442.371 408.855C432.352 399.391 412.312 383.806 391.158 375.456C370.004 367.106 359.429 366.55 354.419 358.756C349.409 350.962 338.833 334.263 323.801 324.243C308.771 314.223 301.536 302.533 289.843 302.533C278.15 302.533 269.803 293.069 266.464 285.833C263.124 278.598 255.888 273.588 244.198 284.719L244.235 290.183C259.033 289.032 261.205 294.302 264.672 300.542C268.382 307.221 269.868 309.82 268.012 313.529C266.156 317.238 262.447 326.516 263.558 330.971C264.672 335.425 268.382 344.33 265.784 351.38C263.186 358.429 264.669 359.543 264.669 359.543C264.669 359.543 273.947 352.863 270.235 343.958C266.526 335.052 267.637 330.971 268.379 326.516C269.121 322.062 273.945 314.643 276.543 315.385C279.141 316.127 289.902 317.611 288.416 323.176C286.932 328.742 296.207 333.938 296.207 333.938L297.321 344.327C297.321 344.327 299.547 343.586 299.547 337.648C299.547 331.71 301.773 323.546 304.371 323.546C306.969 323.546 318.842 335.419 315.132 346.181C311.423 356.942 337.025 372.156 338.881 375.868C340.738 379.577 338.881 387.741 340.365 389.597C341.849 391.453 363.742 394.051 365.97 406.297C368.196 418.542 368.329 426.855 368.329 426.855L366.461 450.094L500.363 449.527L500.366 449.524Z" fill="#7092C7"/>
<path d="M684.17 350.404C663.366 362.093 661.14 360.979 655.572 361.538C650.006 362.093 637.758 364.878 625.512 373.227C613.267 381.577 606.587 392.711 588.773 397.721C570.959 402.731 563.168 406.071 553.145 413.865C543.125 421.659 519.746 426.111 513.066 426.669C506.386 427.225 490.8 430.565 483.006 432.235C475.212 433.905 447.937 447.265 447.937 447.265L697.879 455.059L684.17 350.406V350.404Z" fill="#4F70A3"/>
<path d="M593.616 391.676C593.467 391.022 593.258 390.362 593.024 390.339C592.733 390.311 592.313 391.47 592.042 392.339C591.915 392.395 591.791 392.455 591.667 392.514C591.495 391.374 591.145 389.346 590.846 389.414C590.544 389.481 589.802 392.178 589.419 393.659C589.255 393.744 589.097 393.823 588.945 393.899C588.736 393.292 588.426 392.486 588.203 392.288C587.915 392.037 586.965 393.504 586.226 395.103C585.255 395.405 584.606 395.36 583.066 395.448C582.637 393.591 581.896 392.218 581.292 392.661C580.863 392.974 580.4 394.57 580.107 395.718C580.045 395.727 579.98 395.733 579.915 395.741C579.788 395.758 579.656 395.78 579.526 395.8C579.323 395.191 579.018 394.562 578.649 394.562C578.279 394.562 577.949 395.411 577.721 396.206C577.185 396.359 576.635 396.542 576.073 396.754C575.608 396.542 575.094 396.401 574.66 396.511C573.845 396.714 572.908 397.764 572.446 398.418C567.137 401.261 561.74 405.845 559.326 409.936C555.709 416.057 534.279 426.077 534.279 426.077C534.279 426.077 533.43 424.697 532.101 423.188L535.187 422.765C535.187 422.765 534.538 420.539 533.842 420.308C533.145 420.077 532.682 422.302 532.682 422.302C532.682 422.302 532.127 420.819 531.385 420.494C530.945 420.302 530.273 420.666 529.802 420.994C529.548 420.799 529.292 420.613 529.026 420.444C528.812 419.58 528.476 418.396 528.138 417.944C527.777 417.465 527.359 418.649 527.111 419.549C526.964 419.51 526.82 419.473 526.674 419.448C526.414 418.412 525.918 416.915 525.173 416.647C524.426 416.379 523.853 418.345 523.537 419.775C523.348 419.826 523.162 419.882 522.978 419.939C522.764 419.205 522.437 418.41 522.019 418.362C521.526 418.302 521.052 419.733 520.764 420.81C520.544 420.912 520.33 421.016 520.121 421.118C519.842 420.542 519.438 419.891 519.049 419.891C518.614 419.891 517.695 421.513 517.063 422.734C516.753 422.881 516.496 422.98 516.299 423.008C516.177 421.944 515.957 420.39 515.664 419.891C515.385 419.417 515.007 420.562 514.75 421.555C514.586 421.363 514.403 421.171 514.197 420.985C513.977 419.662 513.63 418.037 513.207 417.614C512.671 417.078 511.43 418.847 510.784 419.865C510.535 419.877 510.27 419.902 509.991 419.944C509.765 419.659 509.416 419.29 508.891 418.867C508.067 418.201 507.61 419.659 507.404 420.647C507.32 420.678 507.232 420.709 507.148 420.743C506.992 419.975 506.688 418.884 506.2 419.005C505.678 419.135 504.654 421.002 504.093 422.102C503.915 422.192 503.734 422.283 503.557 422.376C503.466 422.119 503.322 421.795 503.091 421.462C502.713 420.912 502.513 422.252 502.434 422.98C502.383 423.008 502.332 423.036 502.282 423.064C502.093 422.525 501.678 421.507 501.142 421.137C500.581 420.751 499.517 423.6 499.029 425.013C498.927 425.078 498.829 425.14 498.73 425.205C498.648 424.497 498.414 423.326 497.754 422.855C496.874 422.226 497.131 425.578 497.187 426.226C497.179 426.232 497.17 426.238 497.159 426.243C497.012 425.882 496.442 424.475 496.081 423.273C495.762 422.209 494.981 424.618 494.674 426.661C494.214 425.812 493.176 424.796 490.86 424.963C489.895 425.03 488.592 425.408 487.142 425.958C486.975 425.755 486.772 425.561 486.524 425.408C485.898 425.019 485.384 426.035 485.099 426.807C484.961 426.87 484.82 426.932 484.682 426.996C484.468 426.334 484.078 425.363 483.647 425.456C483.283 425.535 482.815 426.889 482.473 428.06C482.152 428.221 481.836 428.387 481.523 428.551C481.359 428.257 481.156 427.975 480.91 427.775C480.448 427.4 479.985 428.59 479.703 429.541C479.531 429.637 479.362 429.736 479.195 429.831C478.953 429.101 478.544 428.085 478.081 427.823C477.559 427.53 476.767 430.066 476.338 431.609C476.07 431.795 475.841 431.964 475.661 432.111C475.472 431.862 475.215 431.592 474.879 431.394C474.425 431.126 474.05 431.902 473.81 432.61C473.531 432.568 473.24 432.492 472.941 432.398C472.775 432.004 472.614 431.555 472.513 431.115C472.31 430.238 471.692 430.492 471.28 431.778C470.016 431.293 468.693 430.878 467.477 431.363C467.091 431.518 466.411 431.8 465.525 432.173C465.269 431.253 464.823 430.119 464.163 430.091C463.52 430.063 463.015 431.834 462.679 433.377C462.386 433.501 462.084 433.631 461.776 433.761C461.576 432.762 461.302 431.49 460.919 430.274C460.146 427.823 458.453 430.319 456.067 436.201C451.173 438.3 446.608 440.266 446.608 440.266L508.944 445.552L607.738 390.452C607.738 388.294 599.879 389.236 593.611 391.676H593.616Z" fill="#7A9451"/>
<path d="M575.63 433.013C591.216 433.013 590.101 418.542 592.699 413.346C595.298 408.15 599.007 414.088 605.687 405.555C612.367 397.019 625.354 399.989 626.466 400.359C627.58 400.731 623.867 408.522 620.158 411.121C616.449 413.719 622.756 420.398 622.756 420.398C622.756 420.398 623.128 417.058 623.498 412.977C623.87 408.895 628.322 410.379 629.064 402.957C629.805 395.535 628.691 397.761 642.423 393.679C656.153 389.597 659.123 386.257 656.525 378.466C653.927 370.675 662.832 366.593 662.832 366.593C662.832 366.593 669.512 371.416 668.77 377.724C668.029 384.031 668.77 383.662 671.368 385.515C673.967 387.371 668.401 395.535 668.401 395.535L674.339 388.486C674.339 388.486 672.113 381.064 672.483 379.58C672.852 378.096 677.306 367.335 673.967 364.737C671.4 362.739 665.326 361.622 659.453 361.21C658.141 361.366 656.962 361.399 655.574 361.541C650.009 362.096 637.76 364.88 625.515 373.23C613.269 381.58 606.59 392.714 588.776 397.724C570.962 402.734 563.17 406.074 553.148 413.868C543.128 421.662 519.748 426.114 513.069 426.672C506.389 427.228 490.803 430.568 483.009 432.238C478.391 433.228 466.939 438.32 458.369 442.305C476.781 442.305 527.238 442.052 531.475 439.324C536.671 435.984 560.048 433.016 575.633 433.016L575.63 433.013Z" fill="#7092C7"/>
<path d="M904.031 422.92C904.032 422.925 904.033 422.929 904.039 422.928C905.034 422.775 904.09 375.789 903.745 360.003C903.688 357.397 901.356 356.098 899.696 358.108C897.236 361.088 894.068 366.756 891.555 377.439C886.726 397.965 887.13 405.211 887.13 405.211C887.13 405.211 886.726 380.254 880.288 378.644C873.85 377.035 873.446 409.238 873.446 409.238C873.446 409.238 870.631 373.412 863.782 373.412C856.934 373.412 853.721 408.834 853.721 408.834C853.721 408.834 843.256 388.308 839.229 387.5C835.202 386.692 846.475 409.636 846.475 409.636C846.475 409.636 834.804 395.548 831.579 396.753C828.354 397.959 843.25 417.28 843.25 417.28C843.25 417.28 827.552 406.411 828.758 409.63C829.963 412.849 831.977 416.876 831.977 416.876C831.977 416.876 819.498 402.788 813.862 403.192C808.225 403.596 800.177 416.876 800.177 416.876C800.177 416.876 800.581 396.747 794.945 396.35C789.308 395.946 785.685 417.684 785.685 417.684C785.685 417.684 780.452 388.302 775.22 389.911C769.987 391.521 767.172 416.074 767.172 416.074C767.172 416.074 762.343 406.411 759.926 407.623C757.509 408.828 752.276 416.478 752.276 416.478C752.276 416.478 738.592 398.767 738.188 403.596C737.784 408.424 743.42 416.876 743.42 416.876C743.42 416.876 723.696 403.596 726.113 409.226C728.53 414.863 732.551 417.678 732.551 417.678C732.551 417.678 723.292 414.055 718.059 414.459C712.826 414.863 699.944 421.301 699.944 421.301C699.944 421.301 694.711 417.678 687.869 418.082C681.027 418.486 677 423.314 677 423.314L904.018 422.91C904.024 422.91 904.029 422.914 904.031 422.92Z" fill="#83A13F"/>
<path d="M683.965 419.459C683.708 419.459 683.469 419.293 683.383 419.036C683.279 418.718 683.451 418.369 683.775 418.265C685.097 417.831 686.462 417.568 687.839 417.488C688.175 417.476 688.463 417.727 688.487 418.063C688.506 418.4 688.249 418.688 687.912 418.712C686.639 418.785 685.379 419.03 684.161 419.428C684.099 419.446 684.032 419.459 683.971 419.459H683.965Z" fill="#F9E5B2"/>
<path d="M699.95 421.931C699.827 421.931 699.705 421.894 699.601 421.821C699.583 421.809 697.557 420.426 694.454 419.508C694.13 419.41 693.946 419.073 694.044 418.749C694.142 418.424 694.478 418.241 694.803 418.339C697.422 419.116 699.283 420.181 699.986 420.621C701.394 419.93 707.239 417.102 712.233 415.346C712.551 415.236 712.9 415.401 713.016 415.719C713.126 416.038 712.961 416.386 712.643 416.503C707.031 418.479 700.292 421.839 700.225 421.876C700.139 421.919 700.048 421.943 699.95 421.943V421.931Z" fill="#F9E5B2"/>
<path d="M716.462 415.334C716.18 415.334 715.929 415.138 715.862 414.85C715.789 414.52 716.003 414.195 716.333 414.122C716.964 413.987 717.527 413.896 718.016 413.859C718.965 413.785 720.103 413.834 721.401 414.006C721.737 414.049 721.97 414.361 721.927 414.691C721.884 415.028 721.578 415.26 721.242 415.218C720.036 415.058 718.983 415.009 718.114 415.077C717.68 415.107 717.172 415.187 716.597 415.315C716.554 415.328 716.511 415.328 716.468 415.328L716.462 415.334Z" fill="#F9E5B2"/>
<path d="M732.557 418.308C732.484 418.308 732.404 418.296 732.337 418.265C732.306 418.253 728.965 416.949 725.232 416.013C724.901 415.934 724.705 415.597 724.785 415.273C724.864 414.942 725.201 414.746 725.525 414.826C729.338 415.781 732.747 417.109 732.777 417.121C733.09 417.243 733.249 417.598 733.126 417.916C733.028 418.155 732.802 418.308 732.557 418.308Z" fill="#F9E5B2"/>
<path d="M733.677 411.46C733.573 411.46 733.475 411.435 733.377 411.38C731.988 410.597 730.758 409.96 729.736 409.483C729.43 409.342 729.295 408.975 729.436 408.669C729.577 408.363 729.944 408.228 730.25 408.369C731.303 408.859 732.557 409.514 733.977 410.309C734.271 410.475 734.375 410.848 734.21 411.142C734.1 411.344 733.892 411.454 733.677 411.454V411.46Z" fill="#F9E5B2"/>
<path d="M747.013 410.683C746.841 410.683 746.67 410.609 746.547 410.475C745.195 408.914 743.977 407.586 742.918 406.521C742.68 406.282 742.68 405.891 742.918 405.658C743.157 405.419 743.549 405.419 743.781 405.658C744.858 406.741 746.101 408.094 747.465 409.673C747.686 409.93 747.661 410.315 747.404 410.536C747.288 410.634 747.147 410.683 747 410.683H747.013Z" fill="#F9E5B2"/>
<path d="M750.936 415.395C750.758 415.395 750.581 415.315 750.458 415.162C749.92 414.489 749.246 413.663 748.494 412.757C748.279 412.5 748.31 412.109 748.573 411.894C748.836 411.68 749.222 411.717 749.436 411.974C750.195 412.886 750.874 413.718 751.413 414.397C751.627 414.661 751.584 415.046 751.315 415.26C751.205 415.352 751.064 415.395 750.936 415.395Z" fill="#F9E5B2"/>
<path d="M769.351 403.694C769.308 403.694 769.265 403.694 769.216 403.681C768.886 403.608 768.678 403.283 768.751 402.953C769.302 400.438 769.889 398.235 770.495 396.399C770.599 396.074 770.948 395.903 771.266 396.007C771.585 396.111 771.762 396.46 771.658 396.778C771.064 398.577 770.489 400.738 769.951 403.21C769.889 403.498 769.632 403.694 769.351 403.694Z" fill="#F9E5B2"/>
<path d="M772.968 392.751C772.864 392.751 772.754 392.727 772.656 392.665C772.362 392.494 772.27 392.121 772.441 391.827C773.261 390.438 774.112 389.624 775.042 389.336C775.495 389.195 775.96 389.214 776.425 389.397C776.738 389.52 776.897 389.875 776.774 390.193C776.652 390.505 776.297 390.664 775.979 390.542C775.777 390.462 775.593 390.45 775.403 390.511C774.798 390.695 774.137 391.368 773.5 392.451C773.384 392.647 773.182 392.751 772.974 392.751H772.968Z" fill="#F9E5B2"/>
<path d="M785.838 417.457C785.801 417.457 785.765 417.457 785.728 417.445C785.397 417.384 785.177 417.066 785.238 416.735C785.679 414.355 786.897 408.271 788.757 403.277C788.874 402.959 789.228 402.8 789.547 402.916C789.865 403.033 790.024 403.388 789.908 403.706C788.084 408.608 786.878 414.606 786.444 416.962C786.389 417.255 786.132 417.464 785.844 417.464L785.838 417.457Z" fill="#F9E5B2"/>
<path d="M791.866 398.969C791.744 398.969 791.615 398.932 791.505 398.853C791.23 398.657 791.169 398.271 791.371 397.996C792.025 397.096 792.705 396.454 793.39 396.099C793.69 395.946 794.057 396.062 794.216 396.362C794.369 396.662 794.253 397.029 793.953 397.188C793.433 397.457 792.901 397.971 792.356 398.718C792.234 398.883 792.05 398.969 791.86 398.969H791.866Z" fill="#F9E5B2"/>
<path d="M801.823 414.973C801.707 414.973 801.585 414.936 801.481 414.869C801.199 414.679 801.132 414.3 801.322 414.018C802.521 412.262 804.382 409.703 806.444 407.47C806.677 407.219 807.062 407.206 807.307 407.433C807.552 407.659 807.57 408.051 807.344 408.296C805.336 410.475 803.506 412.984 802.331 414.703C802.215 414.875 802.019 414.973 801.823 414.973Z" fill="#F9E5B2"/>
<path d="M810.563 405.193C810.367 405.193 810.178 405.101 810.061 404.93C809.872 404.654 809.939 404.269 810.214 404.079C811.524 403.173 812.742 402.672 813.825 402.598C814.162 402.574 814.455 402.831 814.48 403.167C814.504 403.504 814.253 403.798 813.911 403.822C813.048 403.883 812.038 404.312 810.912 405.095C810.808 405.168 810.685 405.205 810.563 405.205V405.193Z" fill="#F9E5B2"/>
<path d="M854.315 403.993C854.315 403.993 854.266 403.993 854.242 403.993C853.905 403.951 853.666 403.645 853.709 403.314C854.223 399.153 855.086 393.002 856.316 387.378C856.39 387.047 856.714 386.833 857.045 386.913C857.375 386.986 857.583 387.31 857.51 387.641C856.292 393.222 855.429 399.324 854.921 403.467C854.884 403.779 854.621 404.006 854.315 404.006V403.993Z" fill="#F9E5B2"/>
<path d="M859.468 379.183C859.394 379.183 859.315 379.171 859.241 379.14C858.929 379.018 858.776 378.663 858.899 378.345C859.437 376.992 859.994 375.872 860.563 375.021C860.753 374.74 861.132 374.666 861.414 374.856C861.696 375.046 861.769 375.425 861.579 375.707C861.059 376.484 860.539 377.524 860.031 378.797C859.933 379.036 859.706 379.183 859.462 379.183H859.468Z" fill="#F9E5B2"/>
<path d="M873.44 409.856C873.097 409.856 872.822 409.575 872.828 409.238C872.828 409.238 872.84 408.241 872.895 406.613C872.907 406.276 873.189 405.995 873.525 406.025C873.862 406.038 874.125 406.319 874.113 406.656C874.058 408.265 874.046 409.251 874.046 409.257C874.046 409.593 873.77 409.863 873.434 409.863L873.44 409.856Z" fill="#F9E5B2"/>
<path d="M887.124 405.829C886.8 405.829 886.531 405.579 886.512 405.254C886.512 405.217 886.5 405.052 886.5 404.746C886.335 397.61 884.927 380.444 880.129 379.244C879.743 379.152 879.401 379.226 879.046 379.477C876.928 381.013 875.307 388.1 874.493 399.44C874.468 399.777 874.168 400.034 873.838 400.003C873.501 399.979 873.25 399.685 873.275 399.348C874.144 387.304 875.845 380.285 878.33 378.485C878.972 378.02 879.695 377.873 880.423 378.057C884.719 379.128 886.494 388.914 887.222 396.49C887.632 393.528 888.275 389.715 889.26 384.917C889.327 384.587 889.652 384.373 889.982 384.44C890.313 384.507 890.527 384.832 890.46 385.162C887.883 397.641 887.712 403.449 887.718 404.844C887.718 404.991 887.718 405.113 887.724 405.205C887.724 405.536 887.467 405.817 887.136 405.823C887.13 405.823 887.124 405.823 887.112 405.823L887.124 405.829Z" fill="#F9E5B2"/>
<path d="M891.09 380.052C891.047 380.052 890.998 380.052 890.955 380.034C890.625 379.96 890.423 379.63 890.496 379.299C890.643 378.644 890.802 377.977 890.961 377.298C891.775 373.84 892.711 370.676 893.752 367.898C893.868 367.579 894.223 367.42 894.541 367.537C894.86 367.653 895.019 368.008 894.902 368.326C893.887 371.056 892.962 374.171 892.161 377.58C892.002 378.259 891.849 378.926 891.696 379.575C891.628 379.856 891.377 380.052 891.102 380.052H891.09Z" fill="#F9E5B2"/>
<path d="M896.751 363.234C896.653 363.234 896.555 363.21 896.463 363.161C896.163 363.002 896.053 362.634 896.206 362.335C898.495 358.014 900.668 355.97 902.094 355.015C902.375 354.825 902.755 354.899 902.944 355.18C903.134 355.462 903.061 355.841 902.779 356.031C901.708 356.747 899.578 358.595 897.296 362.91C897.185 363.118 896.971 363.234 896.757 363.234H896.751Z" fill="#F9E5B2"/>
<path d="M7.55753 424.538C7.55753 423.333 5.14013 296.135 10.3727 296.936C15.6053 297.744 20.434 360.131 20.434 360.131C20.434 360.131 23.6531 332.757 28.8857 333.564C34.1183 334.372 36.9335 397.567 36.9335 397.567C36.9335 397.567 42.5701 362.145 55.8505 362.145C69.1309 362.145 70.7465 414.875 70.7465 414.875C70.7465 414.875 78.7943 386.294 85.6426 388.712C92.4848 391.129 92.8887 411.252 92.8887 411.252C92.8887 411.252 95.7039 349.666 103.354 350.07C111.004 350.474 111.004 408.033 111.004 408.033C111.004 408.033 117.846 375.829 122.675 380.26C127.503 384.685 131.126 411.252 131.126 411.252C131.126 411.252 151.653 375.028 161.72 377.843C171.782 380.658 138.776 413.265 138.776 413.265C138.776 413.265 166.953 389.116 168.159 392.739C169.364 396.362 146.824 414.477 146.824 414.477C146.824 414.477 165.741 403.608 174.199 404.814C182.651 406.019 190.705 421.319 191.91 421.319C193.116 421.319 199.958 389.924 208.416 390.725C216.868 391.533 220.087 424.942 220.087 424.942C220.087 424.942 226.127 401.998 230.552 404.012C234.977 406.025 237.394 422.127 237.394 422.127C237.394 422.127 244.64 385.903 253.9 385.903C263.159 385.903 265.571 412.066 265.571 412.066C265.571 412.066 277.645 398.785 281.268 403.21C284.891 407.635 285.693 412.874 285.693 412.874C285.693 412.874 292.535 406.833 296.158 407.641C299.781 408.449 303.001 415.291 303.001 415.291C303.001 415.291 306.624 387.115 310.651 389.128C314.678 391.141 310.247 413.681 310.247 413.681C310.247 413.681 318.698 393.957 321.116 397.58C323.533 401.203 314.678 414.085 315.883 414.085C317.089 414.085 327.156 408.853 327.156 408.853L320.314 417.304C320.314 417.304 333.197 411.668 339.635 412.88C346.073 414.085 353.319 419.318 353.319 419.318C353.319 419.318 360.161 415.291 367.004 416.099C373.846 416.907 381.092 423.345 381.092 423.345L7.54529 424.551L7.55753 424.538Z" fill="#83A13F"/>
<path d="M373.576 418.865C373.485 418.865 373.387 418.841 373.301 418.798C370.988 417.623 368.852 416.913 366.942 416.692C365.829 416.564 364.641 416.558 363.411 416.68C363.068 416.711 362.775 416.466 362.744 416.129C362.713 415.793 362.958 415.493 363.295 415.462C364.617 415.334 365.89 415.34 367.089 415.481C369.139 415.719 371.416 416.472 373.858 417.714C374.158 417.867 374.28 418.235 374.127 418.535C374.017 418.749 373.803 418.871 373.583 418.871L373.576 418.865Z" fill="#F9E5B2"/>
<path d="M354.201 419.453C353.974 419.453 353.76 419.33 353.656 419.116C353.503 418.816 353.625 418.449 353.925 418.296C354.653 417.929 355.816 417.384 357.254 416.87C357.573 416.754 357.921 416.919 358.038 417.237C358.154 417.555 357.989 417.904 357.671 418.021C356.294 418.516 355.174 419.036 354.476 419.385C354.39 419.428 354.292 419.453 354.201 419.453Z" fill="#F9E5B2"/>
<path d="M341.312 413.871C341.257 413.871 341.202 413.865 341.146 413.847C340.59 413.688 340.045 413.559 339.531 413.467C338.417 413.259 337.003 413.253 335.339 413.455C335.002 413.498 334.696 413.259 334.659 412.923C334.616 412.586 334.855 412.28 335.192 412.243C336.985 412.029 338.521 412.035 339.757 412.268C340.308 412.372 340.883 412.506 341.477 412.672C341.801 412.763 341.991 413.1 341.899 413.424C341.826 413.694 341.575 413.871 341.312 413.871Z" fill="#F9E5B2"/>
<path d="M323.209 416.748C322.964 416.748 322.731 416.595 322.634 416.35C322.511 416.032 322.676 415.683 322.988 415.56C324.886 414.844 327.774 413.828 330.743 413.088C331.073 413.014 331.403 413.204 331.483 413.535C331.563 413.865 331.367 414.195 331.036 414.275C328.123 415.003 325.29 415.995 323.417 416.705C323.343 416.729 323.27 416.741 323.203 416.741L323.209 416.748Z" fill="#F9E5B2"/>
<path d="M317.554 400.285C317.431 400.285 317.309 400.248 317.199 400.175C316.924 399.979 316.856 399.599 317.052 399.324C318.086 397.861 318.955 396.998 319.702 396.674C320.014 396.539 320.375 396.68 320.51 396.992C320.644 397.304 320.504 397.665 320.192 397.8C319.824 397.959 319.163 398.473 318.056 400.04C317.933 400.211 317.75 400.297 317.554 400.297V400.285Z" fill="#F9E5B2"/>
<path d="M306.709 396.246C306.654 396.246 306.599 396.239 306.544 396.221C306.22 396.129 306.03 395.793 306.122 395.468C306.844 392.892 307.566 391.013 308.27 389.881C308.447 389.593 308.827 389.507 309.114 389.685C309.402 389.862 309.488 390.242 309.31 390.529C308.668 391.558 307.994 393.332 307.303 395.793C307.229 396.062 306.979 396.239 306.715 396.239L306.709 396.246Z" fill="#F9E5B2"/>
<path d="M303.876 410.064C303.845 410.064 303.808 410.065 303.778 410.058C303.441 410.003 303.215 409.691 303.27 409.355C303.863 405.658 304.488 402.347 305.118 399.514C305.191 399.183 305.522 398.975 305.846 399.048C306.177 399.122 306.385 399.446 306.311 399.777C305.681 402.586 305.069 405.872 304.475 409.544C304.426 409.844 304.169 410.058 303.869 410.058L303.876 410.064Z" fill="#F9E5B2"/>
<path d="M288.062 411.607C287.872 411.607 287.688 411.521 287.566 411.356C287.364 411.08 287.425 410.701 287.701 410.499C289.592 409.116 291.305 408.118 292.786 407.537C293.105 407.415 293.453 407.568 293.582 407.88C293.704 408.192 293.551 408.547 293.239 408.675C291.874 409.214 290.216 410.181 288.429 411.484C288.319 411.564 288.196 411.601 288.068 411.601L288.062 411.607Z" fill="#F9E5B2"/>
<path d="M275.363 404.281C275.155 404.281 274.946 404.171 274.836 403.975C274.665 403.681 274.763 403.308 275.057 403.137C276.599 402.237 277.939 401.747 279.041 401.692C279.377 401.674 279.665 401.931 279.683 402.274C279.702 402.61 279.445 402.898 279.102 402.916C278.196 402.965 277.039 403.394 275.669 404.195C275.571 404.251 275.467 404.281 275.363 404.281Z" fill="#F9E5B2"/>
<path d="M265.577 412.672C265.43 412.672 265.283 412.617 265.167 412.513C264.916 412.286 264.897 411.901 265.124 411.65C265.148 411.625 267.321 409.238 270.069 406.845C270.326 406.625 270.711 406.65 270.932 406.907C271.152 407.164 271.128 407.549 270.871 407.77C268.178 410.113 266.048 412.451 266.024 412.476C265.901 412.61 265.736 412.678 265.571 412.678L265.577 412.672Z" fill="#F9E5B2"/>
<path d="M256.146 387.053C256.054 387.053 255.956 387.035 255.87 386.986C254.909 386.503 253.887 386.325 252.841 386.692C252.523 386.802 252.174 386.637 252.058 386.319C251.947 386.001 252.113 385.652 252.431 385.536C253.79 385.058 255.166 385.254 256.421 385.89C256.721 386.043 256.843 386.411 256.69 386.711C256.58 386.925 256.366 387.047 256.146 387.047V387.053Z" fill="#F9E5B2"/>
<path d="M243.526 400.756C243.453 400.756 243.386 400.744 243.312 400.719C242.994 400.603 242.835 400.248 242.951 399.93C244.193 396.57 245.466 393.742 246.721 391.539C246.886 391.246 247.26 391.141 247.553 391.313C247.847 391.478 247.951 391.851 247.78 392.145C246.556 394.293 245.313 397.053 244.096 400.358C244.004 400.603 243.771 400.756 243.52 400.756H243.526Z" fill="#F9E5B2"/>
<path d="M238.398 418.253C238.349 418.253 238.306 418.253 238.257 418.235C237.927 418.155 237.725 417.825 237.804 417.5C238.526 414.434 239.707 409.777 241.219 405.016C241.323 404.691 241.666 404.514 241.99 404.618C242.315 404.722 242.492 405.064 242.388 405.383C240.889 410.101 239.72 414.728 238.998 417.776C238.93 418.057 238.679 418.247 238.404 418.247L238.398 418.253Z" fill="#F9E5B2"/>
<path d="M224.622 411.907C224.542 411.907 224.463 411.894 224.383 411.858C224.071 411.729 223.924 411.368 224.053 411.056C226.244 405.823 228.098 403.351 229.897 403.265C230.228 403.241 230.521 403.51 230.534 403.847C230.546 404.183 230.289 404.471 229.952 404.483C229.395 404.508 227.81 405.242 225.185 411.521C225.087 411.754 224.86 411.894 224.622 411.894V411.907Z" fill="#F9E5B2"/>
<path d="M221.164 421.809C221.103 421.809 221.048 421.803 220.986 421.784C220.662 421.686 220.478 421.344 220.576 421.019C220.925 419.856 221.286 418.712 221.647 417.61C221.751 417.292 222.1 417.115 222.419 417.219C222.737 417.323 222.914 417.672 222.81 417.99C222.449 419.079 222.094 420.218 221.745 421.368C221.666 421.631 221.421 421.803 221.158 421.803L221.164 421.809Z" fill="#F9E5B2"/>
<path d="M214.444 398.504C214.199 398.504 213.973 398.357 213.875 398.118C213.306 396.692 212.706 395.468 212.1 394.477C211.923 394.189 212.014 393.81 212.302 393.632C212.59 393.455 212.969 393.547 213.147 393.834C213.789 394.881 214.42 396.166 215.013 397.659C215.136 397.971 214.989 398.326 214.67 398.455C214.597 398.485 214.517 398.498 214.444 398.498V398.504Z" fill="#F9E5B2"/>
<path d="M200.974 398.29C200.876 398.29 200.778 398.265 200.686 398.216C200.387 398.057 200.276 397.69 200.436 397.39C202.755 393.02 204.989 390.664 207.259 390.187C207.59 390.113 207.914 390.328 207.981 390.658C208.049 390.988 207.841 391.313 207.51 391.38C205.644 391.772 203.624 393.987 201.519 397.959C201.409 398.167 201.194 398.283 200.98 398.283L200.974 398.29Z" fill="#F9E5B2"/>
<path d="M192.541 420.805C192.467 420.805 192.394 420.793 192.32 420.762C192.002 420.64 191.849 420.285 191.972 419.973C192.351 418.994 192.847 417.439 193.483 415.468C194.591 412.023 196.103 407.311 197.877 402.959C198.006 402.647 198.361 402.494 198.673 402.623C198.985 402.751 199.138 403.106 199.01 403.418C197.253 407.721 195.748 412.415 194.646 415.842C194.009 417.831 193.502 419.404 193.11 420.413C193.018 420.658 192.785 420.805 192.541 420.805Z" fill="#F9E5B2"/>
<path d="M179.273 407.672C179.15 407.672 179.028 407.635 178.918 407.555C177.229 406.35 175.619 405.634 174.12 405.419C173.348 405.309 172.443 405.303 171.427 405.401C171.09 405.432 170.79 405.187 170.76 404.85C170.729 404.514 170.974 404.214 171.31 404.183C172.424 404.073 173.428 404.085 174.297 404.208C175.986 404.452 177.785 405.242 179.634 406.564C179.909 406.76 179.97 407.145 179.774 407.415C179.652 407.58 179.468 407.672 179.279 407.672H179.273Z" fill="#F9E5B2"/>
<path d="M154.107 411.301C153.881 411.301 153.66 411.172 153.556 410.952C153.409 410.646 153.538 410.279 153.844 410.132C157.234 408.504 160.374 407.176 163.177 406.191C163.495 406.08 163.844 406.246 163.96 406.564C164.071 406.882 163.905 407.231 163.587 407.347C160.827 408.32 157.73 409.63 154.376 411.24C154.291 411.282 154.199 411.301 154.113 411.301H154.107Z" fill="#F9E5B2"/>
<path d="M153.685 381.643C153.507 381.643 153.336 381.57 153.214 381.423C152.999 381.166 153.036 380.774 153.293 380.56C155.068 379.085 156.714 378.069 158.177 377.537C158.495 377.42 158.844 377.586 158.96 377.904C159.077 378.222 158.911 378.571 158.593 378.687C157.259 379.171 155.741 380.119 154.07 381.502C153.954 381.6 153.819 381.643 153.679 381.643H153.685Z" fill="#F9E5B2"/>
<path d="M142.4 394.458C142.277 394.458 142.149 394.422 142.039 394.342C141.763 394.14 141.708 393.761 141.904 393.485C144.236 390.285 146.469 387.506 148.526 385.223C148.752 384.972 149.138 384.954 149.389 385.181C149.64 385.407 149.658 385.793 149.431 386.043C147.4 388.296 145.196 391.044 142.889 394.208C142.767 394.373 142.583 394.458 142.393 394.458H142.4Z" fill="#F9E5B2"/>
<path d="M132.497 409.544C132.393 409.544 132.283 409.52 132.185 409.459C131.898 409.287 131.8 408.908 131.971 408.62C133.342 406.319 135.539 402.739 138.201 398.785C138.391 398.504 138.77 398.43 139.052 398.62C139.333 398.81 139.407 399.189 139.217 399.471C136.573 403.4 134.388 406.956 133.024 409.244C132.907 409.434 132.705 409.544 132.497 409.544Z" fill="#F9E5B2"/>
<path d="M107.589 358.975C107.307 358.975 107.05 358.779 106.989 358.491C106.291 355.229 105.508 352.947 104.645 351.698C104.455 351.417 104.523 351.037 104.804 350.847C105.086 350.658 105.465 350.725 105.655 351.006C106.616 352.408 107.448 354.776 108.182 358.24C108.256 358.571 108.042 358.895 107.711 358.969C107.668 358.981 107.626 358.981 107.583 358.981L107.589 358.975Z" fill="#F9E5B2"/>
<path d="M97.6134 364.311C97.5767 364.311 97.5399 364.311 97.5032 364.299C97.1727 364.238 96.9524 363.92 97.0136 363.583C98.2927 356.741 99.6636 352.5 101.212 350.627C101.426 350.364 101.812 350.327 102.075 350.541C102.338 350.756 102.375 351.141 102.161 351.404C100.771 353.093 99.4433 357.267 98.2254 363.81C98.1703 364.103 97.9133 364.311 97.6256 364.311H97.6134Z" fill="#F9E5B2"/>
<path d="M94.0331 394.367C94.0331 394.367 94.0025 394.367 93.9841 394.367C93.6475 394.342 93.3966 394.042 93.4211 393.706C94.1983 383.975 95.1041 375.627 96.1261 368.895C96.1751 368.559 96.4872 368.332 96.8238 368.381C97.1604 368.43 97.3868 368.742 97.3379 369.079C96.322 375.78 95.4162 384.097 94.6451 393.798C94.6206 394.116 94.3513 394.361 94.0331 394.361V394.367Z" fill="#F9E5B2"/>
<path d="M93.2804 405.009C93.2804 405.009 93.2559 405.009 93.2437 405.009C92.9071 404.991 92.65 404.697 92.6684 404.361C92.7541 402.971 92.8581 401.417 92.9744 399.734C92.9989 399.397 93.2926 399.153 93.6292 399.165C93.9658 399.189 94.2229 399.483 94.1984 399.82C94.0821 401.503 93.9781 403.057 93.8924 404.44C93.874 404.765 93.6048 405.015 93.2804 405.015V405.009Z" fill="#F9E5B2"/>
<path d="M75.3059 402.292C75.2263 402.292 75.1529 402.28 75.0733 402.249C74.7612 402.121 74.6082 401.766 74.7367 401.454C77.1725 395.493 79.492 391.466 81.634 389.477C81.8849 389.25 82.2705 389.263 82.4969 389.507C82.7295 389.752 82.7111 390.144 82.4663 390.37C80.4589 392.237 78.2374 396.123 75.8689 401.919C75.771 402.157 75.5446 402.298 75.2998 402.298L75.3059 402.292Z" fill="#F9E5B2"/>
<path d="M71.6951 412.384C71.6339 412.384 71.5727 412.378 71.5115 412.353C71.1872 412.249 71.0097 411.907 71.1137 411.588C71.6951 409.759 72.3071 407.941 72.9314 406.191C73.0477 405.872 73.3965 405.707 73.7147 405.823C74.033 405.94 74.1982 406.288 74.0819 406.607C73.4577 408.339 72.8518 410.138 72.2765 411.956C72.197 412.219 71.9522 412.384 71.6951 412.384Z" fill="#F9E5B2"/>
<path d="M66.2116 378.638C65.9362 378.638 65.6853 378.455 65.618 378.173C64.6877 374.464 63.6412 371.368 62.5029 368.975C62.356 368.669 62.4845 368.302 62.7905 368.161C63.0965 368.014 63.4637 368.142 63.6045 368.448C64.7795 370.915 65.8505 374.085 66.8053 377.873C66.8848 378.204 66.689 378.534 66.3585 378.614C66.3095 378.626 66.2606 378.632 66.2116 378.632V378.638Z" fill="#F9E5B2"/>
<path d="M43.7389 374.611C43.6532 374.611 43.5675 374.593 43.488 374.556C43.182 374.416 43.0412 374.054 43.182 373.748C46.8662 365.646 51.1318 361.539 55.8626 361.539C57.5272 361.539 59.1001 362.28 60.526 363.742C60.7647 363.987 60.7586 364.373 60.5138 364.605C60.269 364.838 59.8834 364.838 59.6509 364.593C58.4452 363.357 57.209 362.757 55.8687 362.757C51.6643 362.757 47.772 366.625 44.3019 374.25C44.1979 374.477 43.9776 374.611 43.745 374.611H43.7389Z" fill="#F9E5B2"/>
<path d="M36.9458 398.179C36.9458 398.179 36.9213 398.179 36.9091 398.179C36.5969 398.161 36.346 397.91 36.3338 397.598C36.3277 397.439 35.6116 381.625 34.2713 365.921C31.7254 336.117 29.2652 334.244 28.8001 334.176C28.5185 334.134 28.2431 334.225 27.9371 334.458C24.461 337.102 21.7865 353.944 21.0521 360.211C21.0154 360.523 20.7339 360.737 20.434 360.75C20.1219 360.743 19.8587 360.499 19.8343 360.186C19.8281 360.107 19.1917 351.961 18.1574 341.673C18.1207 341.337 18.3716 341.037 18.7082 341C19.0509 340.976 19.3447 341.215 19.3814 341.545C19.8955 346.68 20.3177 351.282 20.6054 354.617C21.7131 347.567 23.9775 335.939 27.2027 333.485C27.778 333.044 28.3778 332.873 28.9959 332.965C30.1159 333.136 32.7413 333.54 35.5015 365.817C36.3889 376.172 36.9947 386.57 37.313 392.512C38.0841 388.963 39.3203 383.969 41.0584 379.067C41.1747 378.748 41.5235 378.583 41.8418 378.693C42.16 378.804 42.3253 379.159 42.2151 379.477C39.0572 388.369 37.5761 397.574 37.5578 397.665C37.5088 397.965 37.2518 398.179 36.9519 398.179H36.9458Z" fill="#F9E5B2"/>
<path d="M17.1354 327.5C16.8294 327.5 16.5662 327.273 16.5295 326.961C13.3777 301.171 11.0582 297.952 10.3973 297.585C10.1158 297.971 9.43644 299.696 8.84892 307.457C8.82444 307.793 8.53068 308.044 8.19408 308.02C7.85748 307.995 7.60656 307.701 7.63104 307.365C8.28588 298.772 9.05088 297.077 9.71184 296.551C9.99948 296.324 10.2871 296.306 10.4707 296.337C11.554 296.502 14.0876 296.893 17.7413 326.814C17.7841 327.151 17.5454 327.457 17.2088 327.493C17.1844 327.493 17.1599 327.493 17.1354 327.493V327.5Z" fill="#F9E5B2"/>
<path d="M931.238 421.717H-14.7002V616.945H931.238V421.717Z" fill="url(#paint0_linear_140_4521)"/>
<path d="M641.988 484.092H634.032C633.524 484.092 633.114 483.682 633.114 483.174C633.114 482.666 633.524 482.256 634.032 482.256H641.988C642.496 482.256 642.906 482.666 642.906 483.174C642.906 483.682 642.496 484.092 641.988 484.092Z" fill="#5A7BB0"/>
<path d="M386.784 484.092H379.44C378.932 484.092 378.522 483.682 378.522 483.174C378.522 482.666 378.932 482.256 379.44 482.256H386.784C387.292 482.256 387.702 482.666 387.702 483.174C387.702 483.682 387.292 484.092 386.784 484.092Z" fill="#5A7BB0"/>
<path d="M277.848 484.092H269.892C269.384 484.092 268.974 483.682 268.974 483.174C268.974 482.666 269.384 482.256 269.892 482.256H277.848C278.356 482.256 278.766 482.666 278.766 483.174C278.766 483.682 278.356 484.092 277.848 484.092Z" fill="#5A7BB0"/>
<path d="M133.416 484.092H102.204C101.696 484.092 101.286 483.682 101.286 483.174C101.286 482.666 101.696 482.256 102.204 482.256H133.416C133.924 482.256 134.334 482.666 134.334 483.174C134.334 483.682 133.924 484.092 133.416 484.092Z" fill="#5A7BB0"/>
<path d="M78.948 484.092H59.364C58.8561 484.092 58.446 483.682 58.446 483.174C58.446 482.666 58.8561 482.256 59.364 482.256H78.948C79.456 482.256 79.866 482.666 79.866 483.174C79.866 483.682 79.456 484.092 78.948 484.092Z" fill="#5A7BB0"/>
<path d="M24.4801 484.092H15.3001C14.7921 484.092 14.3821 483.682 14.3821 483.174C14.3821 482.666 14.7921 482.256 15.3001 482.256H24.4801C24.988 482.256 25.3981 482.666 25.3981 483.174C25.3981 483.682 24.988 484.092 24.4801 484.092Z" fill="#5A7BB0"/>
<path d="M779.688 550.8H774.18C773.672 550.8 773.262 550.39 773.262 549.882C773.262 549.374 773.672 548.964 774.18 548.964H779.688C780.196 548.964 780.606 549.374 780.606 549.882C780.606 550.39 780.196 550.8 779.688 550.8Z" fill="#5A7BB0"/>
<path d="M750.312 550.8H730.116C729.608 550.8 729.198 550.39 729.198 549.882C729.198 549.374 729.608 548.964 730.116 548.964H750.312C750.82 548.964 751.23 549.374 751.23 549.882C751.23 550.39 750.82 550.8 750.312 550.8Z" fill="#5A7BB0"/>
<path d="M507.96 550.8H498.78C498.272 550.8 497.862 550.39 497.862 549.882C497.862 549.374 498.272 548.964 498.78 548.964H507.96C508.468 548.964 508.878 549.374 508.878 549.882C508.878 550.39 508.468 550.8 507.96 550.8Z" fill="#5A7BB0"/>
<path d="M482.868 550.8H451.044C450.536 550.8 450.126 550.39 450.126 549.882C450.126 549.374 450.536 548.964 451.044 548.964H482.868C483.376 548.964 483.786 549.374 483.786 549.882C483.786 550.39 483.376 550.8 482.868 550.8Z" fill="#5A7BB0"/>
<path d="M416.16 550.8H344.556C344.048 550.8 343.638 550.39 343.638 549.882C343.638 549.374 344.048 548.964 344.556 548.964H416.16C416.668 548.964 417.078 549.374 417.078 549.882C417.078 550.39 416.668 550.8 416.16 550.8Z" fill="#5A7BB0"/>
<path d="M230.112 550.8H202.572C202.064 550.8 201.654 550.39 201.654 549.882C201.654 549.374 202.064 548.964 202.572 548.964H230.112C230.62 548.964 231.03 549.374 231.03 549.882C231.03 550.39 230.62 550.8 230.112 550.8Z" fill="#5A7BB0"/>
<path d="M175.644 550.8H167.688C167.18 550.8 166.77 550.39 166.77 549.882C166.77 549.374 167.18 548.964 167.688 548.964H175.644C176.152 548.964 176.562 549.374 176.562 549.882C176.562 550.39 176.152 550.8 175.644 550.8Z" fill="#5A7BB0"/>
<path d="M839.052 518.976H832.932C832.424 518.976 832.014 518.566 832.014 518.058C832.014 517.55 832.424 517.14 832.932 517.14H839.052C839.56 517.14 839.97 517.55 839.97 518.058C839.97 518.566 839.56 518.976 839.052 518.976Z" fill="#5A7BB0"/>
<path d="M814.572 518.976H787.644C787.136 518.976 786.726 518.566 786.726 518.058C786.726 517.55 787.136 517.14 787.644 517.14H814.572C815.08 517.14 815.49 517.55 815.49 518.058C815.49 518.566 815.08 518.976 814.572 518.976Z" fill="#5A7BB0"/>
<path d="M701.964 518.976H671.976C671.468 518.976 671.058 518.566 671.058 518.058C671.058 517.55 671.468 517.14 671.976 517.14H701.964C702.472 517.14 702.882 517.55 702.882 518.058C702.882 518.566 702.472 518.976 701.964 518.976Z" fill="#5A7BB0"/>
<path d="M653.004 518.976H645.66C645.152 518.976 644.742 518.566 644.742 518.058C644.742 517.55 645.152 517.14 645.66 517.14H653.004C653.512 517.14 653.922 517.55 653.922 518.058C653.922 518.566 653.512 518.976 653.004 518.976Z" fill="#5A7BB0"/>
<path d="M631.584 518.976H625.464C624.956 518.976 624.546 518.566 624.546 518.058C624.546 517.55 624.956 517.14 625.464 517.14H631.584C632.092 517.14 632.502 517.55 632.502 518.058C632.502 518.566 632.092 518.976 631.584 518.976Z" fill="#5A7BB0"/>
<path d="M410.405 126.701C405.766 126.701 401.488 127.534 398.055 128.941C397.051 118.47 385.221 110.202 370.778 110.202C361.298 110.202 352.95 113.758 348.042 119.168C344.492 117.779 340.337 116.983 335.9 116.983C322.877 116.983 312.32 123.843 312.32 132.307C312.32 132.919 312.375 133.519 312.485 134.113C303.023 134.468 295.618 137.675 295.618 141.506C295.618 145.576 303.978 148.935 314.284 148.935H410.405C421.709 148.935 430.876 143.929 430.876 137.828C430.876 131.726 421.715 126.72 410.405 126.72V126.701Z" fill="white"/>
<path d="M419.664 147.791C419.395 147.791 419.15 147.614 419.077 147.338C418.985 147.014 419.181 146.677 419.505 146.585C426.041 144.792 430.258 141.218 430.258 137.479C430.258 131.91 421.164 127.197 410.399 127.197C405.974 127.197 401.782 127.932 398.275 129.321C398.097 129.394 397.895 129.376 397.73 129.272C397.565 129.174 397.461 129.003 397.443 128.807C397.02 124.547 394.523 120.459 390.417 117.301C390.147 117.093 390.099 116.714 390.307 116.444C390.515 116.175 390.894 116.126 391.163 116.334C395.294 119.504 397.902 123.586 398.562 127.901C402.057 126.634 406.133 125.967 410.405 125.967C422.027 125.967 431.488 131.126 431.488 137.473C431.488 141.848 427.02 145.79 419.829 147.76C419.774 147.773 419.719 147.785 419.67 147.785L419.664 147.791Z" fill="#5BA7D9"/>
<path d="M410.405 149.535H403.459C403.122 149.535 402.847 149.26 402.847 148.923C402.847 148.587 403.122 148.311 403.459 148.311H410.405C411.617 148.311 412.859 148.25 414.01 148.146C414.352 148.115 414.646 148.36 414.677 148.697C414.707 149.033 414.462 149.333 414.126 149.364C412.939 149.48 411.653 149.535 410.405 149.535Z" fill="#5BA7D9"/>
<path d="M398.563 149.535H397.339C397.002 149.535 396.727 149.26 396.727 148.923C396.727 148.587 397.002 148.311 397.339 148.311H398.563C398.899 148.311 399.175 148.587 399.175 148.923C399.175 149.26 398.899 149.535 398.563 149.535Z" fill="#5BA7D9"/>
<path d="M390.607 149.535H359.395C359.058 149.535 358.783 149.26 358.783 148.923C358.783 148.587 359.058 148.311 359.395 148.311H390.607C390.943 148.311 391.219 148.587 391.219 148.923C391.219 149.26 390.943 149.535 390.607 149.535Z" fill="#5BA7D9"/>
<path d="M352.662 149.535H342.258C341.922 149.535 341.646 149.26 341.646 148.923C341.646 148.587 341.922 148.311 342.258 148.311H352.662C352.999 148.311 353.274 148.587 353.274 148.923C353.274 149.26 352.999 149.535 352.662 149.535Z" fill="#5BA7D9"/>
<path d="M335.527 149.535H314.284C312.044 149.535 309.976 149.382 307.785 149.052C307.448 149.003 307.222 148.691 307.271 148.354C307.32 148.017 307.638 147.791 307.968 147.84C310.098 148.164 312.111 148.311 314.284 148.311H335.527C335.863 148.311 336.139 148.587 336.139 148.923C336.139 149.26 335.863 149.535 335.527 149.535Z" fill="#5BA7D9"/>
<path d="M303.042 147.479C302.98 147.479 302.925 147.473 302.864 147.454C297.87 145.955 295 143.617 295 141.053C295 137.008 302.16 133.672 311.769 133.183C311.726 132.791 311.701 132.405 311.701 132.02C311.701 123.495 322.552 116.561 335.894 116.561C340.111 116.561 344.242 117.258 347.877 118.58C353.116 113.201 361.635 110 370.778 110C371.114 110 371.39 110.275 371.39 110.612C371.39 110.949 371.114 111.224 370.778 111.224C361.806 111.224 353.47 114.4 348.489 119.712C348.317 119.896 348.054 119.957 347.828 119.865C344.242 118.507 340.117 117.785 335.9 117.785C323.238 117.785 312.932 124.168 312.932 132.02C312.932 132.558 312.981 133.109 313.085 133.654C313.115 133.831 313.072 134.009 312.962 134.15C312.852 134.29 312.687 134.37 312.509 134.376C302.454 134.743 296.23 138.128 296.23 141.053C296.23 142.981 298.911 144.988 303.219 146.285C303.544 146.383 303.727 146.726 303.629 147.05C303.55 147.314 303.305 147.485 303.042 147.485V147.479Z" fill="#5BA7D9"/>
<path d="M386.641 114.841C386.549 114.841 386.451 114.816 386.366 114.774C384.254 113.696 381.935 112.846 379.487 112.246C379.156 112.166 378.96 111.836 379.04 111.506C379.119 111.175 379.45 110.973 379.78 111.059C382.32 111.683 384.725 112.564 386.922 113.684C387.222 113.837 387.345 114.204 387.192 114.51C387.082 114.725 386.867 114.847 386.647 114.847L386.641 114.841Z" fill="#5BA7D9"/>
<path d="M389.346 135.9C389.187 135.9 389.028 135.839 388.905 135.71C388.673 135.465 388.679 135.08 388.924 134.847C393.422 130.508 397.596 128.305 397.773 128.213C398.073 128.054 398.44 128.17 398.599 128.47C398.758 128.77 398.642 129.137 398.342 129.296C398.299 129.321 394.144 131.518 389.78 135.722C389.664 135.839 389.511 135.894 389.358 135.894L389.346 135.9Z" fill="#5BA7D9"/>
<path d="M384.915 140.937C384.787 140.937 384.664 140.9 384.554 140.82C384.285 140.618 384.224 140.239 384.425 139.964C384.989 139.199 385.601 138.434 386.231 137.699C386.451 137.442 386.837 137.411 387.094 137.632C387.351 137.852 387.381 138.238 387.161 138.495C386.549 139.205 385.962 139.945 385.411 140.686C385.288 140.851 385.105 140.937 384.915 140.937Z" fill="#5BA7D9"/>
<path d="M354.162 123.164C354.046 123.164 353.93 123.134 353.825 123.06C350.674 120.985 347.846 119.865 347.822 119.853C347.51 119.731 347.351 119.376 347.479 119.058C347.601 118.745 347.956 118.586 348.275 118.715C348.397 118.764 351.237 119.89 354.505 122.038C354.786 122.222 354.866 122.601 354.676 122.889C354.56 123.066 354.364 123.164 354.162 123.164Z" fill="#5BA7D9"/>
<path d="M361.873 130.973C361.653 130.973 361.445 130.857 361.335 130.649C360.527 129.143 359.364 127.662 357.871 126.242C357.626 126.01 357.614 125.624 357.846 125.38C358.079 125.135 358.464 125.123 358.709 125.355C360.294 126.861 361.537 128.452 362.406 130.074C362.565 130.373 362.455 130.741 362.155 130.9C362.063 130.949 361.965 130.973 361.867 130.973H361.873Z" fill="#5BA7D9"/>
<path d="M328.764 137.411C328.66 137.411 328.562 137.387 328.464 137.332C328.452 137.326 326.903 136.463 324.168 135.673C323.843 135.582 323.654 135.239 323.752 134.915C323.843 134.59 324.186 134.4 324.511 134.498C327.393 135.331 329.003 136.23 329.07 136.267C329.364 136.432 329.468 136.806 329.302 137.099C329.192 137.301 328.984 137.411 328.77 137.411H328.764Z" fill="#5BA7D9"/>
<path d="M319.003 134.609C319.003 134.609 318.954 134.609 318.929 134.609C316.836 134.351 314.682 134.272 312.515 134.376C312.179 134.376 311.891 134.131 311.873 133.795C311.854 133.458 312.118 133.17 312.454 133.152C314.688 133.042 316.916 133.127 319.076 133.397C319.413 133.44 319.651 133.746 319.608 134.082C319.572 134.394 319.309 134.621 319.003 134.621V134.609Z" fill="#5BA7D9"/>
<path d="M637.457 204.217C635.4 204.217 633.411 204.358 631.533 204.615C631.771 203.361 631.9 202.081 631.9 200.766C631.9 188.042 620.309 177.724 606.006 177.724C595.523 177.724 586.502 183.269 582.426 191.243C579.923 190.356 577.169 189.866 574.28 189.866C565.994 189.866 558.827 193.899 555.406 199.756C553.221 199.248 550.853 198.973 548.386 198.973C537.303 198.973 528.319 204.725 528.319 211.586C528.319 218.446 537.303 224.199 548.386 224.199H637.457C649.06 224.199 658.473 219.615 658.473 214.205C658.473 208.795 649.066 204.211 637.457 204.211V204.217Z" fill="white"/>
<path d="M533.772 203.826C533.582 203.826 533.392 203.74 533.276 203.575C533.08 203.299 533.141 202.92 533.411 202.718C537.309 199.897 542.933 198.281 548.845 198.281C551.122 198.281 553.362 198.507 555.504 198.966C559.212 193.073 566.44 189.425 574.476 189.425C577.156 189.425 579.77 189.829 582.242 190.631C586.606 182.706 595.816 177.62 605.871 177.62C607.573 177.62 609.28 177.767 610.939 178.048C611.269 178.103 611.496 178.422 611.441 178.752C611.385 179.083 611.067 179.309 610.737 179.254C609.146 178.979 607.511 178.844 605.877 178.844C596.079 178.844 587.132 183.875 583.087 191.659C582.946 191.928 582.628 192.051 582.34 191.953C579.849 191.09 577.205 190.649 574.476 190.649C566.697 190.649 559.739 194.217 556.324 199.97C556.189 200.197 555.92 200.313 555.663 200.252C553.484 199.756 551.189 199.505 548.851 199.505C543.19 199.505 537.829 201.035 534.133 203.709C534.023 203.789 533.9 203.826 533.772 203.826Z" fill="#5BA7D9"/>
<path d="M624.427 185.79C624.28 185.79 624.133 185.735 624.011 185.631C621.373 183.214 618.099 181.329 614.531 180.184C614.207 180.08 614.035 179.737 614.133 179.413C614.237 179.095 614.58 178.911 614.904 179.015C618.638 180.215 622.077 182.192 624.837 184.725C625.088 184.952 625.1 185.343 624.874 185.588C624.752 185.723 624.586 185.784 624.421 185.784L624.427 185.79Z" fill="#5BA7D9"/>
<path d="M636.998 224.811H632.341C632.004 224.811 631.729 224.536 631.729 224.199C631.729 223.863 632.004 223.587 632.341 223.587H636.998C648.895 223.587 657.182 218.587 657.182 214.095C657.182 209.162 647.751 204.842 636.998 204.842C634.899 204.842 633.014 204.86 631.215 205.105C631.019 205.129 630.823 205.062 630.688 204.921C630.554 204.78 630.492 204.578 630.529 204.383C630.762 203.189 630.878 201.91 630.878 200.698C630.878 197.063 629.966 193.991 627.928 190.729C627.751 190.441 627.836 190.068 628.124 189.884C628.412 189.707 628.791 189.793 628.969 190.08C631.111 193.501 632.102 196.873 632.102 200.698C632.102 201.714 632.022 202.773 631.869 203.795C633.485 203.636 635.162 203.618 636.992 203.618C648.797 203.618 658.4 208.318 658.4 214.095C658.4 219.872 648.595 224.811 636.992 224.811H636.998Z" fill="#5BA7D9"/>
<path d="M628.062 224.811H598.074C597.738 224.811 597.462 224.536 597.462 224.199C597.462 223.863 597.738 223.587 598.074 223.587H628.062C628.399 223.587 628.674 223.863 628.674 224.199C628.674 224.536 628.399 224.811 628.062 224.811Z" fill="#5BA7D9"/>
<path d="M591.342 224.811H586.446C586.11 224.811 585.834 224.536 585.834 224.199C585.834 223.863 586.11 223.587 586.446 223.587H591.342C591.679 223.587 591.954 223.863 591.954 224.199C591.954 224.536 591.679 224.811 591.342 224.811Z" fill="#5BA7D9"/>
<path d="M581.551 224.811H557.683C557.346 224.811 557.071 224.536 557.071 224.199C557.071 223.863 557.346 223.587 557.683 223.587H581.551C581.887 223.587 582.163 223.863 582.163 224.199C582.163 224.536 581.887 224.811 581.551 224.811Z" fill="#5BA7D9"/>
<path d="M552.175 224.811H548.846C545.302 224.811 541.93 224.254 538.833 223.159C538.515 223.049 538.35 222.694 538.46 222.375C538.57 222.057 538.919 221.892 539.243 222.002C542.211 223.055 545.443 223.587 548.852 223.587H552.181C552.518 223.587 552.793 223.863 552.793 224.199C552.793 224.536 552.518 224.811 552.181 224.811H552.175Z" fill="#5BA7D9"/>
<path d="M534.065 219.787C533.949 219.787 533.827 219.75 533.723 219.683C530.277 217.326 528.38 214.266 528.38 211.066C528.38 209.866 528.649 208.679 529.175 207.528C529.316 207.222 529.677 207.088 529.989 207.228C530.295 207.369 530.43 207.73 530.289 208.042C529.836 209.028 529.61 210.044 529.61 211.066C529.61 213.844 531.317 216.549 534.42 218.673C534.702 218.863 534.769 219.242 534.579 219.524C534.463 219.695 534.267 219.787 534.071 219.787H534.065Z" fill="#5BA7D9"/>
<path d="M627.15 205.937C626.887 205.937 626.649 205.766 626.563 205.503C626.465 205.178 626.649 204.835 626.967 204.738C629.335 204.009 630.976 203.777 631.043 203.771C631.379 203.722 631.685 203.954 631.734 204.291C631.783 204.627 631.551 204.933 631.214 204.982C631.196 204.982 629.592 205.215 627.322 205.913C627.261 205.931 627.199 205.937 627.144 205.937H627.15Z" fill="#5BA7D9"/>
<path d="M618.387 210.154C618.197 210.154 618.008 210.068 617.891 209.897C617.695 209.621 617.757 209.242 618.032 209.04C619.678 207.865 621.551 206.824 623.607 205.955C623.919 205.827 624.281 205.968 624.409 206.28C624.544 206.592 624.397 206.953 624.085 207.082C622.114 207.914 620.315 208.911 618.748 210.031C618.638 210.111 618.515 210.148 618.393 210.148L618.387 210.154Z" fill="#5BA7D9"/>
<path d="M613.656 214.799C613.534 214.799 613.405 214.762 613.301 214.683C613.026 214.487 612.964 214.101 613.16 213.826C613.54 213.299 613.956 212.785 614.397 212.29C614.623 212.039 615.009 212.014 615.259 212.241C615.51 212.467 615.535 212.853 615.308 213.104C614.898 213.563 614.507 214.052 614.152 214.542C614.029 214.707 613.846 214.799 613.656 214.799Z" fill="#5BA7D9"/>
<path d="M596.881 201.378C596.686 201.378 596.496 201.286 596.373 201.108C596.367 201.096 595.578 199.952 593.993 198.452C593.748 198.22 593.736 197.834 593.968 197.589C594.201 197.345 594.586 197.332 594.831 197.565C596.52 199.162 597.347 200.374 597.383 200.423C597.573 200.705 597.5 201.084 597.224 201.274C597.12 201.347 596.998 201.378 596.881 201.378Z" fill="#5BA7D9"/>
<path d="M590.523 195.564C590.406 195.564 590.29 195.533 590.192 195.466C587.799 193.911 585.174 192.736 582.377 191.965C582.052 191.873 581.857 191.537 581.948 191.212C582.04 190.888 582.371 190.692 582.701 190.784C585.614 191.586 588.356 192.816 590.859 194.438C591.141 194.621 591.22 195.001 591.037 195.282C590.92 195.46 590.725 195.564 590.523 195.564Z" fill="#5BA7D9"/>
<path d="M569.91 207.687C569.751 207.687 569.592 207.626 569.476 207.504C569.463 207.492 568.399 206.408 566.532 205.074C566.257 204.878 566.195 204.493 566.391 204.217C566.587 203.942 566.973 203.881 567.248 204.077C569.206 205.478 570.308 206.598 570.357 206.647C570.596 206.886 570.59 207.277 570.345 207.51C570.228 207.626 570.069 207.681 569.916 207.681L569.91 207.687Z" fill="#5BA7D9"/>
<path d="M563.282 202.957C563.185 202.957 563.087 202.932 562.995 202.883C560.602 201.616 558.136 200.729 555.675 200.252C555.345 200.184 555.124 199.866 555.192 199.536C555.253 199.205 555.577 198.985 555.908 199.052C558.49 199.554 561.067 200.478 563.564 201.8C563.864 201.959 563.974 202.326 563.821 202.626C563.711 202.834 563.497 202.951 563.276 202.951L563.282 202.957Z" fill="#5BA7D9"/>
</g>
<defs>
<linearGradient id="paint0_linear_140_4521" x1="458.269" y1="421.717" x2="458.269" y2="616.945" gradientUnits="userSpaceOnUse">
<stop stop-color="#B0C8E9"/>
<stop offset="1" stop-color="#296ECC"/>
</linearGradient>
</defs>
</svg>
