<svg width="918" height="612" viewBox="0 0 918 612" fill="none" xmlns="http://www.w3.org/2000/svg">
<mask id="mask0_140_7303" style="mask-type:luminance" maskUnits="userSpaceOnUse" x="0" y="0" width="918" height="612">
<path d="M918 0H0V612H918V0Z" fill="white"/>
</mask>
<g mask="url(#mask0_140_7303)">
<path d="M918 0H0V612H918V0Z" fill="#C6DAF5"/>
<g clip-path="url(#clip0_140_7303)">
<path d="M332.68 290.55H376.73V267.72H332.68V290.55Z" fill="#407BFF"/>
<path opacity="0.4" d="M332.68 290.55H376.73V267.72H332.68V290.55Z" fill="#FAFAFA"/>
<path d="M332.68 267.73H321.36V290.56H332.68V267.73Z" fill="#407BFF"/>
<path opacity="0.4" d="M332.68 267.73H321.36V290.56H332.68V267.73Z" fill="#FAFAFA"/>
<path opacity="0.2" d="M332.68 267.73H321.36V290.56H332.68V267.73Z" fill="black"/>
<path opacity="0.2" d="M374.87 289.63H375.98V268.66H374.87V289.63Z" fill="black"/>
<path opacity="0.2" d="M372.44 289.63H373.55V268.66H372.44V289.63Z" fill="black"/>
<path opacity="0.2" d="M369.991 289.63H371.101V268.66H369.991V289.63Z" fill="black"/>
<path opacity="0.2" d="M367.56 289.63H368.67V268.66H367.56V289.63Z" fill="black"/>
<path opacity="0.2" d="M365.12 289.63H366.23V268.66H365.12V289.63Z" fill="black"/>
<path opacity="0.2" d="M362.681 289.63H363.791V268.66H362.681V289.63Z" fill="black"/>
<path opacity="0.2" d="M360.25 289.63H361.36V268.66H360.25V289.63Z" fill="black"/>
<path opacity="0.2" d="M357.801 289.63H358.911V268.66H357.801V289.63Z" fill="black"/>
<path opacity="0.2" d="M355.37 289.63H356.48V268.66H355.37V289.63Z" fill="black"/>
<path opacity="0.2" d="M352.931 289.63H354.041V268.66H352.931V289.63Z" fill="black"/>
<path opacity="0.2" d="M350.491 289.63H351.601V268.66H350.491V289.63Z" fill="black"/>
<path opacity="0.2" d="M348.06 289.63H349.17V268.66H348.06V289.63Z" fill="black"/>
<path opacity="0.2" d="M345.61 289.63H346.72V268.66H345.61V289.63Z" fill="black"/>
<path opacity="0.2" d="M343.17 289.63H344.28V268.66H343.17V289.63Z" fill="black"/>
<path opacity="0.2" d="M340.741 289.63H341.851V268.66H340.741V289.63Z" fill="black"/>
<path opacity="0.2" d="M338.301 289.63H339.411V268.66H338.301V289.63Z" fill="black"/>
<path opacity="0.2" d="M335.87 289.63H336.98V268.66H335.87V289.63Z" fill="black"/>
<path opacity="0.2" d="M333.42 289.63H334.53V268.66H333.42V289.63Z" fill="black"/>
<path d="M280.5 290.55H324.55V267.72H280.5V290.55Z" fill="#407BFF"/>
<path d="M280.49 267.73H269.17V290.56H280.49V267.73Z" fill="#407BFF"/>
<path opacity="0.2" d="M280.49 267.73H269.17V290.56H280.49V267.73Z" fill="black"/>
<path opacity="0.2" d="M322.69 289.63H323.8V268.66H322.69V289.63Z" fill="black"/>
<path opacity="0.2" d="M320.25 289.63H321.36V268.66H320.25V289.63Z" fill="black"/>
<path opacity="0.2" d="M317.81 289.63H318.92V268.66H317.81V289.63Z" fill="black"/>
<path opacity="0.2" d="M315.38 289.63H316.49V268.66H315.38V289.63Z" fill="black"/>
<path opacity="0.2" d="M312.93 289.63H314.04V268.66H312.93V289.63Z" fill="black"/>
<path opacity="0.2" d="M310.5 289.63H311.61V268.66H310.5V289.63Z" fill="black"/>
<path opacity="0.2" d="M308.06 289.63H309.17V268.66H308.06V289.63Z" fill="black"/>
<path opacity="0.2" d="M305.62 289.63H306.73V268.66H305.62V289.63Z" fill="black"/>
<path opacity="0.2" d="M303.19 289.63H304.3V268.66H303.19V289.63Z" fill="black"/>
<path opacity="0.2" d="M300.74 289.63H301.85V268.66H300.74V289.63Z" fill="black"/>
<path opacity="0.2" d="M298.3 289.63H299.41V268.66H298.3V289.63Z" fill="black"/>
<path opacity="0.2" d="M295.87 289.63H296.98V268.66H295.87V289.63Z" fill="black"/>
<path opacity="0.2" d="M293.43 289.63H294.54V268.66H293.43V289.63Z" fill="black"/>
<path opacity="0.2" d="M291 289.63H292.11V268.66H291V289.63Z" fill="black"/>
<path opacity="0.2" d="M288.55 289.63H289.66V268.66H288.55V289.63Z" fill="black"/>
<path opacity="0.2" d="M286.11 289.63H287.22V268.66H286.11V289.63Z" fill="black"/>
<path opacity="0.2" d="M283.68 289.63H284.79V268.66H283.68V289.63Z" fill="black"/>
<path opacity="0.2" d="M281.24 289.63H282.35V268.66H281.24V289.63Z" fill="black"/>
<path d="M325.49 313.38H369.54V290.55H325.49V313.38Z" fill="#407BFF"/>
<path d="M325.48 290.55H314.16V313.38H325.48V290.55Z" fill="#407BFF"/>
<path opacity="0.2" d="M325.48 290.55H314.16V313.38H325.48V290.55Z" fill="black"/>
<path opacity="0.2" d="M367.67 312.45H368.78V291.48H367.67V312.45Z" fill="black"/>
<path opacity="0.2" d="M365.24 312.45H366.35V291.48H365.24V312.45Z" fill="black"/>
<path opacity="0.2" d="M362.8 312.45H363.91V291.48H362.8V312.45Z" fill="black"/>
<path opacity="0.2" d="M360.36 312.45H361.47V291.48H360.36V312.45Z" fill="black"/>
<path opacity="0.2" d="M357.93 312.45H359.04V291.48H357.93V312.45Z" fill="black"/>
<path opacity="0.2" d="M355.48 312.45H356.59V291.48H355.48V312.45Z" fill="black"/>
<path opacity="0.2" d="M353.05 312.45H354.16V291.48H353.05V312.45Z" fill="black"/>
<path opacity="0.2" d="M350.61 312.45H351.72V291.48H350.61V312.45Z" fill="black"/>
<path opacity="0.2" d="M348.17 312.45H349.28V291.48H348.17V312.45Z" fill="black"/>
<path opacity="0.2" d="M345.74 312.45H346.85V291.48H345.74V312.45Z" fill="black"/>
<path opacity="0.2" d="M343.29 312.45H344.4V291.48H343.29V312.45Z" fill="black"/>
<path opacity="0.2" d="M340.85 312.45H341.96V291.48H340.85V312.45Z" fill="black"/>
<path opacity="0.2" d="M338.42 312.45H339.53V291.48H338.42V312.45Z" fill="black"/>
<path opacity="0.2" d="M335.98 312.45H337.09V291.48H335.98V312.45Z" fill="black"/>
<path opacity="0.2" d="M333.55 312.45H334.66V291.48H333.55V312.45Z" fill="black"/>
<path opacity="0.2" d="M331.1 312.45H332.21V291.48H331.1V312.45Z" fill="black"/>
<path opacity="0.2" d="M328.66 312.45H329.77V291.48H328.66V312.45Z" fill="black"/>
<path opacity="0.2" d="M326.23 312.45H327.34V291.48H326.23V312.45Z" fill="black"/>
<path d="M276.53 313.38H320.58V290.55H276.53V313.38Z" fill="#407BFF"/>
<path opacity="0.4" d="M276.53 313.38H320.58V290.55H276.53V313.38Z" fill="#FAFAFA"/>
<path d="M276.52 290.55H265.2V313.38H276.52V290.55Z" fill="#407BFF"/>
<path opacity="0.4" d="M276.52 290.55H265.2V313.38H276.52V290.55Z" fill="#FAFAFA"/>
<path opacity="0.2" d="M276.52 290.55H265.2V313.38H276.52V290.55Z" fill="black"/>
<path opacity="0.2" d="M318.71 312.45H319.82V291.48H318.71V312.45Z" fill="black"/>
<path opacity="0.2" d="M316.28 312.45H317.39V291.48H316.28V312.45Z" fill="black"/>
<path opacity="0.2" d="M313.84 312.45H314.95V291.48H313.84V312.45Z" fill="black"/>
<path opacity="0.2" d="M311.4 312.45H312.51V291.48H311.4V312.45Z" fill="black"/>
<path opacity="0.2" d="M308.97 312.45H310.08V291.48H308.97V312.45Z" fill="black"/>
<path opacity="0.2" d="M306.52 312.45H307.63V291.48H306.52V312.45Z" fill="black"/>
<path opacity="0.2" d="M304.09 312.45H305.2V291.48H304.09V312.45Z" fill="black"/>
<path opacity="0.2" d="M301.65 312.45H302.76V291.48H301.65V312.45Z" fill="black"/>
<path opacity="0.2" d="M299.21 312.45H300.32V291.48H299.21V312.45Z" fill="black"/>
<path opacity="0.2" d="M296.78 312.45H297.89V291.48H296.78V312.45Z" fill="black"/>
<path opacity="0.2" d="M294.33 312.45H295.44V291.48H294.33V312.45Z" fill="black"/>
<path opacity="0.2" d="M291.89 312.45H293V291.48H291.89V312.45Z" fill="black"/>
<path opacity="0.2" d="M289.46 312.45H290.57V291.48H289.46V312.45Z" fill="black"/>
<path opacity="0.2" d="M287.02 312.45H288.13V291.48H287.02V312.45Z" fill="black"/>
<path opacity="0.2" d="M284.59 312.45H285.7V291.48H284.59V312.45Z" fill="black"/>
<path opacity="0.2" d="M282.14 312.45H283.25V291.48H282.14V312.45Z" fill="black"/>
<path opacity="0.2" d="M279.7 312.45H280.81V291.48H279.7V312.45Z" fill="black"/>
<path opacity="0.2" d="M277.27 312.45H278.38V291.48H277.27V312.45Z" fill="black"/>
<path d="M380.681 187H360.021V219.08H380.681V187Z" fill="#407BFF"/>
<path d="M380.681 190.26H360.021V193.57H380.681V190.26Z" fill="white"/>
<path d="M380.681 197.39H360.021V199.94H380.681V197.39Z" fill="white"/>
<path d="M341.61 187H320.95V219.08H341.61V187Z" fill="#407BFF"/>
<path d="M341.61 190.26H320.95V193.57H341.61V190.26Z" fill="white"/>
<path d="M341.61 197.39H320.95V199.94H341.61V197.39Z" fill="white"/>
<path d="M325.21 232.59H299.03V313.38H325.21V232.59Z" fill="#E0E0E0"/>
<path opacity="0.7" d="M319.68 243.63H301.95V245.37H319.68V243.63Z" fill="white"/>
<path opacity="0.7" d="M319.68 250.37H301.95V252.11H319.68V250.37Z" fill="white"/>
<path opacity="0.7" d="M319.68 257.11H301.95V258.85H319.68V257.11Z" fill="white"/>
<path opacity="0.7" d="M319.68 263.85H301.95V265.59H319.68V263.85Z" fill="white"/>
<path opacity="0.7" d="M319.68 270.6H301.95V272.34H319.68V270.6Z" fill="white"/>
<path opacity="0.7" d="M319.68 277.34H301.95V279.08H319.68V277.34Z" fill="white"/>
<path opacity="0.7" d="M319.68 284.08H301.95V285.82H319.68V284.08Z" fill="white"/>
<path opacity="0.7" d="M319.68 290.82H301.95V292.56H319.68V290.82Z" fill="white"/>
<path d="M325.21 313.38H397.32V232.59H325.21V313.38Z" fill="#FAFAFA"/>
<g opacity="0.8">
<path opacity="0.2" d="M334.11 241.47H333.15V245.47H334.11V241.47Z" fill="black"/>
<path opacity="0.2" d="M347.93 241.47H346.97V245.47H347.93V241.47Z" fill="black"/>
<path opacity="0.2" d="M361.751 241.47H360.791V245.47H361.751V241.47Z" fill="black"/>
<path opacity="0.2" d="M375.57 241.47H374.61V245.47H375.57V241.47Z" fill="black"/>
<path opacity="0.2" d="M389.39 241.47H388.43V245.47H389.39V241.47Z" fill="black"/>
<path opacity="0.2" d="M334.11 254.13H333.15V258.13H334.11V254.13Z" fill="black"/>
<path opacity="0.2" d="M347.93 254.13H346.97V258.13H347.93V254.13Z" fill="black"/>
<path opacity="0.2" d="M361.751 254.13H360.791V258.13H361.751V254.13Z" fill="black"/>
<path opacity="0.2" d="M375.57 254.13H374.61V258.13H375.57V254.13Z" fill="black"/>
<path opacity="0.2" d="M389.39 254.13H388.43V258.13H389.39V254.13Z" fill="black"/>
<path opacity="0.2" d="M334.11 266.78H333.15V270.78H334.11V266.78Z" fill="black"/>
<path opacity="0.2" d="M347.93 266.78H346.97V270.78H347.93V266.78Z" fill="black"/>
<path opacity="0.2" d="M361.751 266.78H360.791V270.78H361.751V266.78Z" fill="black"/>
<path opacity="0.2" d="M375.57 266.78H374.61V270.78H375.57V266.78Z" fill="black"/>
<path opacity="0.2" d="M389.39 266.78H388.43V270.78H389.39V266.78Z" fill="black"/>
<path opacity="0.2" d="M334.11 279.44H333.15V283.44H334.11V279.44Z" fill="black"/>
<path opacity="0.2" d="M347.93 279.44H346.97V283.44H347.93V279.44Z" fill="black"/>
<path opacity="0.2" d="M361.751 279.44H360.791V283.44H361.751V279.44Z" fill="black"/>
<path opacity="0.2" d="M375.57 279.44H374.61V283.44H375.57V279.44Z" fill="black"/>
<path opacity="0.2" d="M389.39 279.44H388.43V283.44H389.39V279.44Z" fill="black"/>
<path opacity="0.2" d="M334.11 292.1H333.15V296.1H334.11V292.1Z" fill="black"/>
<path opacity="0.2" d="M347.93 292.1H346.97V296.1H347.93V292.1Z" fill="black"/>
<path opacity="0.2" d="M361.751 292.1H360.791V296.1H361.751V292.1Z" fill="black"/>
<path opacity="0.2" d="M375.57 292.1H374.61V296.1H375.57V292.1Z" fill="black"/>
<path opacity="0.2" d="M389.39 292.1H388.43V296.1H389.39V292.1Z" fill="black"/>
<path opacity="0.2" d="M334.11 304.75H333.15V308.75H334.11V304.75Z" fill="black"/>
<path opacity="0.2" d="M347.93 304.75H346.97V308.75H347.93V304.75Z" fill="black"/>
<path opacity="0.2" d="M361.751 304.75H360.791V308.75H361.751V304.75Z" fill="black"/>
<path opacity="0.2" d="M375.57 304.75H374.61V308.75H375.57V304.75Z" fill="black"/>
<path opacity="0.2" d="M389.39 304.75H388.43V308.75H389.39V304.75Z" fill="black"/>
</g>
<path d="M329.24 214.48H307.64V232.58H329.24V214.48Z" fill="#E0E0E0"/>
<path d="M329.24 232.59H388.72V214.49H329.24V232.59Z" fill="#FAFAFA"/>
<g style="mix-blend-mode:multiply" opacity="0.1">
<path d="M307.64 218.11H388.72V214.49H307.64V218.11Z" fill="black"/>
</g>
<path opacity="0.2" d="M336.6 220.98H333.33V224.25H336.6V220.98Z" fill="black"/>
<path opacity="0.2" d="M341.4 220.98H338.13V224.25H341.4V220.98Z" fill="black"/>
<path opacity="0.2" d="M346.21 220.98H342.94V224.25H346.21V220.98Z" fill="black"/>
<path opacity="0.2" d="M351.01 220.98H347.74V224.25H351.01V220.98Z" fill="black"/>
<path opacity="0.2" d="M355.81 220.98H352.54V224.25H355.81V220.98Z" fill="black"/>
<path opacity="0.2" d="M360.61 220.98H357.34V224.25H360.61V220.98Z" fill="black"/>
<path opacity="0.2" d="M365.41 220.98H362.14V224.25H365.41V220.98Z" fill="black"/>
<path opacity="0.2" d="M370.22 220.98H366.95V224.25H370.22V220.98Z" fill="black"/>
<path opacity="0.2" d="M375.02 220.98H371.75V224.25H375.02V220.98Z" fill="black"/>
<path opacity="0.2" d="M379.82 220.98H376.55V224.25H379.82V220.98Z" fill="black"/>
<path opacity="0.2" d="M384.62 220.98H381.35V224.25H384.62V220.98Z" fill="black"/>
<path opacity="0.2" d="M336.6 225.73H333.33V229H336.6V225.73Z" fill="black"/>
<path opacity="0.2" d="M341.4 225.73H338.13V229H341.4V225.73Z" fill="black"/>
<path opacity="0.2" d="M346.21 225.73H342.94V229H346.21V225.73Z" fill="black"/>
<path opacity="0.2" d="M351.01 225.73H347.74V229H351.01V225.73Z" fill="black"/>
<path opacity="0.2" d="M355.81 225.73H352.54V229H355.81V225.73Z" fill="black"/>
<path opacity="0.2" d="M360.61 225.73H357.34V229H360.61V225.73Z" fill="black"/>
<path opacity="0.2" d="M365.41 225.73H362.14V229H365.41V225.73Z" fill="black"/>
<path opacity="0.2" d="M370.22 225.73H366.95V229H370.22V225.73Z" fill="black"/>
<path opacity="0.2" d="M375.02 225.73H371.75V229H375.02V225.73Z" fill="black"/>
<path opacity="0.2" d="M379.82 225.73H376.55V229H379.82V225.73Z" fill="black"/>
<path opacity="0.2" d="M384.62 225.73H381.35V229H384.62V225.73Z" fill="black"/>
<path d="M325.69 204.4H295.61L300.05 214.48H325.69V204.4Z" fill="#E0E0E0"/>
<path d="M325.69 204.4H400.75L396.31 214.48H325.69V204.4Z" fill="#FAFAFA"/>
<path d="M461.23 313.38H520.14V290.55H461.23V313.38Z" fill="#407BFF"/>
<path opacity="0.4" d="M461.23 313.38H520.14V290.55H461.23V313.38Z" fill="#FAFAFA"/>
<path d="M461.22 290.55H446.09V313.38H461.22V290.55Z" fill="#407BFF"/>
<path opacity="0.4" d="M461.22 290.55H446.09V313.38H461.22V290.55Z" fill="#FAFAFA"/>
<path opacity="0.2" d="M461.22 290.55H446.09V313.38H461.22V290.55Z" fill="black"/>
<path opacity="0.2" d="M517.65 312.45H519.13V291.48H517.65V312.45Z" fill="black"/>
<path opacity="0.2" d="M514.39 312.45H515.87V291.48H514.39V312.45Z" fill="black"/>
<path opacity="0.2" d="M511.13 312.45H512.61V291.48H511.13V312.45Z" fill="black"/>
<path opacity="0.2" d="M507.87 312.45H509.35V291.48H507.87V312.45Z" fill="black"/>
<path opacity="0.2" d="M504.61 312.45H506.09V291.48H504.61V312.45Z" fill="black"/>
<path opacity="0.2" d="M501.35 312.45H502.83V291.48H501.35V312.45Z" fill="black"/>
<path opacity="0.2" d="M498.09 312.45H499.57V291.48H498.09V312.45Z" fill="black"/>
<path opacity="0.2" d="M494.83 312.45H496.31V291.48H494.83V312.45Z" fill="black"/>
<path opacity="0.2" d="M491.57 312.45H493.05V291.48H491.57V312.45Z" fill="black"/>
<path opacity="0.2" d="M488.31 312.45H489.79V291.48H488.31V312.45Z" fill="black"/>
<path opacity="0.2" d="M485.05 312.45H486.53V291.48H485.05V312.45Z" fill="black"/>
<path opacity="0.2" d="M481.79 312.45H483.27V291.48H481.79V312.45Z" fill="black"/>
<path opacity="0.2" d="M478.53 312.45H480.01V291.48H478.53V312.45Z" fill="black"/>
<path opacity="0.2" d="M475.27 312.45H476.75V291.48H475.27V312.45Z" fill="black"/>
<path opacity="0.2" d="M472.01 312.45H473.49V291.48H472.01V312.45Z" fill="black"/>
<path opacity="0.2" d="M468.74 312.45H470.22V291.48H468.74V312.45Z" fill="black"/>
<path opacity="0.2" d="M465.48 312.45H466.96V291.48H465.48V312.45Z" fill="black"/>
<path opacity="0.2" d="M462.22 312.45H463.7V291.48H462.22V312.45Z" fill="black"/>
<path d="M391.45 313.38H450.36V290.55H391.45V313.38Z" fill="#407BFF"/>
<path d="M391.44 290.55H376.31V313.38H391.44V290.55Z" fill="#407BFF"/>
<path opacity="0.2" d="M391.44 290.55H376.31V313.38H391.44V290.55Z" fill="black"/>
<path opacity="0.2" d="M447.87 312.45H449.35V291.48H447.87V312.45Z" fill="black"/>
<path opacity="0.2" d="M444.61 312.45H446.09V291.48H444.61V312.45Z" fill="black"/>
<path opacity="0.2" d="M441.35 312.45H442.83V291.48H441.35V312.45Z" fill="black"/>
<path opacity="0.2" d="M438.09 312.45H439.57V291.48H438.09V312.45Z" fill="black"/>
<path opacity="0.2" d="M434.83 312.45H436.31V291.48H434.83V312.45Z" fill="black"/>
<path opacity="0.2" d="M431.57 312.45H433.05V291.48H431.57V312.45Z" fill="black"/>
<path opacity="0.2" d="M428.31 312.45H429.79V291.48H428.31V312.45Z" fill="black"/>
<path opacity="0.2" d="M425.05 312.45H426.53V291.48H425.05V312.45Z" fill="black"/>
<path opacity="0.2" d="M421.79 312.45H423.27V291.48H421.79V312.45Z" fill="black"/>
<path opacity="0.2" d="M418.53 312.45H420.01V291.48H418.53V312.45Z" fill="black"/>
<path opacity="0.2" d="M415.27 312.45H416.75V291.48H415.27V312.45Z" fill="black"/>
<path opacity="0.2" d="M412.01 312.45H413.49V291.48H412.01V312.45Z" fill="black"/>
<path opacity="0.2" d="M408.75 312.45H410.23V291.48H408.75V312.45Z" fill="black"/>
<path opacity="0.2" d="M405.49 312.45H406.97V291.48H405.49V312.45Z" fill="black"/>
<path opacity="0.2" d="M402.23 312.45H403.71V291.48H402.23V312.45Z" fill="black"/>
<path opacity="0.2" d="M398.97 312.45H400.45V291.48H398.97V312.45Z" fill="black"/>
<path opacity="0.2" d="M395.71 312.45H397.19V291.48H395.71V312.45Z" fill="black"/>
<path opacity="0.2" d="M392.45 312.45H393.93V291.48H392.45V312.45Z" fill="black"/>
<path d="M451.6 290.55H510.51V267.72H451.6V290.55Z" fill="#407BFF"/>
<path d="M451.6 267.73H436.47V290.56H451.6V267.73Z" fill="#407BFF"/>
<path opacity="0.2" d="M451.6 267.73H436.47V290.56H451.6V267.73Z" fill="black"/>
<path opacity="0.2" d="M508.02 289.63H509.5V268.66H508.02V289.63Z" fill="black"/>
<path opacity="0.2" d="M504.76 289.63H506.24V268.66H504.76V289.63Z" fill="black"/>
<path opacity="0.2" d="M501.51 289.63H502.99V268.66H501.51V289.63Z" fill="black"/>
<path opacity="0.2" d="M498.25 289.63H499.73V268.66H498.25V289.63Z" fill="black"/>
<path opacity="0.2" d="M494.99 289.63H496.47V268.66H494.99V289.63Z" fill="black"/>
<path opacity="0.2" d="M491.73 289.63H493.21V268.66H491.73V289.63Z" fill="black"/>
<path opacity="0.2" d="M488.47 289.63H489.95V268.66H488.47V289.63Z" fill="black"/>
<path opacity="0.2" d="M485.21 289.63H486.69V268.66H485.21V289.63Z" fill="black"/>
<path opacity="0.2" d="M481.95 289.63H483.43V268.66H481.95V289.63Z" fill="black"/>
<path opacity="0.2" d="M478.69 289.63H480.17V268.66H478.69V289.63Z" fill="black"/>
<path opacity="0.2" d="M475.43 289.63H476.91V268.66H475.43V289.63Z" fill="black"/>
<path opacity="0.2" d="M472.17 289.63H473.65V268.66H472.17V289.63Z" fill="black"/>
<path opacity="0.2" d="M468.91 289.63H470.39V268.66H468.91V289.63Z" fill="black"/>
<path opacity="0.2" d="M465.65 289.63H467.13V268.66H465.65V289.63Z" fill="black"/>
<path opacity="0.2" d="M462.39 289.63H463.87V268.66H462.39V289.63Z" fill="black"/>
<path opacity="0.2" d="M459.13 289.63H460.61V268.66H459.13V289.63Z" fill="black"/>
<path opacity="0.2" d="M455.871 289.63H457.351V268.66H455.871V289.63Z" fill="black"/>
<path opacity="0.2" d="M452.61 289.63H454.09V268.66H452.61V289.63Z" fill="black"/>
<path d="M386.14 290.55H445.05V267.72H386.14V290.55Z" fill="#407BFF"/>
<path opacity="0.4" d="M386.14 290.55H445.05V267.72H386.14V290.55Z" fill="#FAFAFA"/>
<path d="M386.13 267.73H371V290.56H386.13V267.73Z" fill="#407BFF"/>
<path opacity="0.4" d="M386.13 267.73H371V290.56H386.13V267.73Z" fill="#FAFAFA"/>
<path opacity="0.2" d="M386.13 267.73H371V290.56H386.13V267.73Z" fill="black"/>
<path opacity="0.2" d="M442.56 289.63H444.04V268.66H442.56V289.63Z" fill="black"/>
<path opacity="0.2" d="M439.3 289.63H440.78V268.66H439.3V289.63Z" fill="black"/>
<path opacity="0.2" d="M436.04 289.63H437.52V268.66H436.04V289.63Z" fill="black"/>
<path opacity="0.2" d="M432.78 289.63H434.26V268.66H432.78V289.63Z" fill="black"/>
<path opacity="0.2" d="M429.52 289.63H431V268.66H429.52V289.63Z" fill="black"/>
<path opacity="0.2" d="M426.26 289.63H427.74V268.66H426.26V289.63Z" fill="black"/>
<path opacity="0.2" d="M423 289.63H424.48V268.66H423V289.63Z" fill="black"/>
<path opacity="0.2" d="M419.74 289.63H421.22V268.66H419.74V289.63Z" fill="black"/>
<path opacity="0.2" d="M416.48 289.63H417.96V268.66H416.48V289.63Z" fill="black"/>
<path opacity="0.2" d="M413.22 289.63H414.7V268.66H413.22V289.63Z" fill="black"/>
<path opacity="0.2" d="M409.96 289.63H411.44V268.66H409.96V289.63Z" fill="black"/>
<path opacity="0.2" d="M406.69 289.63H408.17V268.66H406.69V289.63Z" fill="black"/>
<path opacity="0.2" d="M403.43 289.63H404.91V268.66H403.43V289.63Z" fill="black"/>
<path opacity="0.2" d="M400.17 289.63H401.65V268.66H400.17V289.63Z" fill="black"/>
<path opacity="0.2" d="M396.91 289.63H398.39V268.66H396.91V289.63Z" fill="black"/>
<path opacity="0.2" d="M393.65 289.63H395.13V268.66H393.65V289.63Z" fill="black"/>
<path opacity="0.2" d="M390.39 289.63H391.87V268.66H390.39V289.63Z" fill="black"/>
<path opacity="0.2" d="M387.13 289.63H388.61V268.66H387.13V289.63Z" fill="black"/>
<path d="M442.13 295.73H273.91C273.38 295.73 272.96 296.06 272.96 296.46V313.85C272.96 314.19 273.32 314.47 273.76 314.47C274.2 314.47 274.56 314.19 274.56 313.85V296.96H291.67V313.85C291.67 314.19 292.03 314.47 292.47 314.47C292.91 314.47 293.27 314.19 293.27 313.85V296.96H310.38V313.85C310.38 314.19 310.74 314.47 311.18 314.47C311.62 314.47 311.98 314.19 311.98 313.85V296.96H329.09V313.85C329.09 314.19 329.45 314.47 329.89 314.47C330.33 314.47 330.69 314.19 330.69 313.85V296.96H347.8V313.85C347.8 314.19 348.16 314.47 348.6 314.47C349.04 314.47 349.4 314.19 349.4 313.85V296.96H366.51V313.85C366.51 314.19 366.87 314.47 367.31 314.47C367.75 314.47 368.11 314.19 368.11 313.85V296.96H385.22V313.85C385.22 314.19 385.58 314.47 386.02 314.47C386.46 314.47 386.82 314.19 386.82 313.85V296.96H403.93V313.85C403.93 314.19 404.29 314.47 404.73 314.47C405.17 314.47 405.53 314.19 405.53 313.85V296.96H422.64V313.85C422.64 314.19 423 314.47 423.44 314.47C423.88 314.47 424.24 314.19 424.24 313.85V296.96H441.35V313.85C441.35 314.19 441.71 314.47 442.15 314.47C442.59 314.47 442.95 314.19 442.95 313.85V296.34C442.95 296 442.59 295.72 442.15 295.72L442.13 295.73Z" fill="#407BFF"/>
<path opacity="0.6" d="M442.13 295.73H273.91C273.38 295.73 272.96 296.06 272.96 296.46V313.85C272.96 314.19 273.32 314.47 273.76 314.47C274.2 314.47 274.56 314.19 274.56 313.85V296.96H291.67V313.85C291.67 314.19 292.03 314.47 292.47 314.47C292.91 314.47 293.27 314.19 293.27 313.85V296.96H310.38V313.85C310.38 314.19 310.74 314.47 311.18 314.47C311.62 314.47 311.98 314.19 311.98 313.85V296.96H329.09V313.85C329.09 314.19 329.45 314.47 329.89 314.47C330.33 314.47 330.69 314.19 330.69 313.85V296.96H347.8V313.85C347.8 314.19 348.16 314.47 348.6 314.47C349.04 314.47 349.4 314.19 349.4 313.85V296.96H366.51V313.85C366.51 314.19 366.87 314.47 367.31 314.47C367.75 314.47 368.11 314.19 368.11 313.85V296.96H385.22V313.85C385.22 314.19 385.58 314.47 386.02 314.47C386.46 314.47 386.82 314.19 386.82 313.85V296.96H403.93V313.85C403.93 314.19 404.29 314.47 404.73 314.47C405.17 314.47 405.53 314.19 405.53 313.85V296.96H422.64V313.85C422.64 314.19 423 314.47 423.44 314.47C423.88 314.47 424.24 314.19 424.24 313.85V296.96H441.35V313.85C441.35 314.19 441.71 314.47 442.15 314.47C442.59 314.47 442.95 314.19 442.95 313.85V296.34C442.95 296 442.59 295.72 442.15 295.72L442.13 295.73Z" fill="#FAFAFA"/>
<path d="M478.87 313.38C482.26 313.38 485.54 312.2 488.16 310.05L519.28 284.42C521.89 282.26 525.17 281.09 528.57 281.09H661.58C663.26 281.09 664.54 282.61 664.26 284.27C660.2 309.05 652.64 325.36 643.89 339.68C642.52 341.93 641.12 344.13 639.69 346.3C639.22 347.01 638.75 347.72 638.28 348.44C636.81 350.66 635.32 352.86 633.82 355.06C628.35 363.14 622.76 371.35 617.53 381.02C612.88 389.61 608.51 399.35 604.76 411.17C602.18 419.29 594.64 424.83 586.11 424.83H290.77C281.45 424.83 273.43 418.26 271.59 409.12L265.96 381.02L260.75 355.06L259.42 348.44L258.99 346.3L257.67 339.68L253.05 316.63C252.71 314.95 254 313.38 255.72 313.38H478.87ZM621.02 292.3C621.57 292.85 622.33 293.2 623.18 293.2H648.54C650.23 293.2 651.6 291.82 651.6 290.14C651.6 289.3 651.25 288.54 650.7 287.98C650.15 287.42 649.37 287.08 648.54 287.08H623.18C621.49 287.08 620.12 288.46 620.12 290.14C620.12 290.99 620.47 291.75 621.03 292.3H621.02ZM567.35 287.98C566.8 287.43 566.03 287.08 565.19 287.08H539.83C538.15 287.08 536.77 288.46 536.77 290.14C536.77 290.99 537.12 291.75 537.67 292.3C538.22 292.85 538.98 293.2 539.83 293.2H565.19C566.87 293.2 568.25 291.82 568.25 290.14C568.25 289.3 567.9 288.54 567.35 287.98ZM609.02 287.98C608.47 287.43 607.71 287.08 606.86 287.08H581.5C579.81 287.08 578.44 288.46 578.44 290.14C578.44 290.99 578.79 291.75 579.34 292.3C579.89 292.85 580.66 293.2 581.5 293.2H606.86C608.54 293.2 609.92 291.82 609.92 290.14C609.92 289.3 609.57 288.54 609.02 287.98Z" fill="#407BFF"/>
<path opacity="0.3" d="M259 346.31L259.43 348.45L260.76 355.07H633.81C635.31 352.86 636.8 350.67 638.27 348.45C638.74 347.74 639.21 347.03 639.68 346.31H259Z" fill="black"/>
<path opacity="0.3" d="M491.87 338.85H534.14C537.979 338.85 541.09 335.738 541.09 331.9V331.89C541.09 328.052 537.979 324.94 534.14 324.94H491.87C488.032 324.94 484.92 328.052 484.92 331.89V331.9C484.92 335.738 488.032 338.85 491.87 338.85Z" fill="black"/>
<path opacity="0.3" d="M422.63 338.85H464.9C468.738 338.85 471.85 335.738 471.85 331.9V331.89C471.85 328.052 468.738 324.94 464.9 324.94H422.63C418.792 324.94 415.68 328.052 415.68 331.89V331.9C415.68 335.738 418.792 338.85 422.63 338.85Z" fill="black"/>
<path opacity="0.3" d="M561.13 338.85H603.4C607.238 338.85 610.35 335.738 610.35 331.9V331.89C610.35 328.052 607.238 324.94 603.4 324.94H561.13C557.292 324.94 554.18 328.052 554.18 331.89V331.9C554.18 335.738 557.292 338.85 561.13 338.85Z" fill="black"/>
<path opacity="0.3" d="M604.75 411.18C602.17 419.3 594.63 424.84 586.1 424.84H290.77C281.45 424.84 273.43 418.27 271.59 409.13L265.96 381.03H617.52C612.87 389.62 608.5 399.36 604.75 411.19V411.18Z" fill="black"/>
</g>
<g clip-path="url(#clip1_140_7303)">
<path opacity="0.5" d="M659.73 88C659.73 88 657.89 91.12 653.88 92.94C649.86 94.76 644.78 96.32 644.05 99.96C643.32 103.6 641.16 103.5 639.36 102.4C637.56 101.3 634.83 99.23 628.9 100.92C622.97 102.61 618.89 100.66 618.89 100.66C618.89 100.66 623.84 100.41 629.71 97.27C635.58 94.13 640.91 98.55 640.91 98.55C640.91 98.55 641.09 93.62 649.2 91.59C657.31 89.56 659.73 87.99 659.73 87.99V88Z" fill="#9CB7DB"/>
<path opacity="0.5" d="M615.73 152.9C615.73 152.9 612.94 155.22 608.55 155.57C604.15 155.93 598.84 155.68 596.92 158.85C595 162.02 593 161.21 591.68 159.56C590.35 157.92 588.49 155.05 582.34 154.63C576.19 154.22 573.01 151 573.01 151C573.01 151 577.75 152.44 584.34 151.47C590.93 150.5 594.45 156.46 594.45 156.46C594.45 156.46 596.29 151.88 604.61 152.72C612.93 153.55 615.74 152.89 615.74 152.89L615.73 152.9Z" fill="#9CB7DB"/>
</g>
<path d="M145.674 62.7921C144.156 62.7921 142.687 62.8961 141.298 63.0859C141.475 62.1617 141.567 61.2131 141.567 60.2462C141.567 50.852 133.011 43.2387 122.454 43.2387C114.719 43.2387 108.06 47.333 105.049 53.2143C103.201 52.5595 101.169 52.1984 99.0331 52.1984C92.9131 52.1984 87.6254 55.1727 85.1039 59.4996C83.4882 59.1262 81.7441 58.9181 79.9203 58.9181C71.7379 58.9181 65.1099 63.1471 65.1099 68.2083C65.1099 73.2696 71.744 77.4985 79.9203 77.4985H145.667C154.235 77.4985 161.182 74.1325 161.182 70.1422C161.182 66.152 154.235 62.786 145.667 62.786L145.674 62.7921Z" fill="white"/>
<path d="M69.1433 62.6636C68.9535 62.6636 68.7638 62.5779 68.6475 62.4127C68.4517 62.1373 68.5128 61.7579 68.7821 61.5559C71.683 59.4567 75.8752 58.2511 80.2694 58.2511C81.9218 58.2511 83.5497 58.4163 85.1042 58.7346C87.8888 54.3894 93.2377 51.7149 99.1863 51.7149C101.139 51.7149 103.036 52.0026 104.841 52.5717C108.115 46.7394 114.927 43.0001 122.357 43.0001C123.623 43.0001 124.89 43.1041 126.12 43.3183C126.451 43.3734 126.677 43.6916 126.622 44.0221C126.567 44.3526 126.255 44.579 125.918 44.5239C124.756 44.322 123.556 44.2241 122.357 44.2241C115.184 44.2241 108.636 47.9022 105.673 53.5999C105.533 53.8692 105.215 53.9916 104.927 53.8937C103.103 53.2633 101.169 52.9389 99.1741 52.9389C93.4886 52.9389 88.409 55.5461 85.912 59.7383C85.7774 59.9647 85.5081 60.081 85.2511 60.0198C83.6537 59.6587 81.9707 59.4751 80.2571 59.4751C76.1139 59.4751 72.1849 60.5951 69.4859 62.5473C69.3758 62.6269 69.2534 62.6636 69.131 62.6636H69.1433Z" fill="#5BA7D9"/>
<path d="M136.053 49.3526C135.906 49.3526 135.76 49.2975 135.637 49.1935C133.709 47.4248 131.31 46.0478 128.697 45.2094C128.373 45.1053 128.195 44.7626 128.299 44.4383C128.403 44.1139 128.746 43.9425 129.07 44.0404C131.849 44.934 134.407 46.4028 136.463 48.2938C136.714 48.5203 136.727 48.912 136.5 49.1568C136.378 49.2914 136.212 49.3526 136.047 49.3526H136.053Z" fill="#5BA7D9"/>
<path d="M145.337 78.1227H142.069C141.732 78.1227 141.457 77.8473 141.457 77.5107C141.457 77.1741 141.732 76.8987 142.069 76.8987H145.337C154.021 76.8987 160.074 73.3001 160.074 70.0688C160.074 66.5192 153.189 63.4041 145.337 63.4041C143.868 63.4041 142.436 63.4163 141.09 63.5999C140.894 63.6244 140.698 63.5571 140.563 63.4163C140.429 63.2756 140.368 63.0736 140.404 62.8778C140.57 62.0026 140.661 61.0724 140.661 60.1911C140.661 57.4371 140.025 55.191 138.593 52.9022C138.415 52.6145 138.501 52.2351 138.789 52.0576C139.076 51.8801 139.45 51.9658 139.633 52.2534C141.169 54.7137 141.891 57.2351 141.891 60.1911C141.891 60.8826 141.842 61.5987 141.745 62.2964C142.913 62.1923 144.113 62.1801 145.337 62.1801C154.138 62.1801 161.298 65.7174 161.298 70.0688C161.298 74.4201 153.985 78.1227 145.337 78.1227Z" fill="#5BA7D9"/>
<path d="M138.397 78.1227H116.365C116.028 78.1227 115.753 77.8473 115.753 77.5107C115.753 77.1741 116.028 76.8987 116.365 76.8987H138.397C138.734 76.8987 139.009 77.1741 139.009 77.5107C139.009 77.8473 138.734 78.1227 138.397 78.1227Z" fill="#5BA7D9"/>
<path d="M112.081 78.1227H108.409C108.072 78.1227 107.797 77.8473 107.797 77.5107C107.797 77.1741 108.072 76.8987 108.409 76.8987H112.081C112.417 76.8987 112.693 77.1741 112.693 77.5107C112.693 77.8473 112.417 78.1227 112.081 78.1227Z" fill="#5BA7D9"/>
<path d="M104.737 78.1227H86.3771C86.0405 78.1227 85.7651 77.8473 85.7651 77.5107C85.7651 77.1741 86.0405 76.8987 86.3771 76.8987H104.737C105.074 76.8987 105.349 77.1741 105.349 77.5107C105.349 77.8473 105.074 78.1227 104.737 78.1227Z" fill="#5BA7D9"/>
<path d="M83.3172 78.1227H80.2695C77.7297 78.1227 75.5265 77.7433 73.1213 76.8926C72.8031 76.7825 72.6378 76.4275 72.748 76.1093C72.8581 75.791 73.207 75.6258 73.5313 75.7359C75.8019 76.5377 77.8765 76.8926 80.2695 76.8926H83.3172C83.6538 76.8926 83.9292 77.168 83.9292 77.5046C83.9292 77.8412 83.6538 78.1166 83.3172 78.1166V78.1227Z" fill="#5BA7D9"/>
<path d="M69.3574 74.4507C69.2412 74.4507 69.1187 74.414 69.0147 74.3467C66.4259 72.5719 65 70.2707 65 67.8533C65 66.9415 65.2019 66.0418 65.5997 65.1789C65.7405 64.8729 66.1016 64.7383 66.4137 64.879C66.7197 65.0198 66.8543 65.387 66.7136 65.693C66.3892 66.3968 66.224 67.1251 66.224 67.8595C66.224 69.8546 67.4602 71.8069 69.7062 73.343C69.9878 73.5327 70.0551 73.9121 69.8654 74.1937C69.7491 74.365 69.5533 74.4568 69.3574 74.4568V74.4507Z" fill="#5BA7D9"/>
<path d="M138.067 64.2242C137.803 64.2242 137.565 64.0529 137.479 63.7897C137.381 63.4653 137.565 63.1226 137.883 63.0247C139.646 62.4861 140.869 62.3086 140.918 62.3025C141.255 62.2536 141.561 62.4861 141.61 62.8227C141.659 63.1593 141.426 63.4653 141.09 63.5143C141.078 63.5143 139.903 63.6857 138.244 64.1936C138.183 64.212 138.122 64.2181 138.067 64.2181V64.2242Z" fill="#5BA7D9"/>
<path d="M131.598 67.3393C131.408 67.3393 131.218 67.2475 131.102 67.0822C130.906 66.8068 130.968 66.4274 131.243 66.2254C132.467 65.3503 133.862 64.5791 135.386 63.9304C135.698 63.8019 136.059 63.9427 136.188 64.2548C136.316 64.5669 136.176 64.928 135.863 65.0565C134.419 65.6685 133.103 66.3968 131.953 67.2169C131.843 67.2964 131.72 67.3331 131.598 67.3331V67.3393Z" fill="#5BA7D9"/>
<path d="M128.103 70.7665C127.981 70.7665 127.852 70.7297 127.748 70.6502C127.473 70.4543 127.412 70.0688 127.608 69.7934C127.889 69.4017 128.201 69.0161 128.526 68.6489C128.752 68.398 129.138 68.3735 129.389 68.6C129.639 68.8264 129.664 69.212 129.437 69.4629C129.138 69.7995 128.856 70.1483 128.593 70.5094C128.47 70.6747 128.287 70.7603 128.097 70.7603L128.103 70.7665Z" fill="#5BA7D9"/>
<path d="M115.722 60.8643C115.527 60.8643 115.337 60.7725 115.214 60.595C115.214 60.5889 114.633 59.7505 113.483 58.6611C113.238 58.4286 113.225 58.043 113.458 57.7982C113.691 57.5534 114.076 57.5412 114.321 57.7737C115.576 58.9671 116.2 59.8729 116.224 59.9096C116.414 60.1911 116.341 60.5706 116.065 60.7603C115.961 60.8337 115.839 60.8643 115.722 60.8643Z" fill="#5BA7D9"/>
<path d="M111.029 56.5681C110.912 56.5681 110.796 56.5375 110.698 56.4701C108.948 55.3318 107.02 54.4689 104.976 53.9058C104.652 53.814 104.456 53.4775 104.548 53.1531C104.639 52.8287 104.976 52.6329 105.3 52.7247C107.467 53.3183 109.505 54.2363 111.365 55.442C111.647 55.6256 111.726 56.005 111.543 56.2865C111.426 56.464 111.231 56.5681 111.029 56.5681Z" fill="#5BA7D9"/>
<path d="M95.8141 65.5155C95.655 65.5155 95.4959 65.4543 95.3796 65.3319C95.3735 65.3258 94.5901 64.5302 93.2254 63.5571C92.95 63.3612 92.8888 62.9757 93.0846 62.7003C93.2805 62.4249 93.666 62.3637 93.9352 62.5595C95.3918 63.606 96.218 64.4384 96.2486 64.4751C96.4873 64.7138 96.4812 65.1054 96.2364 65.338C96.1201 65.4543 95.961 65.5094 95.808 65.5094L95.8141 65.5155Z" fill="#5BA7D9"/>
<path d="M90.9242 62.021C90.8262 62.021 90.7283 61.9965 90.6365 61.9475C88.8862 61.0234 87.0808 60.3747 85.2754 60.0197C84.9449 59.9524 84.7246 59.6342 84.7919 59.3037C84.8592 58.9732 85.1775 58.7529 85.508 58.8202C87.4296 59.1935 89.3452 59.8851 91.2057 60.8643C91.5055 61.0234 91.6157 61.3906 91.4627 61.6905C91.3526 61.8986 91.1384 62.0149 90.9242 62.0149V62.021Z" fill="#5BA7D9"/>
<path d="M902.674 227.792C901.156 227.792 899.687 227.896 898.298 228.086C898.475 227.162 898.567 226.213 898.567 225.246C898.567 215.852 890.011 208.239 879.454 208.239C871.719 208.239 865.06 212.333 862.049 218.214C860.201 217.559 858.169 217.198 856.033 217.198C849.913 217.198 844.625 220.173 842.104 224.5C840.488 224.126 838.744 223.918 836.92 223.918C828.738 223.918 822.11 228.147 822.11 233.208C822.11 238.27 828.744 242.498 836.92 242.498H902.667C911.235 242.498 918.182 239.132 918.182 235.142C918.182 231.152 911.235 227.786 902.667 227.786L902.674 227.792Z" fill="white"/>
<path d="M826.143 227.664C825.954 227.664 825.764 227.578 825.647 227.413C825.452 227.137 825.513 226.758 825.782 226.556C828.683 224.457 832.875 223.251 837.269 223.251C838.922 223.251 840.55 223.416 842.104 223.735C844.889 219.389 850.238 216.715 856.186 216.715C858.139 216.715 860.036 217.003 861.841 217.572C865.115 211.739 871.927 208 879.357 208C880.623 208 881.89 208.104 883.12 208.318C883.451 208.373 883.677 208.692 883.622 209.022C883.567 209.353 883.255 209.579 882.918 209.524C881.756 209.322 880.556 209.224 879.357 209.224C872.184 209.224 865.636 212.902 862.673 218.6C862.533 218.869 862.215 218.992 861.927 218.894C860.103 218.263 858.169 217.939 856.174 217.939C850.489 217.939 845.409 220.546 842.912 224.738C842.777 224.965 842.508 225.081 842.251 225.02C840.654 224.659 838.971 224.475 837.257 224.475C833.114 224.475 829.185 225.595 826.486 227.547C826.376 227.627 826.253 227.664 826.131 227.664H826.143Z" fill="#5BA7D9"/>
<path d="M893.053 214.353C892.906 214.353 892.76 214.298 892.637 214.193C890.709 212.425 888.31 211.048 885.697 210.209C885.373 210.105 885.195 209.763 885.299 209.438C885.403 209.114 885.746 208.943 886.07 209.04C888.849 209.934 891.407 211.403 893.463 213.294C893.714 213.52 893.727 213.912 893.5 214.157C893.378 214.291 893.212 214.353 893.047 214.353H893.053Z" fill="#5BA7D9"/>
<path d="M902.337 243.123H899.069C898.732 243.123 898.457 242.847 898.457 242.511C898.457 242.174 898.732 241.899 899.069 241.899H902.337C911.021 241.899 917.074 238.3 917.074 235.069C917.074 231.519 910.189 228.404 902.337 228.404C900.868 228.404 899.436 228.416 898.09 228.6C897.894 228.624 897.698 228.557 897.563 228.416C897.429 228.276 897.368 228.074 897.404 227.878C897.57 227.003 897.661 226.072 897.661 225.191C897.661 222.437 897.025 220.191 895.593 217.902C895.415 217.615 895.501 217.235 895.789 217.058C896.076 216.88 896.45 216.966 896.633 217.253C898.169 219.714 898.891 222.235 898.891 225.191C898.891 225.883 898.842 226.599 898.745 227.296C899.913 227.192 901.113 227.18 902.337 227.18C911.138 227.18 918.298 230.717 918.298 235.069C918.298 239.42 910.985 243.123 902.337 243.123Z" fill="#5BA7D9"/>
<path d="M895.397 243.123H873.365C873.028 243.123 872.753 242.847 872.753 242.511C872.753 242.174 873.028 241.899 873.365 241.899H895.397C895.734 241.899 896.009 242.174 896.009 242.511C896.009 242.847 895.734 243.123 895.397 243.123Z" fill="#5BA7D9"/>
<path d="M869.081 243.123H865.409C865.072 243.123 864.797 242.847 864.797 242.511C864.797 242.174 865.072 241.899 865.409 241.899H869.081C869.417 241.899 869.693 242.174 869.693 242.511C869.693 242.847 869.417 243.123 869.081 243.123Z" fill="#5BA7D9"/>
<path d="M861.737 243.123H843.377C843.041 243.123 842.765 242.847 842.765 242.511C842.765 242.174 843.041 241.899 843.377 241.899H861.737C862.074 241.899 862.349 242.174 862.349 242.511C862.349 242.847 862.074 243.123 861.737 243.123Z" fill="#5BA7D9"/>
<path d="M840.317 243.123H837.269C834.73 243.123 832.527 242.743 830.121 241.893C829.803 241.782 829.638 241.428 829.748 241.109C829.858 240.791 830.207 240.626 830.531 240.736C832.802 241.538 834.877 241.893 837.269 241.893H840.317C840.654 241.893 840.929 242.168 840.929 242.505C840.929 242.841 840.654 243.117 840.317 243.117V243.123Z" fill="#5BA7D9"/>
<path d="M826.357 239.451C826.241 239.451 826.119 239.414 826.015 239.347C823.426 237.572 822 235.271 822 232.853C822 231.941 822.202 231.042 822.6 230.179C822.741 229.873 823.102 229.738 823.414 229.879C823.72 230.02 823.854 230.387 823.714 230.693C823.389 231.397 823.224 232.125 823.224 232.859C823.224 234.855 824.46 236.807 826.706 238.343C826.988 238.533 827.055 238.912 826.865 239.194C826.749 239.365 826.553 239.457 826.357 239.457V239.451Z" fill="#5BA7D9"/>
<path d="M895.067 229.224C894.803 229.224 894.565 229.053 894.479 228.79C894.381 228.465 894.565 228.123 894.883 228.025C896.646 227.486 897.869 227.309 897.918 227.302C898.255 227.254 898.561 227.486 898.61 227.823C898.659 228.159 898.426 228.465 898.09 228.514C898.078 228.514 896.903 228.686 895.244 229.194C895.183 229.212 895.122 229.218 895.067 229.218V229.224Z" fill="#5BA7D9"/>
<path d="M888.598 232.339C888.408 232.339 888.218 232.247 888.102 232.082C887.906 231.807 887.968 231.427 888.243 231.225C889.467 230.35 890.862 229.579 892.386 228.93C892.698 228.802 893.059 228.943 893.188 229.255C893.316 229.567 893.176 229.928 892.863 230.057C891.419 230.669 890.103 231.397 888.953 232.217C888.843 232.296 888.72 232.333 888.598 232.333V232.339Z" fill="#5BA7D9"/>
<path d="M885.103 235.766C884.981 235.766 884.852 235.73 884.748 235.65C884.473 235.454 884.412 235.069 884.608 234.793C884.889 234.402 885.201 234.016 885.526 233.649C885.752 233.398 886.138 233.374 886.389 233.6C886.639 233.826 886.664 234.212 886.437 234.463C886.138 234.8 885.856 235.148 885.593 235.509C885.47 235.675 885.287 235.76 885.097 235.76L885.103 235.766Z" fill="#5BA7D9"/>
<path d="M872.722 225.864C872.527 225.864 872.337 225.773 872.214 225.595C872.214 225.589 871.633 224.75 870.483 223.661C870.238 223.429 870.225 223.043 870.458 222.798C870.691 222.553 871.076 222.541 871.321 222.774C872.576 223.967 873.2 224.873 873.224 224.91C873.414 225.191 873.341 225.571 873.065 225.76C872.961 225.834 872.839 225.864 872.722 225.864Z" fill="#5BA7D9"/>
<path d="M868.029 221.568C867.912 221.568 867.796 221.537 867.698 221.47C865.948 220.332 864.02 219.469 861.976 218.906C861.652 218.814 861.456 218.477 861.548 218.153C861.639 217.829 861.976 217.633 862.3 217.725C864.467 218.318 866.505 219.236 868.365 220.442C868.647 220.626 868.726 221.005 868.543 221.287C868.426 221.464 868.231 221.568 868.029 221.568Z" fill="#5BA7D9"/>
<path d="M852.814 230.516C852.655 230.516 852.496 230.454 852.38 230.332C852.373 230.326 851.59 229.53 850.225 228.557C849.95 228.361 849.889 227.976 850.085 227.7C850.28 227.425 850.666 227.364 850.935 227.56C852.392 228.606 853.218 229.438 853.249 229.475C853.487 229.714 853.481 230.105 853.236 230.338C853.12 230.454 852.961 230.509 852.808 230.509L852.814 230.516Z" fill="#5BA7D9"/>
<path d="M847.924 227.021C847.826 227.021 847.728 226.997 847.637 226.948C845.886 226.023 844.081 225.375 842.275 225.02C841.945 224.952 841.725 224.634 841.792 224.304C841.859 223.973 842.177 223.753 842.508 223.82C844.43 224.194 846.345 224.885 848.206 225.864C848.506 226.023 848.616 226.391 848.463 226.69C848.353 226.899 848.138 227.015 847.924 227.015V227.021Z" fill="#5BA7D9"/>
<path d="M931.238 421.717H-14.7002V616.945H931.238V421.717Z" fill="url(#paint0_linear_140_7303)"/>
<path d="M641.988 484.092H634.032C633.524 484.092 633.114 483.682 633.114 483.174C633.114 482.666 633.524 482.256 634.032 482.256H641.988C642.496 482.256 642.906 482.666 642.906 483.174C642.906 483.682 642.496 484.092 641.988 484.092Z" fill="#5A7BB0"/>
<path d="M386.784 484.092H379.44C378.932 484.092 378.522 483.682 378.522 483.174C378.522 482.666 378.932 482.256 379.44 482.256H386.784C387.292 482.256 387.702 482.666 387.702 483.174C387.702 483.682 387.292 484.092 386.784 484.092Z" fill="#5A7BB0"/>
<path d="M277.848 484.092H269.892C269.384 484.092 268.974 483.682 268.974 483.174C268.974 482.666 269.384 482.256 269.892 482.256H277.848C278.356 482.256 278.766 482.666 278.766 483.174C278.766 483.682 278.356 484.092 277.848 484.092Z" fill="#5A7BB0"/>
<path d="M133.416 484.092H102.204C101.696 484.092 101.286 483.682 101.286 483.174C101.286 482.666 101.696 482.256 102.204 482.256H133.416C133.924 482.256 134.334 482.666 134.334 483.174C134.334 483.682 133.924 484.092 133.416 484.092Z" fill="#5A7BB0"/>
<path d="M78.9478 484.092H59.3638C58.8558 484.092 58.4458 483.682 58.4458 483.174C58.4458 482.666 58.8558 482.256 59.3638 482.256H78.9478C79.4558 482.256 79.8658 482.666 79.8658 483.174C79.8658 483.682 79.4558 484.092 78.9478 484.092Z" fill="#5A7BB0"/>
<path d="M24.4798 484.092H15.2998C14.7919 484.092 14.3818 483.682 14.3818 483.174C14.3818 482.666 14.7919 482.256 15.2998 482.256H24.4798C24.9878 482.256 25.3978 482.666 25.3978 483.174C25.3978 483.682 24.9878 484.092 24.4798 484.092Z" fill="#5A7BB0"/>
<path d="M779.688 550.8H774.18C773.672 550.8 773.262 550.39 773.262 549.882C773.262 549.374 773.672 548.964 774.18 548.964H779.688C780.196 548.964 780.606 549.374 780.606 549.882C780.606 550.39 780.196 550.8 779.688 550.8Z" fill="#5A7BB0"/>
<path d="M750.312 550.8H730.116C729.608 550.8 729.198 550.39 729.198 549.882C729.198 549.374 729.608 548.964 730.116 548.964H750.312C750.82 548.964 751.23 549.374 751.23 549.882C751.23 550.39 750.82 550.8 750.312 550.8Z" fill="#5A7BB0"/>
<path d="M507.96 550.8H498.78C498.272 550.8 497.862 550.39 497.862 549.882C497.862 549.374 498.272 548.964 498.78 548.964H507.96C508.468 548.964 508.878 549.374 508.878 549.882C508.878 550.39 508.468 550.8 507.96 550.8Z" fill="#5A7BB0"/>
<path d="M482.868 550.8H451.044C450.536 550.8 450.126 550.39 450.126 549.882C450.126 549.374 450.536 548.964 451.044 548.964H482.868C483.376 548.964 483.786 549.374 483.786 549.882C483.786 550.39 483.376 550.8 482.868 550.8Z" fill="#5A7BB0"/>
<path d="M416.16 550.8H344.556C344.048 550.8 343.638 550.39 343.638 549.882C343.638 549.374 344.048 548.964 344.556 548.964H416.16C416.668 548.964 417.078 549.374 417.078 549.882C417.078 550.39 416.668 550.8 416.16 550.8Z" fill="#5A7BB0"/>
<path d="M230.112 550.8H202.572C202.064 550.8 201.654 550.39 201.654 549.882C201.654 549.374 202.064 548.964 202.572 548.964H230.112C230.62 548.964 231.03 549.374 231.03 549.882C231.03 550.39 230.62 550.8 230.112 550.8Z" fill="#5A7BB0"/>
<path d="M175.644 550.8H167.688C167.18 550.8 166.77 550.39 166.77 549.882C166.77 549.374 167.18 548.964 167.688 548.964H175.644C176.152 548.964 176.562 549.374 176.562 549.882C176.562 550.39 176.152 550.8 175.644 550.8Z" fill="#5A7BB0"/>
<path d="M839.052 518.976H832.932C832.424 518.976 832.014 518.566 832.014 518.058C832.014 517.55 832.424 517.14 832.932 517.14H839.052C839.56 517.14 839.97 517.55 839.97 518.058C839.97 518.566 839.56 518.976 839.052 518.976Z" fill="#5A7BB0"/>
<path d="M814.572 518.976H787.644C787.136 518.976 786.726 518.566 786.726 518.058C786.726 517.55 787.136 517.14 787.644 517.14H814.572C815.08 517.14 815.49 517.55 815.49 518.058C815.49 518.566 815.08 518.976 814.572 518.976Z" fill="#5A7BB0"/>
<path d="M701.964 518.976H671.976C671.468 518.976 671.058 518.566 671.058 518.058C671.058 517.55 671.468 517.14 671.976 517.14H701.964C702.472 517.14 702.882 517.55 702.882 518.058C702.882 518.566 702.472 518.976 701.964 518.976Z" fill="#5A7BB0"/>
<path d="M653.004 518.976H645.66C645.152 518.976 644.742 518.566 644.742 518.058C644.742 517.55 645.152 517.14 645.66 517.14H653.004C653.512 517.14 653.922 517.55 653.922 518.058C653.922 518.566 653.512 518.976 653.004 518.976Z" fill="#5A7BB0"/>
<path d="M631.584 518.976H625.464C624.956 518.976 624.546 518.566 624.546 518.058C624.546 517.55 624.956 517.14 625.464 517.14H631.584C632.092 517.14 632.502 517.55 632.502 518.058C632.502 518.566 632.092 518.976 631.584 518.976Z" fill="#5A7BB0"/>
</g>
<defs>
<linearGradient id="paint0_linear_140_7303" x1="458.269" y1="421.717" x2="458.269" y2="616.945" gradientUnits="userSpaceOnUse">
<stop stop-color="#B0C8E9"/>
<stop offset="1" stop-color="#296ECC"/>
</linearGradient>
<clipPath id="clip0_140_7303">
<rect width="411.29" height="237.84" fill="white" transform="translate(253 187)"/>
</clipPath>
<clipPath id="clip1_140_7303">
<rect width="86.73" height="73.02" fill="white" transform="translate(573 88)"/>
</clipPath>
</defs>
</svg>
