<svg width="148" height="194" viewBox="0 0 148 194" fill="none" xmlns="http://www.w3.org/2000/svg">
<g clip-path="url(#clip0_2001_369)">
<path d="M68.0001 172.758V166.287L147.981 164.34V168.807C147.905 174.725 143.988 180.623 136.172 185.147C120.503 194.233 95.1739 194.272 79.6189 185.243C71.8033 180.719 67.9431 174.763 68.0001 168.807V172.758Z" fill="url(#paint0_linear_2001_369)"/>
<path d="M79.6188 182.742C95.1929 191.771 120.522 191.714 136.172 182.646C151.841 173.56 151.917 158.881 136.343 149.871C120.769 140.842 95.4401 140.899 79.79 149.966C64.1209 159.053 64.0448 173.732 79.6188 182.742Z" fill="#F69A10"/>
<path d="M97.3797 92.452L81.1211 168.463C79.7709 166.516 79.0483 164.436 79.0483 162.431C79.0483 161.84 94.9457 92.7383 94.9457 92.7383L97.3797 92.4711V92.452Z" fill="#A94500"/>
<path d="M111.661 178.981C106.222 179.363 100.593 178.848 95.478 177.416L103.046 93.4446H108.086L111.642 178.981H111.661Z" fill="#D65E15"/>
<path d="M97.3797 92.452L103.046 93.4446L95.4781 177.416C92.5687 176.633 89.9065 175.526 87.5295 174.171C84.6771 172.491 82.4902 170.525 81.1211 168.463L97.3797 92.452Z" fill="#D24F00"/>
<path d="M136.495 162.412C136.495 164.226 136.039 166.116 134.936 167.872L117.936 93.4446L120.674 93.1201L136.495 162.412Z" fill="#D65E15"/>
<path d="M134.955 167.872C133.662 170.201 131.399 172.415 128.167 174.228C123.565 176.958 117.746 178.523 111.661 178.962L108.105 93.4446H117.936L134.955 167.872Z" fill="#FF861D"/>
<path d="M116.947 98.7705C111.927 101.672 103.769 101.672 98.7108 98.7323C93.6526 95.8118 93.6336 91.0777 98.6538 88.1572C103.674 85.2557 111.832 85.2557 116.89 88.1953C121.948 91.1159 121.967 95.8499 116.947 98.7705Z" fill="#F6AE38"/>
<g style="mix-blend-mode:screen">
<path d="M122.557 139.162C114.247 143.992 100.822 144.03 92.5877 139.239C87.6056 136.356 85.6279 132.405 86.6738 128.625C86.959 127.537 89.1078 118.336 89.3931 117.077C88.9177 120.093 90.6861 123.223 94.6985 125.533C101.868 129.713 113.524 129.675 120.731 125.495C124.744 123.185 126.531 120.054 126.113 117.038L128.908 129.198C129.479 132.729 127.216 136.471 122.557 139.162Z" fill="#FFE2D6"/>
</g>
<g style="mix-blend-mode:screen">
<path d="M126.056 162.737C115.844 168.635 99.4144 168.673 89.2599 162.775C83.1938 159.282 80.7598 154.433 82.0148 149.852L84.3728 139.563C84.1636 143.133 86.3885 146.76 91.1235 149.489C100.232 154.739 115.046 154.701 124.23 149.413C129.098 146.569 131.437 142.789 131.038 139.086C131.97 143.228 133.396 149.604 133.586 150.501C134.347 154.853 131.837 159.396 126.056 162.737Z" fill="#FFE2D6"/>
</g>
<path d="M116.034 98.4077C111.242 101.176 103.446 101.176 98.6349 98.3695C93.8239 95.5826 93.7858 91.0585 98.5778 88.2906C103.37 85.5228 111.166 85.5228 115.977 88.3288C120.807 91.1158 120.826 95.6398 116.034 98.4077Z" fill="#F69F34"/>
</g>
<g clip-path="url(#clip1_2001_369)">
<path d="M96.9099 37.12L43.0499 6.01997C34.8799 5.01997 24.9899 8.17997 19.0599 19.82C9.51994 38.51 -0.0200577 63.75 4.12994 79.58L57.8799 110.8C53.1099 92.59 66.2899 62 76.9199 43.16C81.3599 35.28 89.9599 35.94 96.9099 37.12Z" fill="#2965C4"/>
<path fill-rule="evenodd" clip-rule="evenodd" d="M6.16994 40.5C6.16994 40.5 -0.220062 61.43 -6.2122e-05 62.48C0.219938 63.53 6.88994 66.42 14.2399 65.74L11.9199 40.72L6.15994 40.5H6.16994Z" fill="#3A4C73"/>
<path fill-rule="evenodd" clip-rule="evenodd" d="M29.8301 180.6C29.8301 180.6 29.5801 188.85 29.5801 189.35C29.5801 189.85 31.3301 191.68 34.3701 192.56C37.4101 193.44 39.8701 193.14 41.1601 192.18C42.4501 191.22 50.9101 184.43 51.5301 183.76C52.1501 183.09 52.0301 180.64 51.5301 180.01C51.0301 179.38 46.3201 176.89 43.5301 177.09C40.7401 177.3 29.8201 180.59 29.8201 180.59L29.8301 180.6Z" fill="#1B2336"/>
<path fill-rule="evenodd" clip-rule="evenodd" d="M9.59985 172.93C9.59985 172.93 9.34985 181.18 9.34985 181.68C9.34985 182.18 11.0999 184.01 14.1399 184.89C17.1799 185.77 19.6399 185.47 20.9299 184.51C22.2199 183.55 30.6799 176.76 31.3099 176.09C31.9399 175.42 31.8099 172.97 31.3099 172.34C30.8099 171.71 26.0999 169.22 23.3099 169.42C20.5199 169.63 9.59985 172.92 9.59985 172.92V172.93Z" fill="#1B2336"/>
<path fill-rule="evenodd" clip-rule="evenodd" d="M6.68994 92.55C6.68994 92.55 7.87994 174.43 7.87994 175.09C7.87994 175.75 9.91994 178.22 15.1699 178.17C20.4199 178.13 23.7099 175 23.7499 174.38C23.7899 173.76 32.6899 92.55 32.6899 92.55H6.68994Z" fill="#293652"/>
<path fill-rule="evenodd" clip-rule="evenodd" d="M22.05 115.26V176.1C23.13 175.37 23.73 174.66 23.75 174.39C23.78 173.98 27.5701 139.34 30.2001 115.26H22.05Z" fill="#1D273B"/>
<path fill-rule="evenodd" clip-rule="evenodd" d="M20.54 99.78C20.54 99.78 28.54 181.66 28.54 182.32C28.54 182.98 30.58 185.45 35.83 185.4C41.08 185.36 44.37 182.23 44.41 181.61C44.45 180.99 46.53 99.78 46.53 99.78H20.54Z" fill="#293652"/>
<path fill-rule="evenodd" clip-rule="evenodd" d="M46.69 101.29C46.94 103.22 38.51 105.98 25.96 105.28C13.41 104.58 6.05005 99.24 6.05005 98.9V91.25H46.35L46.69 101.28V101.29Z" fill="#3A4C73"/>
<path fill-rule="evenodd" clip-rule="evenodd" d="M21.71 33.77C21.71 33.77 17.71 33.11 16.96 33.02C16.21 32.93 11.83 33.14 7.91997 37.52C3.99997 41.9 5.37997 50.06 5.45997 55.02C5.53997 59.98 5.83997 91.77 5.78997 92.1C5.74997 92.43 13.25 97.85 25.96 98.56C38.67 99.27 47.21 96.48 46.96 94.52C46.71 92.56 47.2 54.79 46.96 50.98C46.72 47.17 45.1 43.23 42.35 41.1C39.6 38.98 30.54 35.04 30.54 35.04L21.71 33.77Z" fill="#FBA00D"/>
<path d="M47.02 53.67C27.45 61.71 9.67996 54.25 5.20996 49.88C5.28996 51.76 5.42996 53.53 5.45996 55.02C5.45996 55.32 5.45996 55.73 5.47996 56.22C10.81 59.4 19.32 62.19 29.2 62.19C34.82 62.19 40.88 61.28 47.03 59.04C47.03 56.92 47.03 55.09 47.03 53.68L47.02 53.67Z" fill="#C8E846"/>
<path d="M5.69995 78.17C5.71995 80.32 5.73995 82.39 5.74995 84.23C11.09 87.34 19.49 90.03 29.2 90.03C34.78 90.03 40.7799 89.14 46.8899 86.93C46.8899 85.3 46.8899 83.49 46.91 81.56C28.03 89.26 10.84 82.56 5.69995 78.16V78.17Z" fill="#C8E846"/>
<path fill-rule="evenodd" clip-rule="evenodd" d="M26.4199 1.10004C19.6399 1.01004 13.4999 5.91004 12.7099 12.04C11.9899 17.64 14.1699 25.26 17.1399 27.85L16.8799 35.53C16.8799 35.53 17.7599 38.02 22.7999 38.52C27.8399 39.02 31.6799 36.56 31.6799 36.56V35.4C32.7199 35.17 33.5199 34.65 33.9699 33.93C34.7999 32.57 37.3299 29.65 37.8599 26.94C38.3899 24.23 38.1899 19.14 38.3399 14.69C38.6499 5.82004 33.2199 1.19004 26.4399 1.10004H26.4199Z" fill="#FBDBC6"/>
<path fill-rule="evenodd" clip-rule="evenodd" d="M17.0198 31.33C20.6698 32.79 27.6498 32.9 30.5398 32.17C32.7698 30.4 34.1398 28.36 34.6198 26.13C32.8898 25.38 32.5798 22.01 33.2698 20.8C33.9598 19.59 35.7498 19.26 35.8098 21.74L36.4998 21.28C36.4998 21.28 36.3298 17.99 36.3998 17.72C36.4598 17.45 38.7898 15.16 38.8198 14.91C38.8398 14.66 39.6098 4.96002 32.2998 1.93002C24.9898 -1.09998 17.3598 1.74002 14.4898 5.90002C11.6098 10.06 11.1798 15.65 13.0798 22.12C14.9898 28.59 17.0298 31.35 17.0298 31.35L17.0198 31.33Z" fill="#1E273B"/>
<path fill-rule="evenodd" clip-rule="evenodd" d="M36.55 17.98C36.55 17.98 37.3 18.48 38.3 17.6C39.3 16.72 42.36 13.07 43.08 12.1C43.8 11.13 43.45 10.41 43.08 10.22C42.71 10.03 39.02 9.94002 38.33 9.84002C37.64 9.75002 35.22 14.03 36.55 17.96V17.98Z" fill="#FB880D"/>
<path fill-rule="evenodd" clip-rule="evenodd" d="M12.0699 20.66C12.3599 21.61 16.3499 22.57 22.8499 22.85C29.3499 23.13 35.4899 19.6 36.8799 17.98C38.2699 16.35 40.0999 14.1 40.0999 13.54C40.0999 12.98 39.0099 6.38001 36.2199 3.29001C33.4399 0.200007 23.1899 -1.86999 16.5299 2.51001C9.86991 6.89001 10.5599 15.73 12.0599 20.67L12.0699 20.66Z" fill="#FBA00D"/>
<path fill-rule="evenodd" clip-rule="evenodd" d="M51.1301 63.81L69.8501 53.28C69.8501 53.28 69.2401 51.18 69.3001 50.76C69.3701 50.34 69.7701 49.43 70.0701 49.39C70.3601 49.36 71.4901 49.69 71.9901 49.3C72.4901 48.91 77.0301 43.22 77.0301 43.22C77.0301 43.22 77.9401 43.07 78.3401 44.38C78.7501 45.69 80.2101 50.19 80.3201 50.83C80.4201 51.47 80.2101 52.55 79.6101 53.3C79.0001 54.05 76.1001 57.16 75.5501 57.79C75.0001 58.42 53.6401 76.78 53.0901 77.49C52.5501 78.2 50.1801 78.78 48.7001 78.69C47.2201 78.6 43.3401 76.06 42.6501 75.27C41.9601 74.48 37.8601 61.96 37.8601 61.96L48.5601 54.44L51.1301 63.82V63.81Z" fill="#FBDBC6"/>
<path fill-rule="evenodd" clip-rule="evenodd" d="M44.94 44.11C42.88 42.75 38.54 43.04 35.4 51.08C32.25 59.11 33.75 62.51 35.03 65.04C36.31 67.56 40.26 74.64 41.06 74.66C41.85 74.68 48.41 69.94 51.52 62.82L44.95 44.11H44.94Z" fill="#3A4C73"/>
</g>
<defs>
<linearGradient id="paint0_linear_2001_369" x1="147.981" y1="178.161" x2="68.0001" y2="178.161" gradientUnits="userSpaceOnUse">
<stop stop-color="#D87A1E"/>
<stop offset="0.21" stop-color="#C4660A"/>
<stop offset="0.79" stop-color="#913300"/>
<stop offset="1" stop-color="#9D3F00"/>
</linearGradient>
<clipPath id="clip0_2001_369">
<rect width="80" height="106" fill="white" transform="translate(68 86)"/>
</clipPath>
<clipPath id="clip1_2001_369">
<rect width="96.91" height="193.08" fill="white"/>
</clipPath>
</defs>
</svg>
