<svg width="15" height="19" viewBox="0 0 15 19" fill="none" xmlns="http://www.w3.org/2000/svg">
<path d="M13.89 15.7547C12.8167 15.0289 10.2313 14.5166 7.21102 14.5166C4.19074 14.5166 1.60434 15.0289 0.532051 15.7547H-0.00012207V16.5033C-0.00012207 17.6005 3.22767 18.4901 7.21003 18.4901C11.1924 18.4901 14.4202 17.6005 14.4202 16.5033V15.7547H13.889H13.89Z" fill="#C84A2B"/>
<path d="M7.21003 17.7414C11.1921 17.7414 14.4202 16.852 14.4202 15.7547C14.4202 14.6575 11.1921 13.768 7.21003 13.768C3.22797 13.768 -0.00012207 14.6575 -0.00012207 15.7547C-0.00012207 16.852 3.22797 17.7414 7.21003 17.7414Z" fill="#CF5E30"/>
<path d="M0.727645 15.576C0.727645 15.163 1.11287 14.7768 1.78206 14.4481C0.673037 14.7976 -0.00012207 15.2543 -0.00012207 15.7547C-0.00012207 16.8518 3.22767 17.7414 7.21003 17.7414C7.33612 17.7414 7.46122 17.7414 7.58533 17.7385C3.76679 17.6829 0.727645 16.7357 0.727645 15.576Z" fill="url(#paint0_linear_220_569)"/>
<path d="M8.22585 0.279999H6.19545L1.77722 15.7547C1.77722 16.5818 4.20973 17.252 7.21115 17.252C10.2126 17.252 12.6451 16.5818 12.6451 15.7547L8.22585 0.279999Z" fill="#CF5E30"/>
<path d="M7.4534 0.279999C6.85074 0.279999 6.31956 0.675157 6.14581 1.25201L1.77722 15.7547C1.77722 15.7547 7.4534 14.5166 7.4534 0.279999Z" fill="url(#paint1_linear_220_569)"/>
<path d="M10.5342 8.36585L9.60784 5.12317C8.85227 5.18969 8.04607 5.22543 7.21008 5.22543C6.37409 5.22543 5.56789 5.18969 4.81233 5.12317L3.88599 8.36585C4.89573 8.49592 6.02163 8.56939 7.21008 8.56939C8.39854 8.56939 9.52444 8.49592 10.5342 8.36585Z" fill="white"/>
<path d="M7.21005 11.3126C5.71778 11.3126 4.32281 11.1975 3.13435 10.9989L2.22986 14.1661C3.58611 14.4719 5.31964 14.6566 7.21005 14.6566C9.10045 14.6566 10.834 14.4729 12.1902 14.1661L11.2857 10.9989C10.0973 11.1975 8.70232 11.3126 7.21005 11.3126Z" fill="white"/>
<path d="M10.2504 7.37L9.60899 5.12216C9.46503 5.13507 9.31809 5.145 9.17114 5.15592C9.41836 6.19048 9.63779 7.31738 9.77282 8.45023C10.0329 8.42541 10.2881 8.39761 10.5353 8.36484L10.2514 7.37H10.2504Z" fill="#D0DCE0"/>
<path d="M11.2867 10.9989C10.8498 11.0724 10.3852 11.1339 9.89767 11.1826C9.84505 12.4594 9.60478 13.6449 9.08154 14.594C10.2392 14.5166 11.2976 14.3677 12.1912 14.1661L11.2867 10.9989Z" fill="#D0DCE0"/>
<path d="M8.22582 0.279987C8.22582 0.434873 7.77109 0.559973 7.21111 0.559973C6.65114 0.559973 6.19641 0.434873 6.19641 0.279987C6.19641 0.1251 6.65114 0 7.21111 0C7.77109 0 8.22582 0.1251 8.22582 0.279987Z" fill="#E2794D"/>
<path d="M10.5341 8.36584C10.2869 8.39762 10.0317 8.42641 9.77161 8.45123C9.88082 9.37459 9.93344 10.3009 9.8977 11.1836C10.3842 11.1349 10.8499 11.0734 11.2867 10.9999L10.5351 8.36684L10.5341 8.36584Z" fill="#C84A2B"/>
<path d="M8.22593 0.279999L7.75134 0.5163C7.75134 0.5163 8.54563 2.53776 9.17113 5.15594C9.31808 5.14601 9.46502 5.13509 9.60898 5.12218L8.22593 0.279999Z" fill="#C84A2B"/>
<path d="M12.1903 14.1662C11.2968 14.3677 10.2394 14.5156 9.0807 14.5941C8.09976 16.3733 6.12198 17.3254 2.50598 16.5033C3.44622 16.9501 5.19961 17.251 7.20916 17.251C10.2106 17.251 12.6431 16.5808 12.6431 15.7537L12.1894 14.1652L12.1903 14.1662Z" fill="#C84A2B"/>
<path d="M10.5341 8.36586L10.2501 7.37003L10.5341 8.36586Z" fill="white"/>
<defs>
<linearGradient id="paint0_linear_220_569" x1="-0.00012207" y1="16.0943" x2="7.58533" y2="16.0943" gradientUnits="userSpaceOnUse">
<stop stop-color="#D8744E"/>
<stop offset="1" stop-color="#CF5E30"/>
</linearGradient>
<linearGradient id="paint1_linear_220_569" x1="4.61482" y1="6.59856" x2="4.61482" y2="16.1181" gradientUnits="userSpaceOnUse">
<stop stop-color="#D8744E"/>
<stop offset="1" stop-color="#CF5E30"/>
</linearGradient>
</defs>
</svg>
