<svg width="360" height="268" viewBox="0 0 360 268" fill="none" xmlns="http://www.w3.org/2000/svg">
<g clip-path="url(#clip0_140_11291)">
<path d="M360 235.519H0V235.698H360V235.519Z" fill="#EBEBEB"/>
<path d="M323.928 247.091H300.082V247.271H323.928V247.091Z" fill="#EBEBEB"/>
<path d="M238.478 249.048H232.222V249.228H238.478V249.048Z" fill="#EBEBEB"/>
<path d="M299.362 240.417H285.545V240.597H299.362V240.417Z" fill="#EBEBEB"/>
<path d="M68.868 241.625H37.7712V241.805H68.868V241.625Z" fill="#EBEBEB"/>
<path d="M79.8408 241.625H75.2832V241.805H79.8408V241.625Z" fill="#EBEBEB"/>
<path d="M162.108 244.66H94.6584V244.84H162.108V244.66Z" fill="#EBEBEB"/>
<path d="M170.647 203.44H31.6152C29.3472 203.44 27.504 201.599 27.504 199.333V4.10692C27.504 1.84128 29.3472 0 31.6152 0H170.647C172.915 0 174.758 1.84128 174.758 4.10692V199.333C174.758 201.599 172.915 203.44 170.647 203.44ZM31.6152 0.179813C29.448 0.179813 27.684 1.94198 27.684 4.10692V199.333C27.684 201.498 29.448 203.26 31.6152 203.26H170.647C172.814 203.26 174.578 201.498 174.578 199.333V4.10692C174.578 1.94198 172.814 0.179813 170.647 0.179813H31.6152Z" fill="#EBEBEB"/>
<path d="M326.383 203.44H187.351C185.083 203.44 183.24 201.599 183.24 199.333V4.10692C183.24 1.84128 185.083 0 187.351 0H326.383C328.651 0 330.494 1.84128 330.494 4.10692V199.333C330.494 201.599 328.651 203.44 326.383 203.44ZM187.351 0.179813C185.184 0.179813 183.42 1.94198 183.42 4.10692V199.333C183.42 201.498 185.184 203.26 187.351 203.26H326.383C328.55 203.26 330.314 201.498 330.314 199.333V4.10692C330.314 1.94198 328.55 0.179813 326.383 0.179813H187.351Z" fill="#EBEBEB"/>
<path opacity="0.4" d="M360 188.472V235.519H0V188.472C10.116 190.134 13.2264 194.14 28.2744 194.14C47.2392 194.14 47.2392 187.775 66.2112 187.775C85.1832 187.775 85.176 194.14 104.141 194.14C123.106 194.14 123.106 187.775 142.078 187.775C161.05 187.775 161.042 194.14 180.007 194.14C198.972 194.14 198.972 187.775 217.944 187.775C236.916 187.775 236.909 194.14 255.874 194.14C274.838 194.14 274.838 187.775 293.803 187.775C312.768 187.775 312.775 194.14 331.74 194.14C346.781 194.14 349.891 190.134 360 188.48V188.472Z" fill="#E0E0E0"/>
<path d="M201.823 80.9948H40.3992C40.3992 80.9948 47.7504 68.0555 61.7616 68.0555C75.7728 68.0555 62.64 75.2264 73.4904 75.2264C84.3408 75.2264 95.5512 51.9659 130.039 51.9659C164.527 51.9659 135.994 69.4581 153.85 69.4581C171.706 69.4581 228.874 53.9798 201.823 81.002V80.9948Z" fill="#FAFAFA"/>
<path d="M324.108 101.716H243.396C243.396 101.716 247.075 95.2432 254.074 95.2432C261.072 95.2432 254.513 98.825 259.942 98.825C265.37 98.825 270.972 87.1948 288.216 87.1948C305.46 87.1948 291.19 95.9408 300.125 95.9408C309.06 95.9408 337.637 88.2017 324.108 101.709V101.716Z" fill="#FAFAFA"/>
<path d="M165.794 32.5892C172.613 32.5892 166.219 36.0776 171.504 36.0776C176.789 36.0776 182.239 24.7566 199.03 24.7566C215.82 24.7566 203.076 34.3874 210.895 34.711C211.032 34.711 211.169 34.7182 211.32 34.7182C219.154 34.7182 227.232 17.9381 252.115 17.9381C276.998 17.9381 256.406 30.5538 269.287 30.5538C282.168 30.5538 323.402 19.391 303.89 38.8827H155.398C155.398 38.8827 158.976 32.5821 165.794 32.5821V32.5892Z" fill="#FAFAFA"/>
<path d="M71.6833 27.3962C70.5817 26.9503 69.4369 26.6266 68.2489 26.4253C67.0681 26.2311 65.8513 26.1663 64.6201 26.2598C63.7345 26.3317 62.8417 26.4828 61.9633 26.7129C61.3441 25.9865 60.6817 25.3104 59.9761 24.7134C58.9969 23.8863 57.9529 23.1958 56.8729 22.6348C55.7857 22.081 54.6697 21.6422 53.5321 21.3473C52.3945 21.0453 51.2425 20.8511 50.0977 20.8367C51.2137 21.1244 52.2793 21.5775 53.2873 22.1169C54.2953 22.6564 55.2457 23.3109 56.1169 24.0373C57.8665 25.5046 59.2561 27.3603 60.1993 29.3958L60.8545 30.8055L62.1001 30.0287C63.9073 28.9067 65.9953 28.2162 68.1841 28.0579C69.2785 27.9788 70.3945 28.022 71.5033 28.1874C72.6121 28.36 73.7281 28.6262 74.8009 29.0721C73.8361 28.3816 72.7777 27.835 71.6833 27.389V27.3962Z" fill="#E0E0E0"/>
<path d="M94.068 41.4217C93.1464 41.2131 92.2033 41.1124 91.2457 41.1052C90.2881 41.1052 89.3233 41.2203 88.3729 41.4504C87.6889 41.6231 87.0049 41.8532 86.3497 42.1481C85.7665 41.659 85.1617 41.2131 84.5281 40.8391C83.6569 40.3212 82.7425 39.9112 81.8209 39.6092C80.8921 39.3143 79.9561 39.1201 79.0273 39.0338C78.0985 38.9474 77.1625 38.9474 76.2625 39.0841C77.1769 39.1632 78.0697 39.379 78.9337 39.6739C79.7977 39.9688 80.6257 40.3572 81.4105 40.8175C82.9729 41.7453 84.3049 43.0184 85.3201 44.4929L86.0185 45.5142L86.8969 44.7446C88.1713 43.6298 89.7193 42.8098 91.4185 42.407C92.2681 42.2057 93.1465 42.0906 94.0464 42.0762C94.9392 42.0618 95.8537 42.1337 96.7537 42.3423C95.9041 41.9251 95.0041 41.6374 94.0825 41.4289L94.068 41.4217Z" fill="#E0E0E0"/>
<path d="M297.936 58.0435C296.64 58.396 295.373 58.8922 294.163 59.5252C292.961 60.1581 291.816 60.9421 290.772 61.8628C290.016 62.5317 289.318 63.2797 288.684 64.0924C287.626 63.8551 286.56 63.704 285.516 63.6465C284.069 63.5674 282.643 63.6609 281.275 63.8982C279.907 64.1428 278.597 64.5168 277.366 65.0275C276.134 65.5381 274.954 66.1567 273.91 66.9263C275.112 66.4156 276.386 66.0991 277.675 65.8906C278.964 65.682 280.267 65.6244 281.556 65.6892C284.148 65.8186 286.675 66.5379 288.936 67.7318L290.498 68.559L291.096 67.0054C291.96 64.747 293.364 62.6899 295.236 61.05C296.172 60.2301 297.209 59.4964 298.325 58.8851C299.448 58.2737 300.643 57.7558 301.918 57.4178C300.571 57.4537 299.239 57.6911 297.943 58.0435H297.936Z" fill="#E0E0E0"/>
<path d="M180 268C257.099 268 319.601 264.355 319.601 259.858C319.601 255.361 257.099 251.716 180 251.716C102.901 251.716 40.3992 255.361 40.3992 259.858C40.3992 264.355 102.901 268 180 268Z" fill="#F5F5F5"/>
</g>
<defs>
<clipPath id="clip0_140_11291">
<rect width="360" height="268" fill="white"/>
</clipPath>
</defs>
</svg>
