<svg width="42" height="42" viewBox="0 0 42 42" fill="none" xmlns="http://www.w3.org/2000/svg">
<g clip-path="url(#clip0_140_9715)">
<path d="M17.2958 5.25781C17.1499 5.20311 16.9873 5.27705 16.9326 5.42296C16.8779 5.56887 16.9518 5.73149 17.0977 5.78618C17.9488 6.10524 19.22 6.64142 20.2668 7.21124C20.7916 7.49694 21.2482 7.78473 21.5661 8.05156C21.7253 8.1852 21.8399 8.30549 21.9113 8.40919C21.9841 8.51515 21.9948 8.57869 21.993 8.60789C21.9832 8.76341 22.1014 8.89739 22.2569 8.90715C22.4124 8.91691 22.5464 8.79875 22.5562 8.64324C22.5691 8.43795 22.4858 8.24875 22.3762 8.08943C22.2651 7.92786 22.1088 7.77033 21.9289 7.61933C21.5685 7.31689 21.0739 7.00811 20.5366 6.71562C19.459 6.12908 18.1618 5.58245 17.2958 5.25781Z" fill="#EEC802"/>
<path d="M23.4167 10.0462C23.4167 9.59755 23.7369 9.21666 24.0628 8.94862C24.1728 8.85552 24.2828 8.77652 24.3816 8.71162C24.8979 9.55241 25.8826 10.2817 26.4187 9.98268C28.4106 8.86962 28.3725 7.03147 28.5954 5.95368C28.8197 4.87449 28.2258 4.22415 28.2258 4.22415C26.9237 2.67801 24.3082 3.27333 23.7383 4.88154C23.6085 5.24409 23.545 5.58549 23.5253 5.90854C23.5239 5.91277 23.5239 5.91418 23.5211 5.91841C23.3066 6.95529 22.3502 7.42929 22.3502 7.42929C22.2571 8.55927 23.4167 10.0476 23.4167 10.0476V10.0462Z" fill="#DB6D58"/>
<path d="M24.0628 8.9486C24.1728 8.85549 24.2828 8.77649 24.3816 8.7116C24.3816 8.7116 24.1333 8.27428 23.9979 7.92725C23.9979 7.92725 23.9866 8.41958 24.0628 8.9486Z" fill="#C65C4E"/>
<path d="M26.6063 5.43453C26.4469 5.48814 25.9898 5.31462 25.9136 5.46416C25.8261 5.63626 25.702 5.85492 25.592 5.93675C25.4015 6.08064 25.3888 6.66326 25.0192 6.92707C24.6496 7.19087 23.6946 7.21344 23.4674 7.3926C23.3645 7.47442 23.2177 7.3926 23.088 7.27974C22.906 7.12033 22.834 6.86782 22.8975 6.63505L23.2587 5.30898C23.5422 4.26928 24.3703 3.46659 25.4199 3.21971L26.2705 3.01939C26.4172 2.98412 26.5724 3.00387 26.7078 3.07159L27.629 3.54136C27.9888 3.72475 28.6292 4.75316 28.7703 5.39221C28.8267 5.65037 28.6758 5.92264 28.4247 5.84364L28.2004 5.72232C28.0015 5.61228 27.7814 5.54457 27.5557 5.52341L26.6049 5.43312L26.6063 5.43453Z" fill="#23343C"/>
<path d="M15.0819 37.3648L16.7873 37.8658C16.8823 37.8937 16.9366 37.9932 16.9087 38.0882L16.8189 38.3941C16.791 38.489 16.6914 38.5433 16.5965 38.5155L14.891 38.0145C14.7961 37.9866 14.7418 37.887 14.7696 37.7921L14.8595 37.4862C14.8874 37.3913 14.987 37.3369 15.0819 37.3648Z" fill="#23343C"/>
<path d="M14.1186 24.9094L15.1527 26.5021C14.4107 28.2345 15.2063 30.5142 15.5999 31.9672C15.7508 32.5315 15.8609 33.1282 15.9399 33.646C16.064 34.4656 15.9836 35.5095 15.9836 35.5095C16.4026 36.3291 17.0261 36.0639 17.3449 35.7606C17.5044 35.6097 17.534 35.4065 17.534 35.4065L17.5382 33.5853L17.7738 25.8617L16.9076 21.9723C16.7919 21.9695 16.5874 22.0062 16.3335 22.0682C15.1823 22.3518 12.9816 23.163 12.9816 23.163L14.1172 24.9108L14.1186 24.9094Z" fill="#DB6D58"/>
<path d="M10.4 19.2483L11.8756 18.6318L16.2911 19.8083L16.9104 21.9738L17.7766 25.8631L17.644 34.254C17.1093 34.3062 16.3433 34.3457 15.8722 34.3189C15.7932 33.8012 15.7099 32.5358 15.559 31.9701C15.1654 30.517 14.4107 28.2359 15.1527 26.5021L14.1186 24.9094L12.983 23.1616L10.4 19.2468V19.2483Z" fill="#374A66"/>
<path d="M17.4465 35.5081C17.4465 35.5081 17.1883 36.0893 15.9384 35.4432C15.9384 35.4432 15.487 36.2417 14.9862 36.5746C14.4854 36.9075 15.353 37.7949 16.2121 37.7977C17.0712 37.8019 17.4634 38.5947 18.2647 38.7513C19.066 38.9079 20.4541 38.3958 20.124 37.9994C19.7953 37.6016 18.1603 36.9851 18.0347 36.2544C17.9092 35.5236 17.4465 35.5081 17.4465 35.5081Z" fill="white"/>
<path d="M15.2614 36.8243C15.2614 36.8243 15.4306 37.2672 16.0965 37.4097C16.7623 37.5522 17.3577 37.8414 17.9939 38.2942C18.6301 38.7471 19.6896 38.1489 19.6896 38.1489" stroke="#213247" stroke-width="0.0646154" stroke-miterlimit="10" stroke-linecap="round"/>
<path d="M19.0928 37.3801C19.0928 37.3801 18.6808 37.2038 17.8923 38.029" stroke="#213247" stroke-width="0.0646154" stroke-miterlimit="10" stroke-linecap="round"/>
<path d="M15.8792 36.2318C15.8792 36.2318 16.7369 37.0429 18.1349 36.7199" stroke="#213247" stroke-width="0.0646154" stroke-miterlimit="10" stroke-linecap="round"/>
<path d="M15.4955 37.8527C15.5463 37.8682 15.6027 37.8527 15.6366 37.8062L18.0122 34.5517C18.0531 34.4952 18.0418 34.4162 17.984 34.3739C17.9276 34.333 17.8486 34.3457 17.8063 34.4021L15.4306 37.6566C15.3897 37.7131 15.401 37.7921 15.4588 37.8344C15.4701 37.8429 15.4828 37.8485 15.4955 37.8527Z" fill="#23343C"/>
<path d="M33.4243 41.1382C37.6338 41.1382 41.0576 37.7144 41.0576 33.5049C41.0576 29.2953 37.6338 25.8715 33.4243 25.8715C29.2147 25.8715 25.7909 29.2953 25.7909 33.5049C25.7909 37.7144 29.2147 41.1382 33.4243 41.1382ZM33.4243 26.7716C37.1372 26.7716 40.1576 29.7919 40.1576 33.5049C40.1576 37.2179 37.1372 40.2382 33.4243 40.2382C29.7113 40.2382 26.6909 37.2179 26.6909 33.5049C26.6909 29.7919 29.7113 26.7716 33.4243 26.7716Z" fill="white"/>
<path d="M33.4242 41.6504C37.9145 41.6504 41.5682 37.9966 41.5682 33.5063C41.5682 29.016 37.9145 25.3623 33.4242 25.3623C28.9339 25.3623 25.2802 29.016 25.2802 33.5063C25.2802 37.9966 28.9339 41.6504 33.4242 41.6504ZM33.4242 26.3216C37.3855 26.3216 40.6075 29.5436 40.6075 33.5049C40.6075 37.4662 37.3855 40.6883 33.4242 40.6883C29.4629 40.6883 26.2408 37.4662 26.2408 33.5049C26.2408 29.5436 29.4629 26.3216 33.4242 26.3216Z" fill="#23343C"/>
<path d="M8.5534 41.1382C12.763 41.1382 16.1868 37.7144 16.1868 33.5049C16.1868 29.2953 12.763 25.8715 8.5534 25.8715C4.34384 25.8715 0.920038 29.2953 0.920038 33.5049C0.920038 37.7144 4.34384 41.1382 8.5534 41.1382ZM8.5534 26.7716C12.2664 26.7716 15.2867 29.7919 15.2867 33.5049C15.2867 37.2179 12.2664 40.2382 8.5534 40.2382C4.84041 40.2382 1.82007 37.2179 1.82007 33.5049C1.82007 29.7919 4.84041 26.7716 8.5534 26.7716Z" fill="white"/>
<path d="M8.55335 41.6504C13.0436 41.6504 16.6974 37.9966 16.6974 33.5063C16.6974 29.016 13.0436 25.3623 8.55335 25.3623C4.06305 25.3623 0.409304 29.016 0.409304 33.5063C0.409304 37.9966 4.06305 41.6504 8.55335 41.6504ZM8.55335 26.3216C12.5146 26.3216 15.7367 29.5436 15.7367 33.5049C15.7367 37.4662 12.5146 40.6883 8.55335 40.6883C4.59207 40.6883 1.37 37.4662 1.37 33.5049C1.37 29.5436 4.59207 26.3216 8.55335 26.3216Z" fill="#23343C"/>
<path d="M15.7382 24.6061L14.714 20.4431L13.8788 20.563L14.9397 24.7825" fill="white"/>
<path d="M17.1855 21.14L17.0134 21.4377C16.8978 21.6394 16.6819 21.7635 16.4492 21.7635H12.6247C12.2015 21.7635 11.7924 21.5674 11.561 21.2133C11.4595 21.0582 11.3367 20.7323 11.3367 20.515L17.1855 21.1386V21.14Z" fill="#18272D"/>
<path d="M30.0921 24.2422C30.0921 24.2422 31.8865 31.4622 33.5892 33.1339L33.1872 33.5895C33.1872 33.5895 30.5054 29.8949 29.2668 24.695L30.0921 24.2408V24.2422Z" fill="#23343C"/>
<path d="M14.6095 24.1603L28.3527 22.1994C28.3527 22.1994 27.8166 19.7942 27.9238 19.7504C28.1524 19.6573 29.1794 19.6376 29.1794 19.6376L29.4206 20.3641L29.2132 20.539L29.5363 22.0047L30.0935 24.2435C30.0935 24.2435 18.4904 35.0877 18.4424 35.099L17.5805 35.4883L8.68877 33.5698L8.29659 33.2608L14.6095 24.1631V24.1603ZM18.1772 33.5909L28.8126 23.6031L16.1867 25.4342L18.1772 33.5909ZM17.4422 34.9621L14.7901 24.8487L8.96668 33.1705L17.4422 34.9621Z" fill="#23343C"/>
<path d="M32.1376 35.9263C30.6774 35.3125 29.9913 33.6312 30.6051 32.171C31.2189 30.7108 32.9002 30.0247 34.3604 30.6385C35.8206 31.2523 36.5067 32.9336 35.8929 34.3938C35.2791 35.854 33.5978 36.5401 32.1376 35.9263Z" fill="#23343C"/>
<path d="M5.80919 34.0582C5.38324 32.5326 6.27467 30.9506 7.80026 30.5246C9.32586 30.0987 10.9079 30.9901 11.3338 32.5157C11.7598 34.0413 10.8684 35.6233 9.34278 36.0493C7.81718 36.4752 6.23514 35.5838 5.80919 34.0582Z" fill="#23343C"/>
<path d="M7.35009 33.2834C7.35009 33.9592 7.89745 34.5079 8.57318 34.5079C9.24891 34.5079 9.79626 33.9606 9.79626 33.2834C9.79626 32.6063 9.24891 32.0603 8.57318 32.0603C7.89745 32.0603 7.35009 32.6077 7.35009 33.2834Z" fill="white"/>
<path d="M32.0262 33.2834C32.0262 33.9592 32.5735 34.5079 33.2507 34.5079C33.9278 34.5079 34.4738 33.9606 34.4738 33.2834C34.4738 32.6063 33.9264 32.0603 33.2507 32.0603C32.5749 32.0603 32.0262 32.6077 32.0262 33.2834Z" fill="white"/>
<path d="M19.4751 31.1307H21.2526C21.3516 31.1307 21.4318 31.2109 21.4318 31.3098V31.6287C21.4318 31.7276 21.3516 31.8078 21.2526 31.8078H19.4751C19.3762 31.8078 19.2959 31.7276 19.2959 31.6287V31.3098C19.2959 31.2109 19.3762 31.1307 19.4751 31.1307Z" fill="#2A4556"/>
<path d="M17.7413 37.6538C19.4328 37.6538 20.8082 36.2784 20.8082 34.5869C20.8082 32.8955 19.4328 31.52 17.7413 31.52C16.0499 31.52 14.6745 32.8955 14.6745 34.5869C14.6745 36.2784 16.0499 37.6538 17.7413 37.6538ZM17.7413 32.0279C19.1521 32.0279 20.3004 33.1762 20.3004 34.5869C20.3004 35.9976 19.1521 37.1459 17.7413 37.1459C16.3306 37.1459 15.1823 35.9976 15.1823 34.5869C15.1823 33.1762 16.3306 32.0279 17.7413 32.0279Z" fill="#A87927"/>
<path d="M17.7414 35.683C18.3452 35.683 18.8375 35.1921 18.8375 34.5883C18.8375 33.9845 18.3466 33.4922 17.7414 33.4922C17.1362 33.4922 16.6453 33.9831 16.6453 34.5883C16.6453 35.1935 17.1362 35.683 17.7414 35.683Z" fill="white"/>
<path d="M17.7413 34.965C17.9501 34.965 18.1194 34.7957 18.1194 34.5869C18.1194 34.3781 17.9501 34.2088 17.7413 34.2088C17.5325 34.2088 17.3632 34.3781 17.3632 34.5869C17.3632 34.7957 17.5325 34.965 17.7413 34.965Z" fill="#E6B344"/>
<path d="M31.3138 19.2722H33.6654C35.2158 19.2722 35.7829 20.3923 35.8873 20.9383C36.1737 22.4181 35.3287 23.3591 33.9701 23.4564C32.7273 23.5467 32.7132 22.5056 33.8502 22.5902C33.8502 22.5902 34.9689 22.6749 34.9943 21.566C35.0183 20.4572 34.0153 20.2089 33.6951 20.216C33.3748 20.2245 31.3138 20.2202 31.3138 20.2202C31.3138 20.2202 30.8158 19.8774 31.3138 19.2708V19.2722Z" fill="#23343C"/>
<path d="M17.7159 34.6504C17.7611 34.6687 17.8133 34.6603 17.8471 34.6236L20.756 31.4382C20.7984 31.3916 20.7927 31.3211 20.7447 31.2774C20.6968 31.2351 20.6234 31.2379 20.5811 31.2844L17.6722 34.4698C17.6299 34.5164 17.6355 34.5883 17.6835 34.6306C17.6934 34.6391 17.7047 34.6462 17.7159 34.6504Z" fill="#2A4556"/>
<path d="M11.0109 14.4984L11.736 14.7523L11.7487 14.7579L16.5536 16.4832C16.5536 16.4832 19.1648 14.0737 20.134 13.6463C20.8873 13.312 21.6547 12.8224 22.3008 12.0508C22.7438 11.5246 23.1289 10.87 23.4153 10.0433C23.4153 10.0433 22.3883 8.69752 22.3488 7.42506C22.3488 7.42506 19.8673 5.9156 16.4788 7.95126C13.0889 9.98691 11.0095 14.497 11.0095 14.497L11.0109 14.4984Z" fill="#EFC900"/>
<path opacity="0.56" d="M20.1353 13.6477C20.8886 13.3134 21.656 12.8239 22.3021 12.0522C22.1385 11.8011 21.9325 11.4921 21.8507 11.4315C21.7082 11.3229 20.1917 10.6344 20.1917 10.6344C20.1917 10.6344 20.0563 12.2441 20.1367 13.6477H20.1353Z" fill="#721816"/>
<path d="M18.4509 29.1105C18.4509 29.1105 18.5638 29.8074 19.3002 29.6353C19.7784 29.5239 20.0126 28.9497 20.0126 28.9497C20.0126 28.9497 20.416 27.989 20.8209 27.278C22.0073 25.1916 24.5353 20.9326 24.6284 19.8069C24.7497 18.3016 20.3145 17.427 20.3145 17.427L20.2947 17.506L19.4003 21.1104L21.0861 21.1188C19.9575 21.8157 19.7953 23.8584 19.5513 25.1549C19.4666 25.6105 19.3199 26.148 19.1817 26.6178C18.9898 27.2639 18.4523 29.1077 18.4523 29.1077L18.4509 29.1105Z" fill="#DB6D58"/>
<path d="M11.0108 14.4984L12.1408 14.8948L12.3199 14.9597L12.6063 15.0598L12.7869 15.1219L15.2063 15.9726L20.3144 17.427C20.3144 17.427 20.3144 17.4298 20.3144 17.4312V17.427C20.3144 17.427 24.7497 18.3016 24.6298 19.8069C24.5367 20.9326 21.6067 26.4316 20.5204 28.3812C20.2411 28.329 19.0716 28.0285 18.568 27.6518C18.7471 27.1835 19.3312 25.588 19.4158 25.1309C19.6599 23.833 20.1494 22.0287 20.7066 21.1188L19.4017 21.1118C19.4017 21.1118 14.7577 21.1837 12.6754 20.8762C10.1192 20.4967 9.0358 17.0193 11.0122 14.4955L11.0108 14.4984Z" fill="#374A66"/>
<path d="M20.3131 11.2227C20.3794 12.024 20.8774 12.8126 21.175 13.6082C21.4374 14.315 21.4938 15.05 21.673 15.4168C21.783 15.6467 21.8536 15.7779 21.8536 15.7779C21.8536 15.7779 22.3572 16.4438 23.916 17.4722C24.675 17.9758 27.289 18.9957 28.1425 19.6672C28.9974 20.3387 29.3078 21.3149 29.9581 21.2754C30.6099 21.2331 31.9331 20.1962 31.9331 20.1962C31.6058 19.869 31.9331 19.2595 31.9331 19.2595C31.9331 19.2595 31.6876 18.8716 31.3025 18.7912C30.9146 18.7094 29.573 18.9125 29.0031 18.5485C28.4331 18.1818 26.8856 16.3916 25.8896 15.7186L24.8922 15.0471C24.8922 15.0471 23.9273 12.5728 23.5394 11.1578C23.0851 9.496 22.4912 8.92325 22.4912 8.92325C21.5136 8.4958 20.1494 9.26887 20.3131 11.2227Z" fill="#DB6D58"/>
<path d="M24.4296 13.0665C24.4296 13.0665 23.7637 13.6421 22.9187 13.9299C22.2782 14.1471 21.4882 14.2162 21.1017 14.1288C21.1017 14.1288 19.2494 10.4101 20.8167 9.16024C20.8167 9.16024 21.484 8.46053 22.4517 8.80897C22.9046 8.97262 23.2615 9.32529 23.4787 9.75415C23.7595 10.3057 24.1658 11.344 24.4296 13.0665Z" fill="black"/>
<path d="M20.062 28.8566C20.062 28.8566 19.8673 29.3024 18.4326 29.0936C18.4326 29.0936 18.2619 30.0246 17.8852 30.517C17.5086 31.0093 18.6527 31.5821 19.4906 31.2971C20.3286 31.0121 20.9775 31.6526 21.8112 31.5355C22.645 31.4184 23.8243 30.4535 23.3701 30.177C22.9158 29.9005 21.4092 29.8568 20.9281 29.2629C20.5303 28.7705 20.0605 28.8566 20.0605 28.8566H20.062Z" fill="white"/>
<path d="M18.2379 30.6679C18.2379 30.6679 18.5525 31.0418 19.2494 30.9571C19.9463 30.8725 20.6234 30.9529 21.3965 31.18C22.1696 31.4057 23.0005 30.4676 23.0005 30.4676" stroke="#213247" stroke-width="0.0646154" stroke-miterlimit="10" stroke-linecap="round"/>
<path d="M22.1597 29.9189C22.1597 29.9189 21.6984 29.885 21.2074 30.9557" stroke="#213247" stroke-width="0.0646154" stroke-miterlimit="10" stroke-linecap="round"/>
<path d="M18.6413 29.8808C18.6413 29.8808 19.7501 30.3816 21.0043 29.5972" stroke="#213247" stroke-width="0.0646154" stroke-miterlimit="10" stroke-linecap="round"/>
<path d="M28.0255 6.39101C28.0255 6.39101 28.0113 6.38255 28.0029 6.37832C27.6178 6.21467 27.2989 6.29085 27.2848 6.29367C27.2143 6.3106 27.172 6.38255 27.1889 6.45167C27.2058 6.52221 27.2764 6.56453 27.3469 6.5476C27.3511 6.5476 27.6008 6.49117 27.8999 6.61814C27.9662 6.64635 28.0438 6.61532 28.072 6.54901C28.0974 6.49117 28.0762 6.42346 28.0255 6.3896V6.39101Z" fill="#23343C"/>
<path d="M27.2355 7.1302C27.2087 7.22754 27.2665 7.3277 27.3639 7.35451C27.4612 7.38131 27.5614 7.32347 27.5882 7.22613C27.615 7.12879 27.5571 7.02863 27.4598 7.00183C27.3625 6.97502 27.2623 7.03286 27.2355 7.1302Z" fill="#23343C"/>
<path d="M28.0777 7.43634C28.0777 7.43634 28.2413 8.05705 28.0988 8.15721C28.0085 8.2207 27.8816 8.22634 27.8816 8.22634" stroke="#23343C" stroke-width="0.0646154" stroke-miterlimit="10" stroke-linecap="round"/>
<path d="M27.4019 8.91335C27.4019 8.91335 27.1959 8.93874 27.1931 8.59735" stroke="#23343C" stroke-width="0.0646154" stroke-miterlimit="10" stroke-linecap="round"/>
<path d="M29.1709 4.7701C29.1709 4.7701 29.3078 5.84365 26.4708 5.46981C23.6353 5.09598 22.7734 4.97748 23.047 4.26224C23.3207 3.54701 24.0035 3.63871 24.8203 3.09559C25.6371 2.55246 28.8987 2.1758 29.1709 4.77151V4.7701Z" fill="#374A66"/>
<path d="M24.5226 3.64576C24.5226 3.64576 26.0772 3.3213 27.2058 4.09014L28.3344 4.86039C28.3344 4.86039 27.1705 4.62198 26.3523 4.63326C25.5341 4.64596 24.6989 4.06616 24.524 3.64576H24.5226Z" fill="#425A77"/>
<path d="M25.3677 2.86139C26.5908 2.50589 28.9425 2.58348 29.1724 4.77009C29.1724 4.77009 29.1809 4.83639 29.1498 4.93091C28.9425 4.93655 28.7929 4.75739 28.2357 3.97585C27.4852 2.92346 25.884 2.85434 25.3691 2.86139H25.3677Z" fill="#425A77"/>
<path d="M23.0485 4.26083C23.167 3.95188 23.3617 3.79388 23.61 3.66974C23.6847 3.90251 23.8724 4.32431 24.2744 4.45692C24.2744 4.45692 23.4675 4.62338 23.0273 4.3229C23.033 4.30315 23.04 4.28199 23.0485 4.26083Z" fill="#425A77"/>
<path d="M26.705 5.15806C26.705 5.15806 26.3904 6.99762 25.0672 7.89484L24.96 7.83418C24.96 7.83418 26.2762 5.96357 26.1887 5.01981L26.7064 5.15806H26.705Z" fill="#374A66"/>
<path d="M25.2463 5.30334C25.2463 5.30334 24.9726 7.6423 25.156 8.28559C25.3394 8.92887 25.5863 9.74003 26.1844 10.032C26.1844 10.032 25.6724 10.1477 25.4382 9.89239C25.204 9.63705 24.6313 8.60159 24.6524 7.19087C24.6736 5.78016 24.8245 5.22293 24.8245 5.22293L25.2477 5.30193L25.2463 5.30334Z" fill="#374A66"/>
<path d="M24.6002 7.88777C24.5889 8.05706 24.7173 8.20518 24.8866 8.21647C25.0558 8.22775 25.204 8.09938 25.2153 7.93009C25.2265 7.76081 25.0982 7.61268 24.9289 7.6014C24.7596 7.59011 24.6115 7.71849 24.6002 7.88777Z" fill="#425A77"/>
<path d="M25.2435 6.69995C25.2167 6.68161 24.7117 6.26545 24.5255 6.73522C24.3393 7.20499 24.6144 7.76363 25.1815 7.32913L25.2435 6.69995Z" fill="#DB6D58"/>
<path d="M25.0079 7.10483C25.0079 7.10483 24.9092 6.8777 24.7201 6.86218" stroke="#23343C" stroke-width="0.0646154" stroke-miterlimit="10" stroke-linecap="round"/>
<path d="M24.7427 7.14999L24.8767 6.95813" stroke="#23343C" stroke-width="0.0646154" stroke-miterlimit="10" stroke-linecap="round"/>
<path d="M25.2435 6.69995C25.2167 6.68161 24.7117 6.26545 24.5255 6.73522C24.3393 7.20499 24.6144 7.76363 25.1815 7.32913" stroke="#23343C" stroke-width="0.0646154" stroke-miterlimit="10" stroke-linecap="round"/>
<path d="M23.3701 18.8236C23.3701 18.8236 22.4997 19.931 23.8046 21.2345" stroke="#213247" stroke-width="0.0646154" stroke-miterlimit="10" stroke-linecap="round"/>
<path d="M20.4767 27.9693C20.4767 27.9693 19.4172 27.8127 18.8953 27.3612" stroke="#213247" stroke-width="0.0646154" stroke-miterlimit="10" stroke-linecap="round"/>
<path d="M21.5714 20.6223C21.5714 20.6223 19.3834 26.354 19.3129 27.223" stroke="#213247" stroke-width="0.0646154" stroke-miterlimit="10" stroke-linecap="round"/>
<path d="M13.323 15.7821C13.323 15.7821 11.7571 17.0574 10.4451 17.0941" stroke="#213247" stroke-width="0.0646154" stroke-miterlimit="10" stroke-linecap="round"/>
<path d="M23.9823 12.7985C23.9823 12.7985 22.6619 13.6971 21.1764 13.6082" stroke="#721816" stroke-width="0.0646154" stroke-miterlimit="10" stroke-linecap="round"/>
<path d="M16.4675 15.7948C16.4675 15.7948 12.897 14.9413 11.7924 13.9312" stroke="#721816" stroke-width="0.0646154" stroke-miterlimit="10" stroke-linecap="round"/>
<path d="M13.3958 1.00772L19.7857 7.83226L12.442 14.7082L6.05212 7.88368L13.3958 1.00772Z" fill="#EEC802"/>
<path d="M18.4245 6.52746C18.2786 6.47276 18.1159 6.5467 18.0612 6.69261C18.0065 6.83852 18.0805 7.00114 18.2264 7.05584C19.0775 7.3749 20.3486 7.91107 21.3954 8.48089C21.9203 8.76659 22.3768 9.05439 22.6948 9.32121C22.854 9.45485 22.9686 9.57514 23.0399 9.67885C23.1128 9.7848 23.1235 9.84834 23.1217 9.87754C23.1119 10.0331 23.2301 10.167 23.3856 10.1768C23.5411 10.1866 23.6751 10.0684 23.6848 9.91289C23.6977 9.7076 23.6144 9.5184 23.5049 9.35908C23.3937 9.19751 23.2374 9.03999 23.0575 8.88899C22.6972 8.58654 22.2025 8.27776 21.6652 7.98528C20.5877 7.39873 19.2905 6.8521 18.4245 6.52746Z" fill="#FFD600"/>
<path d="M13.3958 1.00772L19.3779 7.39677L12.0342 14.2727L6.05212 7.88368L13.3958 1.00772Z" fill="#FFD600"/>
<path d="M11.3893 9.14029L12.0266 7.32144C11.8661 7.16396 11.781 6.97821 11.7713 6.76419C11.7616 6.55017 11.8433 6.36202 12.0165 6.19976C12.1342 6.08949 12.2724 6.02411 12.4309 6.00363C12.5894 5.98315 12.7369 6.00644 12.8734 6.07351C13.1224 5.91832 13.393 5.85895 13.6851 5.89542C13.9772 5.93188 14.2259 6.05981 14.4311 6.27919C14.6365 6.49858 14.7478 6.7552 14.765 7.04906C14.7822 7.34292 14.7052 7.60893 14.534 7.84708C14.592 7.98776 14.6056 8.13651 14.5748 8.29334C14.5439 8.45016 14.4696 8.58367 14.3517 8.69385C14.1785 8.85602 13.9838 8.92347 13.7676 8.89622C13.5514 8.86896 13.3754 8.77588 13.2396 8.61698L11.3893 9.14029ZM11.992 8.57594L13.0697 8.26895C12.9901 8.23947 12.9131 8.19889 12.8387 8.1472C12.7643 8.09551 12.6947 8.03503 12.6298 7.96575C12.5715 7.90339 12.5195 7.834 12.4739 7.75757C12.4284 7.68113 12.3913 7.59987 12.3627 7.51379L11.992 8.57594Z" fill="black"/>
</g>
<defs>
<clipPath id="clip0_140_9715">
<rect width="42" height="42" fill="white"/>
</clipPath>
</defs>
</svg>
